<svg width="120" height="120" viewBox="0 0 120 120" fill="none" xmlns="http://www.w3.org/2000/svg">
<circle cx="60" cy="60" r="60" fill="#3982F7"/>
<path d="M79.0948 44.5515H36.1942C31.6583 44.5515 27.9844 48.017 27.9844 52.2904V66.6292H87.307V52.2904C87.307 48.0147 83.6307 44.5515 79.0972 44.5515H79.0948Z" fill="white"/>
<path d="M49.4971 43.3153V37.4353C49.4971 35.7338 51.1228 35 53.1219 35H68.0679C70.067 35 71.6927 35.7315 71.6927 37.4353V43.3153" stroke="white" stroke-width="5" stroke-linecap="round" stroke-linejoin="round"/>
<path d="M83.1395 44.0886H36.845C31.9505 44.0886 27.9844 47.5541 27.9844 51.8275V87.2394H92.0025V51.8298C92.0025 47.5541 88.0364 44.0909 83.142 44.0909L83.1395 44.0886Z" fill="white"/>
<path d="M29 65H91" stroke="#3982F7" stroke-width="3" stroke-miterlimit="10"/>
<path d="M60.1191 80.7513C68.6923 80.7513 75.6423 73.8512 75.6423 65.3395C75.6423 56.8278 68.6923 49.9277 60.1191 49.9277C51.5459 49.9277 44.5959 56.8278 44.5959 65.3395C44.5959 73.8512 51.5459 80.7513 60.1191 80.7513Z" fill="#3982F7"/>
<mask id="mask0_1_18" style="mask-type:luminance" maskUnits="userSpaceOnUse" x="46" y="51" width="29" height="29">
<path d="M60.2566 79.4054C68.0635 79.4054 74.3923 73.122 74.3923 65.3712C74.3923 57.6203 68.0635 51.3369 60.2566 51.3369C52.4497 51.3369 46.121 57.6203 46.121 65.3712C46.121 73.122 52.4497 79.4054 60.2566 79.4054Z" fill="white"/>
</mask>
<g mask="url(#mask0_1_18)">
<path d="M80.716 48.6403V82.0996H39.7972V48.6403H80.716ZM46.7791 52.5317C46.5753 52.439 46.3494 52.3902 46.121 52.3902C45.9834 52.3902 45.8435 52.4073 45.7084 52.4439C45.0159 52.6292 44.537 53.2534 44.537 53.9629V79.4005C44.537 80.2709 45.2467 80.9756 46.1234 80.9756H58.0317C58.2944 80.9756 58.5498 80.9097 58.7733 80.7927C58.9993 80.9097 59.2522 80.9756 59.515 80.9756H74.3923C75.269 80.9756 75.9788 80.2709 75.9788 79.4005V60.2632C75.9788 60.0364 75.9296 59.8194 75.8437 59.6243C75.9296 59.4293 75.9788 59.2123 75.9788 58.9855V51.3321C75.9788 50.4616 75.269 49.757 74.3923 49.757H48.3656C47.4889 49.757 46.7791 50.4616 46.7791 51.3321V52.5292M82.3 47.0628H38.2108V83.6698H82.3V47.0677V47.0628ZM53.8764 64.6056L48.3631 55.1259V51.3345H74.3898V58.988H60.2542C56.9658 58.988 54.2546 61.4408 53.8764 64.6056ZM46.1185 79.4005V53.9629L48.3631 57.7835V57.6762L54.6893 68.5554C55.7993 70.4621 57.8745 71.7446 60.2517 71.7446C61.1481 71.7446 62.0003 71.5617 62.7738 71.2326L58.0243 79.3981H46.1161L46.1185 79.4005ZM59.5125 79.4005L65.8191 68.5579C66.3642 67.6192 66.6786 66.5317 66.6786 65.3712C66.6786 63.2841 65.6692 61.431 64.1098 60.268H74.3898V79.4054H59.5764H59.5739H59.5125V79.4005ZM60.2542 70.4694C57.4153 70.4694 55.1142 68.1848 55.1142 65.3663C55.1142 62.5477 57.4153 60.2632 60.2542 60.2632C63.0931 60.2632 65.3942 62.5477 65.3942 65.3663C65.3942 68.1848 63.0931 70.4694 60.2542 70.4694Z" fill="white"/>
</g>
<path d="M60.2566 51.3369C68.0637 51.3369 74.3923 57.6202 74.3923 65.3712C74.3923 73.1222 68.0637 79.4054 60.2566 79.4054C52.4496 79.4054 46.121 73.1222 46.121 65.3712C46.121 57.6202 52.4496 51.3369 60.2566 51.3369ZM60.2566 49.896C51.6613 49.896 44.6696 56.8375 44.6696 65.3712C44.6696 73.9048 51.6613 80.8464 60.2566 80.8464C68.852 80.8464 75.8437 73.9048 75.8437 65.3712C75.8437 56.8375 68.852 49.896 60.2566 49.896Z" stroke="white" stroke-width="3" stroke-linecap="round" stroke-linejoin="round"/>
</svg>
