<svg width="120" height="120" viewBox="0 0 120 120" fill="none" xmlns="http://www.w3.org/2000/svg">
<circle cx="60" cy="60" r="60" fill="#F5B840"/>
<g clip-path="url(#clip0_1_2)">
<path d="M86.1203 57.2409L87.5367 45.8919L87.6641 44.861C88.1675 40.8226 85.3104 37.1369 81.2796 36.6321L74.6252 35.7989L69.3568 35.139C69.4903 34.0746 69.4296 33.0316 69.2082 32.0432C68.3984 28.4397 65.4139 25.5598 61.5468 25.0733C56.6182 24.456 52.1233 27.9622 51.5076 32.9038L39.5848 31.4107C35.557 30.9059 31.881 33.7705 31.3775 37.812L29.8337 50.1918C34.18 50.7362 37.4102 54.3063 37.6922 58.5333C37.7286 59.0989 37.7165 59.6767 37.6437 60.2575C37.028 65.1991 32.5331 68.7054 27.6045 68.0881L26.2821 78.695L26.0576 80.4862C25.5542 84.5246 28.4113 88.2103 32.4421 88.7151L44.2739 90.1991L44.3679 90.2112C44.9836 85.2696 49.4785 81.7634 54.4071 82.3807C59.3358 82.998 62.8328 87.5048 62.2171 92.4464L74.1399 93.9395C78.1677 94.4443 81.8437 91.5797 82.3472 87.5382L83.894 75.131C88.8227 75.7483 93.3176 72.2421 93.9333 67.3004C94.549 62.3588 91.0519 57.8521 86.1233 57.2348L86.1203 57.2409Z" fill="white"/>
</g>
<defs>
<clipPath id="clip0_1_2">
<rect width="68" height="69" fill="white" transform="translate(26 25)"/>
</clipPath>
</defs>
</svg>
