<svg xmlns="http://www.w3.org/2000/svg" width="66" height="57" fill="none"><path fill="#fff" d="M52.095 13.551h-42.9c-4.537 0-8.21 3.466-8.21 7.74v14.338h59.322V21.29c0-4.276-3.676-7.739-8.21-7.739h-.002Z"/><path stroke="#fff" stroke-linecap="round" stroke-linejoin="round" stroke-width="5" d="M22.497 12.315v-5.88C22.497 4.734 24.123 4 26.122 4h14.946c1.999 0 3.625.732 3.625 2.435v5.88"/><path fill="#fff" d="M56.14 13.088H9.844c-4.894 0-8.86 3.466-8.86 7.74v35.411h64.017V20.83c0-4.275-3.966-7.738-8.86-7.738l-.003-.003Z"/><path stroke="#3982F7" stroke-miterlimit="10" stroke-width="3" d="M2 34h62"/><path fill="#3982F7" d="M33.12 49.751c8.572 0 15.522-6.9 15.522-15.411 0-8.512-6.95-15.412-15.523-15.412s-15.523 6.9-15.523 15.412c0 8.511 6.95 15.411 15.523 15.411Z"/><mask id="a" width="29" height="29" x="19" y="20" maskUnits="userSpaceOnUse" style="mask-type:luminance"><path fill="#fff" d="M33.257 48.405c7.807 0 14.135-6.283 14.135-14.034 0-7.75-6.328-14.034-14.135-14.034-7.807 0-14.136 6.283-14.136 14.034s6.329 14.034 14.136 14.034Z"/></mask><g mask="url(#a)"><path fill="#fff" d="M53.716 17.64V51.1H12.797V17.64h40.92ZM19.78 21.532a1.597 1.597 0 0 0-1.07-.088 1.575 1.575 0 0 0-1.172 1.52V48.4c0 .87.71 1.575 1.587 1.575h11.908c.263 0 .518-.066.741-.183.226.117.48.183.742.183h14.877A1.58 1.58 0 0 0 48.98 48.4V29.263c0-.226-.05-.443-.135-.639.086-.194.135-.412.135-.638v-7.654c0-.87-.71-1.575-1.587-1.575H21.366a1.58 1.58 0 0 0-1.587 1.575v1.197M55.3 16.063H11.21V52.67H55.3V16.063ZM26.877 33.606l-5.514-9.48v-3.791H47.39v7.653H33.254c-3.288 0-6 2.453-6.377 5.618ZM19.119 48.4V22.963l2.244 3.82v-.107l6.326 10.88a6.426 6.426 0 0 0 5.563 3.189c.896 0 1.748-.183 2.522-.512l-4.75 8.165H19.116l.003.003Zm13.394 0 6.306-10.843c.545-.939.86-2.026.86-3.187 0-2.087-1.01-3.94-2.569-5.103h10.28v19.138H32.513V48.4Zm.741-8.931c-2.839 0-5.14-2.285-5.14-5.103 0-2.82 2.301-5.104 5.14-5.104 2.84 0 5.14 2.285 5.14 5.104 0 2.818-2.3 5.103-5.14 5.103Z"/></g><path stroke="#fff" stroke-linecap="round" stroke-linejoin="round" stroke-width="3" d="M33.257 20.337c7.807 0 14.135 6.283 14.135 14.034s-6.328 14.034-14.135 14.034c-7.807 0-14.136-6.283-14.136-14.034 0-7.75 6.329-14.034 14.136-14.034Zm0-1.441c-8.596 0-15.587 6.941-15.587 15.475 0 8.534 6.991 15.475 15.587 15.475 8.595 0 15.587-6.941 15.587-15.475 0-8.534-6.992-15.475-15.587-15.475Z"/></svg>