<svg width="55" height="55" viewBox="0 0 55 55" fill="none" xmlns="http://www.w3.org/2000/svg">
<circle cx="27.5" cy="27.5" r="27.5" fill="#2095F2"/>
<g clip-path="url(#clip0_1_5)">
<path d="M40.0698 21.55C40.0898 21.84 40.0898 22.12 40.0898 22.41C40.0898 31.19 33.4098 41.31 21.1898 41.31C17.5798 41.31 14.0398 40.28 11.0098 38.33C11.5298 38.39 12.0598 38.42 12.5898 38.43C15.5798 38.43 18.4898 37.43 20.8398 35.58C17.9998 35.53 15.4998 33.67 14.6298 30.97C15.6298 31.16 16.6498 31.12 17.6298 30.86C14.5298 30.23 12.2998 27.51 12.2998 24.35V24.27C13.2198 24.78 14.2598 25.07 15.3198 25.1C12.3898 23.13 11.4898 19.25 13.2598 16.21C16.6298 20.36 21.6098 22.88 26.9498 23.15C26.4098 20.84 27.1498 18.42 28.8698 16.8C31.5498 14.28 35.7498 14.41 38.2698 17.09C39.7598 16.8 41.1798 16.25 42.4898 15.48C41.9898 17.02 40.9598 18.32 39.5698 19.15C40.8898 18.99 42.1698 18.64 43.3898 18.1C42.4998 19.44 41.3698 20.6 40.0698 21.54V21.55Z" fill="white"/>
</g>
<defs>
<clipPath id="clip0_1_5">
<rect width="32.39" height="26.32" fill="white" transform="translate(11 15)"/>
</clipPath>
</defs>
</svg>
