<?xml version="1.0" encoding="utf-8"?>
<!-- Generator: Adobe Illustrator 27.8.1, SVG Export Plug-In . SVG Version: 6.00 Build 0)  -->
<svg version="1.1" id="Layer_1" xmlns="http://www.w3.org/2000/svg" xmlns:xlink="http://www.w3.org/1999/xlink" x="0px" y="0px"
	 viewBox="0 0 120 120" style="enable-background:new 0 0 120 120;" xml:space="preserve">
<style type="text/css">
	.st0{fill:#F5B840;}
</style>
<path class="st0" d="M60,0C26.9,0,0,26.9,0,60s26.9,60,60,60s60-26.9,60-60S93.1,0,60,0z M93.9,67.3c-0.6,4.9-5.1,8.4-10,7.8
	l-1.5,12.4c-0.5,4-4.2,6.9-8.2,6.4l-11.9-1.5c0.6-4.9-2.9-9.4-7.8-10.1c-4.9-0.6-9.4,2.9-10,7.8l-0.1,0l-11.8-1.5
	c-4-0.5-6.9-4.2-6.4-8.2l1.5-12.4c4.9,0.6,9.4-2.9,10-7.8c0.1-0.6,0.1-1.2,0-1.7c-0.3-4.2-3.5-7.8-7.9-8.3l1.5-12.4
	c0.5-4,4.2-6.9,8.2-6.4l11.9,1.5c0.6-4.9,5.1-8.4,10-7.8c3.9,0.5,6.9,3.4,7.7,7c0.2,1,0.3,2,0.1,3.1l11.9,1.5c4,0.5,6.9,4.2,6.4,8.2
	l-0.1,1l-1.4,11.3l0,0C91.1,57.9,94.5,62.4,93.9,67.3z"/>
</svg>
