<svg xmlns="http://www.w3.org/2000/svg" width="59" height="97" fill="none"><path fill="#fff" d="M29.641 5.048a2.133 2.133 0 0 0 2.128-2.137c0-1.18-.953-2.138-2.128-2.138a2.133 2.133 0 0 0-2.128 2.138c0 1.18.953 2.137 2.128 2.137Z"/><path fill="#EA3323" d="M29.641 5.822a2.906 2.906 0 0 1-2.898-2.911A2.908 2.908 0 0 1 29.64 0a2.908 2.908 0 0 1 2.898 2.91 2.908 2.908 0 0 1-2.898 2.912Zm0-4.275c-.75 0-1.358.611-1.358 1.364 0 .753.608 1.364 1.358 1.364.75 0 1.358-.611 1.358-1.364 0-.753-.608-1.364-1.358-1.364Z"/><path fill="#fff" d="m42.704 11.6-3.03-3.042-2.948 2.96 3.03 3.043 2.948-2.96Z"/><path fill="#EA3323" d="M39.758 15.335a.758.758 0 0 1-.544-.227l-3.03-3.042a.779.779 0 0 1-.225-.547c0-.204.082-.402.225-.546l2.947-2.96a.768.768 0 0 1 1.089 0l3.029 3.042a.78.78 0 0 1 .226.547.78.78 0 0 1-.226.546l-2.947 2.96a.762.762 0 0 1-.544.227Zm-1.941-3.816 1.94 1.95 1.86-1.867-1.941-1.95-1.859 1.867Z"/><path fill="#fff" d="M22.135 11.733h-7.177a.643.643 0 0 1-.642-.644c0-.356.288-.645.642-.645h7.177c.354 0 .642.29.642.645a.643.643 0 0 1-.642.644Z"/><path fill="#fff" d="M18.547 15.338a.643.643 0 0 1-.642-.645V7.484c0-.355.287-.644.642-.644.354 0 .641.289.641.644v7.21a.643.643 0 0 1-.641.644ZM53.866 5.793h-5.303a.643.643 0 0 1-.642-.645c0-.355.287-.644.642-.644h5.303a.643.643 0 0 1 0 1.29Z"/><path fill="#fff" d="M51.214 8.457a.643.643 0 0 1-.642-.645V2.485c0-.355.288-.644.642-.644.355 0 .642.289.642.644v5.327a.643.643 0 0 1-.642.645ZM11.631 20.226l-9.056 6.977h19.458a2.176 2.176 0 0 1-.044-.434v-.24c0-1.2.978-2.186 2.177-2.186h11.18c1.195 0 2.176.983 2.176 2.187v.24c0 .146-.015.293-.044.433H56.67l-6.89-7.01-38.148.033Z"/><path fill="#fff" d="M25.383 23.789a3.254 3.254 0 0 0 3.247-3.262 3.254 3.254 0 0 0-3.247-3.26 3.254 3.254 0 0 0-3.248 3.26 3.254 3.254 0 0 0 3.247 3.262Z"/><path fill="#EA3323" d="M25.383 24.563c-2.216 0-4.018-1.81-4.018-4.035s1.802-4.035 4.018-4.035c2.215 0 4.017 1.81 4.017 4.035s-1.802 4.035-4.017 4.035Zm0-6.523a2.486 2.486 0 0 0-2.478 2.488 2.486 2.486 0 0 0 2.478 2.488 2.486 2.486 0 0 0 2.477-2.488 2.486 2.486 0 0 0-2.477-2.488ZM2.575 27.203h54.094V70.42c0 2.715-2.195 4.92-4.898 4.92H7.473c-2.704 0-4.898-2.205-4.898-4.92V27.203Z"/><mask id="a" width="55" height="49" x="2" y="27" maskUnits="userSpaceOnUse" style="mask-type:luminance"><path fill="#fff" d="M2.575 27.203h54.094V70.42c0 2.715-2.195 4.92-4.898 4.92H7.473c-2.704 0-4.898-2.205-4.898-4.92V27.203Z"/></mask><g mask="url(#a)"><path fill="#EA3323" d="M29.41 91.238c10.415 0 18.857-8.48 18.857-18.94s-8.443-18.94-18.857-18.94c-10.415 0-18.857 8.48-18.857 18.94s8.442 18.94 18.857 18.94Z"/><mask id="b" width="39" height="39" x="10" y="53" maskUnits="userSpaceOnUse" style="mask-type:luminance"><path fill="#fff" d="M29.41 91.238c10.415 0 18.857-8.48 18.857-18.94s-8.443-18.94-18.857-18.94c-10.415 0-18.857 8.48-18.857 18.94s8.442 18.94 18.857 18.94Z"/></mask><g mask="url(#b)"><path fill="#EA3323" d="M0 47.597V97h58.82V47.597H0Zm10.553 43.641V56.907l2.993 5.156v-.144l8.44 14.683a8.554 8.554 0 0 0 10.787 3.612l-6.336 11.022H10.55l.003.002Zm12-18.94c0-3.802 3.07-6.886 6.857-6.886 3.786 0 6.856 3.084 6.856 6.886 0 3.803-3.07 6.887-6.856 6.887s-6.857-3.084-6.857-6.886Zm25.714 18.94H28.42l8.412-14.634v-.002a8.597 8.597 0 0 0 1.148-4.303 8.608 8.608 0 0 0-3.43-6.887h13.713v25.826h.005Zm0-27.548H29.41c-4.387 0-8.001 3.31-8.51 7.582L13.546 58.48v-5.117h34.718v10.33l.003-.002Z"/></g><path fill="#EA3323" d="M29.41 53.359c10.414 0 18.857 8.48 18.857 18.94 0 10.459-8.443 18.939-18.857 18.939s-18.857-8.48-18.857-18.94 8.443-18.94 18.857-18.94Zm0-1.947c-11.467 0-20.795 9.37-20.795 20.886 0 11.517 9.328 20.886 20.795 20.886 11.467 0 20.795-9.369 20.795-20.886S40.877 51.412 29.41 51.412Z"/></g><path fill="#fff" d="M51.774 75.34H7.473c-2.706 0-4.898-2.201-4.898-4.919V28.234l54.148.01-.054 42.177c0 2.718-2.192 4.92-4.898 4.92h.003Z"/><mask id="c" width="55" height="46" x="2" y="28" maskUnits="userSpaceOnUse" style="mask-type:luminance"><path fill="#fff" d="M51.774 73.793H7.473c-2.706 0-4.898-.654-4.898-3.372V28.234l54.148.01-.054 42.177c0 2.718-2.192 3.372-4.898 3.372h.003Z"/></mask><g mask="url(#c)"><path fill="#EA3323" d="M29.59 51.502c10.414 0 18.857 8.48 18.857 18.94s-8.443 18.94-18.857 18.94c-10.415 0-18.858-8.48-18.858-18.94s8.443-18.94 18.858-18.94Z"/><mask id="d" width="39" height="39" x="10" y="51" maskUnits="userSpaceOnUse" style="mask-type:luminance"><path fill="#fff" d="M29.59 89.382c10.414 0 18.857-8.48 18.857-18.94s-8.443-18.94-18.857-18.94c-10.415 0-18.858 8.48-18.858 18.94s8.443 18.94 18.858 18.94Z"/></mask><g mask="url(#d)"><path fill="#fff" d="M.18 45.74v49.404H59V45.74H.18Zm10.552 43.642V55.05l2.994 5.157v-.145l8.44 14.683a8.554 8.554 0 0 0 10.786 3.612L26.617 89.38H10.73l.002.003Zm12.001-18.94c0-3.803 3.07-6.886 6.857-6.886 3.786 0 6.856 3.083 6.856 6.886s-3.07 6.887-6.856 6.887c-3.787 0-6.857-3.084-6.857-6.887Zm25.714 18.94H28.599l8.412-14.634v-.003a8.597 8.597 0 0 0 1.147-4.303 8.608 8.608 0 0 0-3.43-6.886h13.714v25.826h.005Zm0-27.549H29.59c-4.387 0-8.002 3.31-8.51 7.583l-7.354-12.793v-5.118h34.718v10.331l.003-.003Z"/></g><path fill="#fff" d="M29.59 51.502c10.414 0 18.857 8.48 18.857 18.94s-8.443 18.94-18.857 18.94c-10.415 0-18.857-8.48-18.857-18.94s8.442-18.94 18.857-18.94Zm0-1.946c-11.467 0-20.796 9.369-20.796 20.886s9.329 20.886 20.796 20.886c11.466 0 20.795-9.37 20.795-20.886 0-11.517-9.328-20.886-20.795-20.886Z"/></g><path fill="#EA3323" d="M35.72 31.467H23.527a2.38 2.38 0 0 0-2.375 2.385v.258a2.38 2.38 0 0 0 2.375 2.385H35.72a2.38 2.38 0 0 0 2.374-2.385v-.258a2.38 2.38 0 0 0-2.374-2.385Z"/></svg>