<svg width="55" height="55" viewBox="0 0 55 55" fill="none" xmlns="http://www.w3.org/2000/svg">
<circle cx="27.5" cy="27.5" r="27.5" fill="#FB0301"/>
<g clip-path="url(#clip0_1_2)">
<path d="M27.17 14C28.84 14.03 30.67 14.05 32.49 14.09C33.63 14.12 34.76 14.16 35.9 14.21C36.79 14.25 37.67 14.3 38.55 14.37C39.42 14.43 40.3 14.51 41.16 14.64C42.11 14.79 42.99 15.1 43.75 15.7C44.67 16.42 45.26 17.36 45.52 18.5C45.72 19.34 45.85 20.18 45.97 21.04C46.09 21.98 46.18 22.91 46.24 23.85C46.32 25.18 46.37 26.5 46.35 27.83C46.34 28.83 46.32 29.83 46.27 30.83C46.22 31.82 46.13 32.8 46.04 33.79C45.94 34.84 45.78 35.89 45.57 36.92C45.2 38.76 43.72 40.27 41.88 40.68C41.3 40.81 40.71 40.9 40.12 40.96C39.22 41.05 38.33 41.13 37.43 41.2C36.82 41.25 36.2 41.28 35.59 41.3C33.99 41.36 32.38 41.42 30.78 41.45C29.11 41.48 27.43 41.48 25.76 41.47C24.12 41.47 22.49 41.43 20.85 41.39C19.59 41.36 18.33 41.3 17.07 41.24C16.04 41.19 15.02 41.11 14 41.02C13.19 40.95 12.38 40.87 11.58 40.7C10.37 40.45 9.4 39.82 8.65 38.84C8.19 38.23 7.9 37.53 7.75 36.78C7.55 35.81 7.41 34.83 7.31 33.85C7.02 31.34 6.96 28.81 7.02 26.27C7.04 25.18 7.1 24.08 7.17 22.99C7.26 21.69 7.4 20.4 7.63 19.11C7.72 18.59 7.83 18.07 8.06 17.58C8.7 16.21 9.75 15.3 11.2 14.88C11.56 14.77 11.93 14.73 12.31 14.68C12.99 14.59 13.67 14.51 14.36 14.44C14.95 14.38 15.53 14.34 16.12 14.3C17.26 14.23 18.4 14.17 19.54 14.12C20.51 14.08 21.48 14.06 22.45 14.04C23.97 14.02 25.49 14.01 27.17 13.99V14ZM22.88 21.86C22.85 22.03 22.85 33.48 22.88 33.61C26.29 31.65 29.7 29.7 33.13 27.74C29.7 25.77 26.29 23.82 22.88 21.86Z" fill="white"/>
<path d="M22.88 21.86C26.29 23.82 29.7 25.77 33.13 27.74C29.71 29.71 26.3 31.66 22.88 33.61C22.85 33.48 22.84 22.03 22.88 21.86Z" fill="#FB0301"/>
</g>
<defs>
<clipPath id="clip0_1_2">
<rect width="39.35" height="27.49" fill="white" transform="translate(7 14)"/>
</clipPath>
</defs>
</svg>
