<svg width="33" height="27" viewBox="0 0 33 27" fill="none" xmlns="http://www.w3.org/2000/svg">
<path d="M29.0698 6.54988C29.0898 6.83988 29.0898 7.11988 29.0898 7.40988C29.0898 16.1899 22.4098 26.3099 10.1898 26.3099C6.57977 26.3099 3.03977 25.2799 0.00976562 23.3299C0.529766 23.3899 1.05977 23.4199 1.58977 23.4299C4.57977 23.4299 7.48977 22.4299 9.83977 20.5799C6.99977 20.5299 4.49977 18.6699 3.62977 15.9699C4.62977 16.1599 5.64977 16.1199 6.62977 15.8599C3.52977 15.2299 1.29977 12.5099 1.29977 9.34988V9.26988C2.21977 9.77988 3.25977 10.0699 4.31977 10.0999C1.38977 8.12988 0.489766 4.24988 2.25977 1.20988C5.62977 5.35988 10.6098 7.87988 15.9498 8.14988C15.4098 5.83988 16.1498 3.41988 17.8698 1.79988C20.5498 -0.720121 24.7498 -0.590121 27.2698 2.08988C28.7598 1.79988 30.1798 1.24988 31.4898 0.479879C30.9898 2.01988 29.9598 3.31988 28.5698 4.14988C29.8898 3.98988 31.1698 3.63988 32.3898 3.09988C31.4998 4.43988 30.3698 5.59988 29.0698 6.53988V6.54988Z" fill="white"/>
</svg>
