<svg width="120" height="120" viewBox="0 0 120 120" fill="none" xmlns="http://www.w3.org/2000/svg">
<circle cx="60" cy="60" r="60" fill="#EA3323"/>
<path d="M60.6412 26.0481C61.8165 26.0481 62.7692 25.0912 62.7692 23.9108C62.7692 22.7304 61.8165 21.7735 60.6412 21.7735C59.4659 21.7735 58.5131 22.7304 58.5131 23.9108C58.5131 25.0912 59.4659 26.0481 60.6412 26.0481Z" fill="white"/>
<path d="M60.6412 26.8216C59.0419 26.8216 57.743 25.517 57.743 23.9108C57.743 22.3046 59.0445 21 60.6412 21C62.2379 21 63.5393 22.3046 63.5393 23.9108C63.5393 25.517 62.2379 26.8216 60.6412 26.8216ZM60.6412 22.5469C59.8916 22.5469 59.2832 23.158 59.2832 23.9108C59.2832 24.6636 59.8916 25.2747 60.6412 25.2747C61.3908 25.2747 61.9991 24.6636 61.9991 23.9108C61.9991 23.158 61.3908 22.5469 60.6412 22.5469Z" fill="#EA3323"/>
<path d="M73.7036 32.6009L70.6741 29.5582L67.7263 32.5188L70.7558 35.5615L73.7036 32.6009Z" fill="white"/>
<path d="M70.7577 36.3352C70.5601 36.3352 70.3624 36.2604 70.2135 36.1083L67.1845 33.066C67.0407 32.9216 66.9586 32.7231 66.9586 32.5194C66.9586 32.3158 67.0407 32.1172 67.1845 31.9729L70.1314 29.0131C70.4317 28.7114 70.9195 28.7114 71.2198 29.0131L74.2489 32.0554C74.3926 32.1997 74.4748 32.3983 74.4748 32.6019C74.4748 32.8056 74.3926 33.0041 74.2489 33.1485L71.3019 36.1083C71.1505 36.2604 70.9554 36.3352 70.7577 36.3352ZM68.8171 32.5194L70.7577 34.4686L72.6163 32.6019L70.6756 30.6528L68.8171 32.5194Z" fill="#EA3323"/>
<path d="M53.1353 32.7334H45.9579C45.6037 32.7334 45.3162 32.4447 45.3162 32.0889C45.3162 31.7331 45.6037 31.4443 45.9579 31.4443H53.1353C53.4895 31.4443 53.777 31.7331 53.777 32.0889C53.777 32.4447 53.4895 32.7334 53.1353 32.7334Z" fill="white"/>
<path d="M49.5466 36.3378C49.1924 36.3378 48.9048 36.049 48.9048 35.6932V28.4845C48.9048 28.1288 49.1924 27.84 49.5466 27.84C49.9008 27.84 50.1883 28.1288 50.1883 28.4845V35.6932C50.1883 36.049 49.9008 36.3378 49.5466 36.3378Z" fill="white"/>
<path d="M84.866 26.7932H79.5626C79.2083 26.7932 78.9208 26.5045 78.9208 26.1487C78.9208 25.7929 79.2083 25.5041 79.5626 25.5041H84.866C85.2202 25.5041 85.5077 25.7929 85.5077 26.1487C85.5077 26.5045 85.2202 26.7932 84.866 26.7932Z" fill="white"/>
<path d="M82.2143 29.4565C81.86 29.4565 81.5725 29.1678 81.5725 28.812V23.4854C81.5725 23.1296 81.86 22.8408 82.2143 22.8408C82.5685 22.8408 82.856 23.1296 82.856 23.4854V28.812C82.856 29.1678 82.5685 29.4565 82.2143 29.4565Z" fill="white"/>
<path d="M42.6311 41.2261L33.5747 48.2027H53.0326C53.0044 48.0635 52.9889 47.9191 52.9889 47.7696V47.5298C52.9889 46.3283 53.967 45.3435 55.1658 45.3435H66.3451C67.5413 45.3435 68.5219 46.3258 68.5219 47.5298V47.7696C68.5219 47.9165 68.5065 48.0635 68.4782 48.2027H87.6692L80.7793 41.1925L42.6311 41.2261Z" fill="white"/>
<path d="M56.3825 44.7891C58.1759 44.7891 59.6298 43.329 59.6298 41.5277C59.6298 39.7265 58.1759 38.2663 56.3825 38.2663C54.5891 38.2663 53.1353 39.7265 53.1353 41.5277C53.1353 43.329 54.5891 44.7891 56.3825 44.7891Z" fill="white"/>
<path d="M56.3825 45.5626C54.1672 45.5626 52.3652 43.7527 52.3652 41.5277C52.3652 39.3027 54.1672 37.4928 56.3825 37.4928C58.5978 37.4928 60.3999 39.3027 60.3999 41.5277C60.3999 43.7527 58.5978 45.5626 56.3825 45.5626ZM56.3825 39.0397C55.0169 39.0397 53.9054 40.1561 53.9054 41.5277C53.9054 42.8993 55.0169 44.0157 56.3825 44.0157C57.7482 44.0157 58.8597 42.8993 58.8597 41.5277C58.8597 40.1561 57.7482 39.0397 56.3825 39.0397Z" fill="#EA3323"/>
<path d="M33.5747 48.2027H87.6692V91.4212C87.6692 94.1361 85.4744 96.3404 82.7713 96.3404H38.4725C35.7695 96.3404 33.5747 94.1361 33.5747 91.4212V48.2027Z" fill="#EA3323"/>
<mask id="mask0_1_48" style="mask-type:luminance" maskUnits="userSpaceOnUse" x="33" y="48" width="55" height="49">
<path d="M33.5747 48.2027H87.6692V91.4212C87.6692 94.1361 85.4744 96.3404 82.7713 96.3404H38.4725C35.7695 96.3404 33.5747 94.1361 33.5747 91.4212V48.2027Z" fill="white"/>
</mask>
<g mask="url(#mask0_1_48)">
<path d="M60.4102 112.238C70.8247 112.238 79.2674 103.758 79.2674 93.2982C79.2674 82.8382 70.8247 74.3586 60.4102 74.3586C49.9956 74.3586 41.5529 82.8382 41.5529 93.2982C41.5529 103.758 49.9956 112.238 60.4102 112.238Z" fill="#EA3323"/>
<mask id="mask1_1_48" style="mask-type:luminance" maskUnits="userSpaceOnUse" x="41" y="74" width="39" height="39">
<path d="M60.4102 112.238C70.8247 112.238 79.2674 103.758 79.2674 93.2982C79.2674 82.8382 70.8247 74.3586 60.4102 74.3586C49.9956 74.3586 41.5529 82.8382 41.5529 93.2982C41.5529 103.758 49.9956 112.238 60.4102 112.238Z" fill="white"/>
</mask>
<g mask="url(#mask1_1_48)">
<path d="M31 68.5963V118H89.8203V68.5963H31ZM41.5529 112.238V77.9063L44.5461 83.0627V82.9183L52.9864 97.6012C54.4675 100.174 57.2348 101.904 60.4076 101.904C61.6038 101.904 62.741 101.657 63.7729 101.213L57.4376 112.235H41.5504L41.5529 112.238ZM53.5537 93.2982C53.5537 89.4953 56.6238 86.4118 60.4102 86.4118C64.1965 86.4118 67.2666 89.4953 67.2666 93.2982C67.2666 97.101 64.1965 100.185 60.4102 100.185C56.6238 100.185 53.5537 97.101 53.5537 93.2982ZM79.2674 112.238H59.504H59.5014H59.4193L67.8314 97.6038V97.6012C68.5604 96.3353 68.9788 94.8657 68.9788 93.2982C68.9788 90.4828 67.6311 87.9819 65.5493 86.4118H79.2622V112.238H79.2674ZM79.2674 84.6895H60.4102C56.0231 84.6895 52.4088 87.9999 51.9005 92.272L44.5461 79.479V74.3612H79.2648V84.6921L79.2674 84.6895Z" fill="#EA3323"/>
</g>
<path d="M60.4102 74.3586C70.8245 74.3586 79.2674 82.8384 79.2674 93.2982C79.2674 103.758 70.8245 112.238 60.4102 112.238C49.9958 112.238 41.5529 103.758 41.5529 93.2982C41.5529 82.8384 49.9958 74.3586 60.4102 74.3586ZM60.4102 72.4121C48.9434 72.4121 39.6149 81.7813 39.6149 93.2982C39.6149 104.815 48.9434 114.184 60.4102 114.184C71.877 114.184 81.2055 104.815 81.2055 93.2982C81.2055 81.7813 71.877 72.4121 60.4102 72.4121Z" fill="#EA3323"/>
</g>
<path d="M82.7739 96.3405H38.4725C35.7669 96.3405 33.5747 94.1387 33.5747 91.4212V49.234L87.7231 49.2443L87.6692 91.4212C87.6692 94.1387 85.4769 96.3405 82.7713 96.3405H82.7739Z" fill="white"/>
<mask id="mask2_1_48" style="mask-type:luminance" maskUnits="userSpaceOnUse" x="33" y="49" width="55" height="46">
<path d="M82.7739 94.7935H38.4725C35.7669 94.7935 33.5747 94.1387 33.5747 91.4212V49.234L87.7231 49.2443L87.6692 91.4212C87.6692 94.1387 85.4769 94.7935 82.7713 94.7935H82.7739Z" fill="white"/>
</mask>
<g mask="url(#mask2_1_48)">
<path d="M60.5898 72.5023C71.0042 72.5023 79.447 80.9821 79.447 91.4419C79.447 101.902 71.0042 110.381 60.5898 110.381C50.1755 110.381 41.7326 101.902 41.7326 91.4419C41.7326 80.9821 50.1755 72.5023 60.5898 72.5023Z" fill="#EA3323"/>
<mask id="mask3_1_48" style="mask-type:luminance" maskUnits="userSpaceOnUse" x="41" y="72" width="39" height="39">
<path d="M60.5898 110.381C71.0044 110.381 79.447 101.902 79.447 91.4419C79.447 80.9818 71.0044 72.5023 60.5898 72.5023C50.1753 72.5023 41.7326 80.9818 41.7326 91.4419C41.7326 101.902 50.1753 110.381 60.5898 110.381Z" fill="white"/>
</mask>
<g mask="url(#mask3_1_48)">
<path d="M31.1797 66.74V116.144H90V66.74H31.1797ZM41.7326 110.381V76.0499L44.7258 81.2064V81.062L53.1661 95.7449C54.6472 98.3179 57.4145 100.048 60.5873 100.048C61.7835 100.048 62.9207 99.8004 63.9526 99.357L57.6173 110.379H41.7301L41.7326 110.381ZM53.7334 91.4419C53.7334 87.639 56.8035 84.5555 60.5898 84.5555C64.3762 84.5555 67.4463 87.639 67.4463 91.4419C67.4463 95.2447 64.3762 98.3283 60.5898 98.3283C56.8035 98.3283 53.7334 95.2447 53.7334 91.4419ZM79.447 110.381H59.6837H59.6811H59.599L68.011 95.7475V95.7449C68.7401 94.479 69.1585 93.0094 69.1585 91.4419C69.1585 88.6264 67.8108 86.1256 65.729 84.5555H79.4419V110.381H79.447ZM79.447 82.8332H60.5898C56.2028 82.8332 52.5885 86.1436 52.0802 90.4157L44.7258 77.6226V72.5049H79.4445V82.8358L79.447 82.8332Z" fill="white"/>
</g>
<path d="M60.5898 72.5023C71.0042 72.5023 79.4471 80.9821 79.4471 91.4419C79.4471 101.902 71.0042 110.381 60.5898 110.381C50.1755 110.381 41.7326 101.902 41.7326 91.4419C41.7326 80.9821 50.1755 72.5023 60.5898 72.5023ZM60.5898 70.5558C49.123 70.5558 39.7946 79.925 39.7946 91.4419C39.7946 102.959 49.123 112.328 60.5898 112.328C72.0566 112.328 81.3851 102.959 81.3851 91.4419C81.3851 79.925 72.0566 70.5558 60.5898 70.5558Z" fill="white"/>
</g>
<path d="M66.7198 52.4671H54.5266C53.2152 52.4671 52.1521 53.5348 52.1521 54.8519V55.1097C52.1521 56.4268 53.2152 57.4946 54.5266 57.4946H66.7198C68.0312 57.4946 69.0943 56.4268 69.0943 55.1097V54.8519C69.0943 53.5348 68.0312 52.4671 66.7198 52.4671Z" fill="#EA3323"/>
</svg>
