<svg xmlns="http://www.w3.org/2000/svg" width="40" height="28" fill="none"><g clip-path="url(#a)"><path fill="#fff" d="M20.17 0c1.67.03 3.5.05 5.32.09 1.14.03 2.27.07 3.41.12.89.04 1.77.09 2.65.16.87.06 1.75.14 2.61.27.95.15 1.83.46 2.59 1.06.92.72 1.51 1.66 1.77 2.8.2.84.33 1.68.45 2.54.12.94.21 1.87.27 2.81.08 1.33.13 2.65.11 3.98-.01 1-.03 2-.08 3-.05.99-.14 1.97-.23 2.96-.1 1.05-.26 2.1-.47 3.13-.37 1.84-1.85 3.35-3.69 3.76-.58.13-1.17.22-1.76.28-.9.09-1.79.17-2.69.24-.61.05-1.23.08-1.84.1-1.6.06-3.21.12-4.81.15-1.67.03-3.35.03-5.02.02-1.64 0-3.27-.04-4.91-.08-1.26-.03-2.52-.09-3.78-.15-1.03-.05-2.05-.13-3.07-.22-.81-.07-1.62-.15-2.42-.32-1.21-.25-2.18-.88-2.93-1.86-.46-.61-.75-1.31-.9-2.06-.2-.97-.34-1.95-.44-2.93-.29-2.51-.35-5.04-.29-7.58.02-1.09.08-2.19.15-3.28.09-1.3.23-2.59.46-3.88.09-.52.2-1.04.43-1.53C1.7 2.21 2.75 1.3 4.2.88c.36-.11.73-.15 1.11-.2C5.99.59 6.67.51 7.36.44 7.95.38 8.53.34 9.12.3 10.26.23 11.4.17 12.54.12c.97-.04 1.94-.06 2.91-.08 1.52-.02 3.04-.03 4.72-.05V0Zm-4.29 7.86c-.03.17-.03 11.62 0 11.75 3.41-1.96 6.82-3.91 10.25-5.87-3.43-1.97-6.84-3.92-10.25-5.88Z"/><path fill="#FB0301" d="M15.88 7.86c3.41 1.96 6.82 3.91 10.25 5.88-3.42 1.97-6.83 3.92-10.25 5.87-.03-.13-.04-11.58 0-11.75Z"/></g><defs><clipPath id="a"><path fill="#fff" d="M0 0h39.35v27.49H0z"/></clipPath></defs></svg>