<svg xmlns="http://www.w3.org/2000/svg" width="68" height="69" fill="none"><g clip-path="url(#a)"><path fill="#fff" d="m60.12 32.241 1.417-11.349.127-1.03c.503-4.04-2.354-7.725-6.385-8.23l-6.654-.833-5.268-.66a9.006 9.006 0 0 0-.149-3.096C42.398 3.44 39.414.56 35.547.073c-4.929-.617-9.424 2.89-10.04 7.83L13.585 6.412c-4.028-.505-7.704 2.36-8.208 6.401l-1.543 12.38c4.346.544 7.576 4.114 7.858 8.341a9.141 9.141 0 0 1-.048 1.725c-.616 4.941-5.111 8.447-10.04 7.83L.282 53.695l-.224 1.791c-.504 4.039 2.353 7.724 6.384 8.23l11.832 1.483.094.012c.616-4.941 5.11-8.447 10.039-7.83 4.929.617 8.426 5.124 7.81 10.066L48.14 68.94c4.028.504 7.704-2.36 8.207-6.402l1.547-12.407c4.929.617 9.423-2.889 10.04-7.83.615-4.942-2.882-9.449-7.81-10.066l-.004.006Z"/></g><defs><clipPath id="a"><path fill="#fff" d="M0 0h68v69H0z"/></clipPath></defs></svg>