<svg width="40" height="40" viewBox="0 0 40 40" fill="none" xmlns="http://www.w3.org/2000/svg">
<circle cx="20" cy="20" r="20" fill="#3982F7"/>
<g clip-path="url(#clip0_1_2)">
<path d="M12.6794 9.6707V17.8293V17.7458V28.6053V9.6707ZM15.4504 20.8087H20.6285C20.8356 20.4913 21.0595 20.1961 21.3003 19.9177C21.541 19.6392 21.8153 19.3775 22.112 19.138H15.4504V20.8087ZM15.4504 25.5424H19.8168C19.7608 25.2639 19.716 24.9855 19.688 24.707C19.6601 24.4286 19.6545 24.1501 19.6712 23.8717H15.4448V25.5424H15.4504ZM12.6794 30.276C12.2316 30.276 11.8397 30.109 11.5038 29.7748C11.1679 29.4407 11 29.0508 11 28.6053V9.6707C11 9.22518 11.1679 8.83535 11.5038 8.50121C11.8397 8.16707 12.2316 8 12.6794 8H22.7837L28.9135 14.0981V18.3862C28.6504 18.2581 28.3817 18.1467 28.1018 18.0521C27.8219 17.9574 27.5308 17.885 27.2341 17.8293V14.8499H21.944V9.6707H12.6794V28.6053H21.4962C21.8712 28.9952 22.2855 29.3293 22.7445 29.6077C23.2036 29.8862 23.7018 30.109 24.2448 30.276H12.6794ZM26.1145 27.2131C26.9934 27.2131 27.7267 26.9179 28.3145 26.3332C28.9023 25.7484 29.199 25.0189 29.199 24.1446C29.199 23.2702 28.9023 22.5407 28.3145 21.9559C27.7267 21.3712 26.9934 21.076 26.1145 21.076C25.2356 21.076 24.5023 21.3712 23.9145 21.9559C23.3267 22.5407 23.03 23.2702 23.03 24.1446C23.03 25.0189 23.3267 25.7484 23.9145 26.3332C24.5023 26.9179 25.2356 27.2131 26.1145 27.2131ZM31.8244 31L28.8239 28.0206C28.4377 28.2823 28.0122 28.4884 27.5532 28.6499C27.0941 28.8114 26.6127 28.8893 26.1089 28.8893C24.7878 28.8893 23.6626 28.4271 22.7389 27.5082C21.8153 26.5893 21.3506 25.47 21.3506 24.1501C21.3506 22.8303 21.8153 21.7165 22.7389 20.7976C23.6626 19.8787 24.7878 19.4165 26.1145 19.4165C27.4412 19.4165 28.5608 19.8787 29.4845 20.7976C30.4081 21.7165 30.8728 22.8358 30.8728 24.1501C30.8728 24.6513 30.7944 25.1303 30.6321 25.5869C30.4753 26.0436 30.2626 26.4613 29.9995 26.8511L32.9944 29.8361L31.8188 31.0056L31.8244 31Z" fill="white"/>
</g>
<defs>
<clipPath id="clip0_1_2">
<rect width="22" height="23" fill="white" transform="translate(11 8)"/>
</clipPath>
</defs>
</svg>
