<?xml version="1.0" encoding="utf-8"?>
<!-- Generator: Adobe Illustrator 27.8.1, SVG Export Plug-In . SVG Version: 6.00 Build 0)  -->
<svg version="1.1" id="Layer_1" xmlns="http://www.w3.org/2000/svg" xmlns:xlink="http://www.w3.org/1999/xlink" x="0px" y="0px"
	 viewBox="0 0 120 120" style="enable-background:new 0 0 120 120;" xml:space="preserve">
<style type="text/css">
	.st0{fill:#4DA949;}
</style>
<path class="st0" d="M64.3,58.4V37h-8.7v21.4L37.9,79.1c-0.4,0.4-0.5,1.1-0.2,1.6c0.2,0.5,0.8,0.9,1.4,0.9h41.8
	c0.6,0,1.1-0.3,1.4-0.9v0c0.2-0.5,0.2-1.2-0.2-1.6L64.3,58.4z M80,79.8c0,0.1-0.1,0.2-0.4,0.2H40.3c-0.2,0-0.3-0.2-0.4-0.2
	c0-0.1-0.1-0.2,0.1-0.4l11.9-13.8h16.2L80,79.3C80.1,79.5,80,79.7,80,79.8z M60,0L60,0C26.9,0,0,26.9,0,60v0c0,33.1,26.9,60,60,60h0
	c33.1,0,60-26.9,60-60v0C120,26.9,93.1,0,60,0z M87.1,82.7c-0.9,1.9-2.3,2.9-4.4,2.9H37.3c-2.1,0-3.5-1-4.4-2.9
	c-0.9-1.9-0.6-3.7,0.8-5.2L52,56.9V37h-3.8c-0.6,0-1.2-0.2-1.6-0.6c-0.4-0.4-0.6-1-0.6-1.6c0-0.6,0.2-1.2,0.6-1.6
	c0.4-0.4,1-0.6,1.6-0.6h23.6c0.6,0,1.2,0.2,1.6,0.6c0.4,0.4,0.6,1,0.6,1.6c0,0.6-0.2,1.2-0.6,1.6c-0.4,0.4-1,0.6-1.6,0.6H68v19.9
	l18.3,20.6l0,0C87.7,79.1,88,80.8,87.1,82.7z"/>
</svg>
