<svg width="120" height="120" viewBox="0 0 120 120" fill="none" xmlns="http://www.w3.org/2000/svg">
<circle cx="60" cy="60" r="60" fill="#4DA949"/>
<g clip-path="url(#clip0_1_2)">
<path d="M69.5718 34.7447C69.3245 35.1179 69.4255 35.6211 69.7974 35.8685C70.1692 36.1159 70.671 36.014 70.9183 35.6407L78.4583 24.2572C78.7055 23.8839 78.6045 23.3808 78.2327 23.1333C77.8609 22.8859 77.359 22.9879 77.1118 23.3612L69.5718 34.7447Z" fill="white"/>
<path d="M45.5535 23.364C45.3063 22.9907 44.8044 22.8887 44.4326 23.1362C44.0608 23.3836 43.9597 23.8867 44.207 24.26L51.747 35.6435C51.9942 36.0168 52.4961 36.1188 52.8679 35.8713C53.2397 35.6239 53.3407 35.1208 53.0935 34.7475L45.5535 23.364Z" fill="white"/>
<path d="M74.5194 32.0158H45.4806C42.4538 32.0158 40 34.4753 40 37.5091V91.5067C40 94.5406 42.4538 97 45.4806 97H74.5194C77.5462 97 80 94.5406 80 91.5067V37.5091C80 34.4753 77.5462 32.0158 74.5194 32.0158Z" fill="white"/>
<path d="M78.0313 37.894V91.1194C78.0313 93.078 76.4443 94.6711 74.4878 94.6711H45.5073C43.5533 94.6711 41.9638 93.0804 41.9638 91.1194V37.894C41.9638 35.9354 43.5509 34.3423 45.5073 34.3423H74.4878C76.4418 34.3423 78.0313 35.933 78.0313 37.894Z" stroke="#4DA949" stroke-width="2" stroke-miterlimit="10" stroke-linecap="round"/>
<path d="M67.7336 57.8234L70.638 54.9123C71.073 54.4762 71.073 53.7747 70.638 53.3386C70.2029 52.9026 69.503 52.9026 69.0679 53.3386L65.7747 56.6297C63.9932 55.7479 62.0027 55.2363 59.876 55.2363C57.7494 55.2363 55.737 55.7503 53.9434 56.6419L50.638 53.3289C50.2029 52.8928 49.503 52.8928 49.0679 53.3289C48.6329 53.7649 48.6329 54.4665 49.0679 54.9026L51.9844 57.8258C48.6791 60.2692 46.5208 64.1961 46.5208 68.6248H73.2313C73.2313 64.1864 71.0609 60.2594 67.7336 57.8258V57.8234ZM55.4259 64.1596H53.1997V61.9281H55.4259V64.1596ZM66.5549 64.1596H64.3286V61.9281H66.5549V64.1596Z" fill="#4DA949"/>
</g>
<defs>
<clipPath id="clip0_1_2">
<rect width="40" height="74" fill="white" transform="translate(40 23)"/>
</clipPath>
</defs>
</svg>
