<svg xmlns="http://www.w3.org/2000/svg" width="40" height="74" fill="none"><g clip-path="url(#a)"><path fill="#fff" d="M29.572 11.745a.808.808 0 1 0 1.346.896l7.54-11.384a.808.808 0 1 0-1.346-.896l-7.54 11.384ZM5.553.364a.808.808 0 1 0-1.346.896l7.54 11.383a.808.808 0 1 0 1.347-.896L5.554.364Z"/><path fill="#fff" d="M34.52 9.016H5.48A5.487 5.487 0 0 0 0 14.509v53.998A5.487 5.487 0 0 0 5.48 74h29.04c3.026 0 5.48-2.46 5.48-5.493V14.509a5.487 5.487 0 0 0-5.48-5.493Z"/><path stroke="#4DA949" stroke-linecap="round" stroke-miterlimit="10" stroke-width="2" d="M38.031 14.894V68.12a3.55 3.55 0 0 1-3.543 3.552H5.508a3.55 3.55 0 0 1-3.544-3.552V14.894a3.55 3.55 0 0 1 3.543-3.552h28.98a3.55 3.55 0 0 1 3.544 3.552Z"/><path fill="#4DA949" d="m27.733 34.824 2.905-2.912a1.112 1.112 0 0 0-1.57-1.573l-3.293 3.29a13.233 13.233 0 0 0-5.899-1.393c-2.127 0-4.14.514-5.933 1.406l-3.305-3.313a1.112 1.112 0 0 0-1.57 1.574l2.916 2.923c-3.305 2.443-5.463 6.37-5.463 10.799h26.71c0-4.438-2.17-8.365-5.498-10.799v-.002ZM15.426 41.16H13.2v-2.232h2.226v2.232Zm11.129 0h-2.227v-2.232h2.227v2.232Z"/></g><defs><clipPath id="a"><path fill="#fff" d="M0 0h40v74H0z"/></clipPath></defs></svg>