<svg fill="none" height="960" viewBox="0 0 480 240" width="1920" xmlns="http://www.w3.org/2000/svg" xmlns:xlink="http://www.w3.org/1999/xlink"><clipPath id="a"><path d="m0 0h480v240h-480z"/></clipPath><clipPath id="b"><path d="m43 41h150v150h-150z"/></clipPath><mask id="c" height="150" maskUnits="userSpaceOnUse" width="150" x="43" y="41"><rect fill="#2879ff" height="150" rx="75" width="150" x="43" y="41"/></mask><g clip-path="url(#a)"><path d="m0 0h480v240h-480z" fill="#fff"/><circle cx="118" cy="120" fill="#2879ff" opacity=".1" r="350"/><g clip-path="url(#b)"><rect fill="#2879ff" height="150" rx="75" width="150" x="43" y="41"/><g mask="url(#c)" stroke="#fff" stroke-opacity=".2" stroke-width=".568182"><path d="m8.90918 6.90918 218.18182 218.18182"/><path d="m227.091 6.90918-218.18182 218.18182"/><path d="m149.534 6.90918v218.18182"/><path d="m86.4658 6.90918v218.18182"/><path d="m227.091 147.534h-218.18182"/><path d="m227.091 84.4661h-218.18182"/><path d="m118 160.318c24.476 0 44.318-19.842 44.318-44.318 0-24.4762-19.842-44.3181-44.318-44.3181-24.4764 0-44.3184 19.8419-44.3184 44.3181 0 24.476 19.842 44.318 44.3184 44.318z"/><path d="m8.90918 116h218.18182"/><path d="m118 6.90918v218.18182"/></g><path d="m118 184.182c37.656 0 68.182-30.526 68.182-68.182 0-37.6558-30.526-68.1819-68.182-68.1819-37.6556 0-68.1816 30.5261-68.1816 68.1819 0 37.656 30.526 68.182 68.1816 68.182z" fill="#fff" fill-opacity=".08"/><g clip-rule="evenodd" fill-rule="evenodd"><path d="m60.0459 78.5 27.8255 27.822c-.8887 2.892-1.367 5.964-1.367 9.148 0 5.489 1.4218 10.646 3.9173 15.122z" fill="#000" fill-opacity=".05"/><path d="m144.769 131.909.009.005-30.187 52.792 10.193-38.027c8.53-1.949 15.724-7.405 19.985-14.77z" fill="#000" fill-opacity=".05"/><path d="m117.853 84.75c.171 0 .343.0014.514.0042l60.455-.0006-37.981 10.1489c5.041 5.5275 8.114 12.8795 8.114 20.9505 0 17.177-13.925 31.102-31.102 31.102-17.178 0-31.103-13.925-31.103-31.102 0-17.1779 13.925-31.103 31.103-31.103z" fill="#000" fill-opacity=".05"/><path d="m118 183.046c37.028 0 67.045-30.018 67.045-67.046 0-37.0281-30.017-67.0454-67.045-67.0454-37.0286 0-67.0459 30.0173-67.0459 67.0454 0 37.028 30.0173 67.046 67.0459 67.046z" stroke="#fff" stroke-width="2.27273"/></g><path d="m118 146.682c16.945 0 30.682-13.737 30.682-30.682 0-16.9452-13.737-30.6819-30.682-30.6819s-30.6816 13.7367-30.6816 30.6819c0 16.945 13.7366 30.682 30.6816 30.682z" stroke="#fff" stroke-width="2.27273"/><path d="m118 137.591c11.924 0 21.591-9.667 21.591-21.591s-9.667-21.5908-21.591-21.5908-21.5908 9.6668-21.5908 21.5908 9.6668 21.591 21.5908 21.591z" stroke="#fff" stroke-width="2.27273"/><path d="m178.227 84.1819h-60.227v2.2727h60.227z" fill="#fff"/><path clip-rule="evenodd" d="m145.556 131.909-30.114 52.159-1.968-1.137 30.113-52.158z" fill="#fff" fill-rule="evenodd"/><path clip-rule="evenodd" d="m90.4443 131.909-30.1136-52.1582 1.9682-1.1363 30.1137 52.1585z" fill="#fff" fill-rule="evenodd"/></g><g fill="#000" font-family="Google Sans" letter-spacing="0em"><text font-size="48"><tspan x="218" y="132.32">DevTools</tspan></text><text font-size="32"><tspan x="218" y="170.88">Chrome $version</tspan></text><text font-size="24"><tspan x="218" y="83.16">$banner</tspan></text></g></g></svg>