<svg width="283" height="129" viewBox="0 0 283 129" fill="none" xmlns="http://www.w3.org/2000/svg">
<path d="M30.7 33.66L12.16 47.16L0.280001 28.98L36.46 2.88H54.28V126H30.7V33.66ZM118.107 128.88C107.787 128.88 98.7269 126.12 90.9269 120.6C83.1269 114.96 77.0669 107.28 72.7469 97.56C68.5469 87.72 66.4469 76.68 66.4469 64.44C66.4469 52.2 68.5469 41.22 72.7469 31.5C77.0669 21.66 83.1269 13.98 90.9269 8.45999C98.7269 2.81999 107.787 -8.58307e-06 118.107 -8.58307e-06C128.427 -8.58307e-06 137.487 2.81999 145.287 8.45999C153.087 13.98 159.087 21.66 163.287 31.5C167.607 41.22 169.767 52.2 169.767 64.44C169.767 76.68 167.607 87.72 163.287 97.56C159.087 107.28 153.087 114.96 145.287 120.6C137.487 126.12 128.427 128.88 118.107 128.88ZM118.107 106.74C123.867 106.74 128.847 104.94 133.047 101.34C137.367 97.62 140.607 92.58 142.767 86.22C145.047 79.74 146.187 72.48 146.187 64.44C146.187 51.96 143.667 41.82 138.627 34.02C133.587 26.1 126.747 22.14 118.107 22.14C109.587 22.14 102.807 26.1 97.7669 34.02C92.7269 41.94 90.2069 52.08 90.2069 64.44C90.2069 72.48 91.2869 79.74 93.4469 86.22C95.7269 92.58 98.9669 97.62 103.167 101.34C107.487 104.94 112.467 106.74 118.107 106.74ZM230.572 128.88C220.252 128.88 211.192 126.12 203.392 120.6C195.592 114.96 189.532 107.28 185.212 97.56C181.012 87.72 178.912 76.68 178.912 64.44C178.912 52.2 181.012 41.22 185.212 31.5C189.532 21.66 195.592 13.98 203.392 8.45999C211.192 2.81999 220.252 -8.58307e-06 230.572 -8.58307e-06C240.892 -8.58307e-06 249.952 2.81999 257.752 8.45999C265.552 13.98 271.552 21.66 275.752 31.5C280.072 41.22 282.232 52.2 282.232 64.44C282.232 76.68 280.072 87.72 275.752 97.56C271.552 107.28 265.552 114.96 257.752 120.6C249.952 126.12 240.892 128.88 230.572 128.88ZM230.572 106.74C236.332 106.74 241.312 104.94 245.512 101.34C249.832 97.62 253.072 92.58 255.232 86.22C257.512 79.74 258.652 72.48 258.652 64.44C258.652 51.96 256.132 41.82 251.092 34.02C246.052 26.1 239.212 22.14 230.572 22.14C222.052 22.14 215.272 26.1 210.232 34.02C205.192 41.94 202.672 52.08 202.672 64.44C202.672 72.48 203.752 79.74 205.912 86.22C208.192 92.58 211.432 97.62 215.632 101.34C219.952 104.94 224.932 106.74 230.572 106.74Z" fill="#4285F4"/>
</svg>
