<svg width="48" height="48" viewBox="0 0 48 48" fill="none" xmlns="http://www.w3.org/2000/svg">
<path d="M24 0.666748C11.12 0.666748 0.666687 11.1201 0.666687 24.0001C0.666687 36.8801 11.12 47.3334 24 47.3334C36.88 47.3334 47.3334 36.8801 47.3334 24.0001C47.3334 11.1201 36.88 0.666748 24 0.666748ZM24 5.33342C30.9067 5.33342 36.9267 9.09008 40.1467 14.6667H24C19.4734 14.6667 15.7167 17.8867 14.8534 22.1567L9.30002 12.5201C12.7067 8.15675 18.0267 5.33342 24 5.33342ZM31 24.0001C31 27.8734 27.8734 31.0001 24 31.0001C20.1267 31.0001 17 27.8734 17 24.0001C17 20.1267 20.1267 17.0001 24 17.0001C27.8734 17.0001 31 20.1267 31 24.0001ZM5.33335 24.0001C5.33335 20.5934 6.26669 17.4201 7.85335 14.6901L15.9267 28.6901L15.95 28.6667C17.56 31.4434 20.5467 33.3334 24 33.3334C25.05 33.3334 26.0534 33.1234 27.01 32.7968L21.4334 42.4801C12.3334 41.2201 5.33335 33.4268 5.33335 24.0001ZM24 42.6668L32.0734 28.6667L32.0267 28.6434C32.8434 27.2668 33.3334 25.7034 33.3334 24.0001C33.3334 21.2001 32.0734 18.7034 30.1134 17.0001H41.29C42.1767 19.1701 42.6667 21.5267 42.6667 24.0001C42.6667 34.3134 34.3134 42.6668 24 42.6668Z" fill="white"/>
</svg>