<svg width="119" height="15" viewBox="0 0 119 15" fill="none" xmlns="http://www.w3.org/2000/svg">
<path d="M25.894 12.224C24.9233 12.224 24.0367 11.9953 23.234 11.538C22.4313 11.0713 21.7967 10.4413 21.33 9.648C20.8727 8.84533 20.644 7.95867 20.644 6.988C20.644 6.01733 20.8727 5.13533 21.33 4.342C21.7967 3.53933 22.4313 2.90933 23.234 2.452C24.0367 1.98533 24.9233 1.752 25.894 1.752C27.406 1.752 28.6567 2.298 29.646 3.39L28.316 4.678C27.672 3.922 26.8693 3.544 25.908 3.544C25.2827 3.544 24.7133 3.68867 24.2 3.978C23.6867 4.258 23.2807 4.65933 22.982 5.182C22.6927 5.70467 22.548 6.30667 22.548 6.988C22.548 7.66933 22.6927 8.27133 22.982 8.794C23.2807 9.31667 23.6867 9.72267 24.2 10.012C24.7133 10.292 25.2827 10.432 25.908 10.432C26.9627 10.432 27.8447 9.99333 28.554 9.116L29.898 10.39C29.4033 10.9873 28.8153 11.4447 28.134 11.762C27.462 12.07 26.7153 12.224 25.894 12.224ZM34.4686 12.224C33.7592 12.224 33.1199 12.0607 32.5506 11.734C31.9812 11.4073 31.5332 10.9593 31.2066 10.39C30.8892 9.81133 30.7306 9.16267 30.7306 8.444C30.7306 7.76267 30.8892 7.13267 31.2066 6.554C31.5239 5.966 31.9626 5.49933 32.5226 5.154C33.0826 4.80867 33.7079 4.636 34.3986 4.636C35.1359 4.636 35.7706 4.79467 36.3026 5.112C36.8346 5.42933 37.2359 5.86333 37.5066 6.414C37.7866 6.96467 37.9266 7.576 37.9266 8.248C37.9266 8.46267 37.9126 8.668 37.8846 8.864H32.5226C32.6159 9.43333 32.8399 9.86733 33.1946 10.166C33.5586 10.4553 33.9926 10.6 34.4966 10.6C34.9166 10.6 35.2759 10.5113 35.5746 10.334C35.8826 10.1473 36.1252 9.9 36.3026 9.592L37.7866 10.32C37.0586 11.5893 35.9526 12.224 34.4686 12.224ZM36.1626 7.562C36.1439 7.338 36.0599 7.11867 35.9106 6.904C35.7706 6.68 35.5699 6.498 35.3086 6.358C35.0566 6.20867 34.7579 6.134 34.4126 6.134C33.9739 6.134 33.5959 6.26467 33.2786 6.526C32.9706 6.778 32.7466 7.12333 32.6066 7.562H36.1626ZM39.3394 1.976H41.1734V12H39.3394V1.976ZM46.2537 12.224C45.5444 12.224 44.9051 12.0607 44.3357 11.734C43.7664 11.4073 43.3184 10.9593 42.9917 10.39C42.6744 9.81133 42.5157 9.16267 42.5157 8.444C42.5157 7.76267 42.6744 7.13267 42.9917 6.554C43.3091 5.966 43.7477 5.49933 44.3077 5.154C44.8677 4.80867 45.4931 4.636 46.1837 4.636C46.9211 4.636 47.5557 4.79467 48.0877 5.112C48.6197 5.42933 49.0211 5.86333 49.2917 6.414C49.5717 6.96467 49.7117 7.576 49.7117 8.248C49.7117 8.46267 49.6977 8.668 49.6697 8.864H44.3077C44.4011 9.43333 44.6251 9.86733 44.9797 10.166C45.3437 10.4553 45.7777 10.6 46.2817 10.6C46.7017 10.6 47.0611 10.5113 47.3597 10.334C47.6677 10.1473 47.9104 9.9 48.0877 9.592L49.5717 10.32C48.8437 11.5893 47.7377 12.224 46.2537 12.224ZM47.9477 7.562C47.9291 7.338 47.8451 7.11867 47.6957 6.904C47.5557 6.68 47.3551 6.498 47.0937 6.358C46.8417 6.20867 46.5431 6.134 46.1977 6.134C45.7591 6.134 45.3811 6.26467 45.0637 6.526C44.7557 6.778 44.5317 7.12333 44.3917 7.562H47.9477ZM55.1005 12.224C54.6152 12.224 54.1812 12.1213 53.7985 11.916C53.4252 11.7107 53.1452 11.454 52.9585 11.146H52.8465V12H51.1245V1.976H52.9585V4.72L52.8465 5.728H52.9585C53.1545 5.42 53.4392 5.16333 53.8125 4.958C54.1858 4.74333 54.6152 4.636 55.1005 4.636C55.7445 4.636 56.3278 4.79933 56.8505 5.126C57.3825 5.44333 57.7978 5.89133 58.0965 6.47C58.3952 7.04867 58.5445 7.702 58.5445 8.43C58.5445 9.16733 58.3952 9.82533 58.0965 10.404C57.7978 10.9733 57.3825 11.4213 56.8505 11.748C56.3278 12.0653 55.7445 12.224 55.1005 12.224ZM54.7785 10.53C55.1238 10.53 55.4458 10.4413 55.7445 10.264C56.0432 10.0867 56.2812 9.83933 56.4585 9.522C56.6358 9.20467 56.7245 8.84067 56.7245 8.43C56.7245 8.01933 56.6358 7.65533 56.4585 7.338C56.2812 7.02067 56.0432 6.778 55.7445 6.61C55.4458 6.43267 55.1238 6.344 54.7785 6.344C54.4425 6.344 54.1252 6.43267 53.8265 6.61C53.5278 6.778 53.2898 7.02067 53.1125 7.338C52.9352 7.65533 52.8465 8.01933 52.8465 8.43C52.8465 8.84067 52.9352 9.20467 53.1125 9.522C53.2898 9.83933 53.5278 10.0867 53.8265 10.264C54.1252 10.4413 54.4425 10.53 54.7785 10.53ZM59.8198 4.86H61.5418V5.812H61.6538C61.8312 5.476 62.1065 5.20067 62.4798 4.986C62.8532 4.762 63.2638 4.65 63.7118 4.65C64.0385 4.65 64.3372 4.70133 64.6078 4.804V6.638C64.3558 6.54467 64.1412 6.47933 63.9638 6.442C63.7958 6.39533 63.6138 6.372 63.4178 6.372C62.8765 6.372 62.4472 6.568 62.1298 6.96C61.8125 7.352 61.6538 7.84667 61.6538 8.444V12H59.8198V4.86ZM67.7597 12.224C67.0037 12.224 66.383 12.0047 65.8977 11.566C65.4124 11.118 65.1697 10.5347 65.1697 9.816C65.1697 9.34 65.2957 8.92 65.5477 8.556C65.7997 8.192 66.145 7.912 66.5837 7.716C67.0224 7.52 67.5077 7.422 68.0397 7.422C68.777 7.422 69.407 7.52933 69.9297 7.744V7.436C69.9297 7.044 69.7804 6.72667 69.4817 6.484C69.1924 6.24133 68.8004 6.12 68.3057 6.12C67.9697 6.12 67.643 6.19933 67.3257 6.358C67.0177 6.50733 66.761 6.708 66.5557 6.96L65.3797 6.036C65.725 5.588 66.159 5.24267 66.6817 5C67.2044 4.75733 67.7737 4.636 68.3897 4.636C69.4817 4.636 70.3124 4.888 70.8817 5.392C71.451 5.896 71.7357 6.63333 71.7357 7.604V12H69.9297V11.272H69.8177C69.603 11.552 69.3184 11.7807 68.9637 11.958C68.6184 12.1353 68.217 12.224 67.7597 12.224ZM68.1937 10.796C68.7257 10.796 69.1457 10.628 69.4537 10.292C69.771 9.94667 69.9297 9.54533 69.9297 9.088C69.4537 8.864 68.9544 8.752 68.4317 8.752C67.4797 8.752 67.0037 9.10667 67.0037 9.816C67.0037 10.1053 67.1064 10.3433 67.3117 10.53C67.517 10.7073 67.811 10.796 68.1937 10.796ZM76.3946 12.112C76.04 12.112 75.7133 12.0607 75.4146 11.958C75.116 11.846 74.8733 11.6967 74.6866 11.51C74.248 11.09 74.0286 10.4927 74.0286 9.718V6.428H72.7826V4.86H74.0286V2.844H75.8626V4.86H77.6126V6.428H75.8626V9.382C75.8626 9.746 75.942 10.0073 76.1006 10.166C76.2313 10.3153 76.4553 10.39 76.7726 10.39C76.95 10.39 77.0946 10.3667 77.2066 10.32C77.328 10.2733 77.482 10.194 77.6686 10.082V11.874C77.2673 12.0327 76.8426 12.112 76.3946 12.112ZM80.2425 4.076C79.9159 4.076 79.6359 3.95933 79.4025 3.726C79.1692 3.49267 79.0525 3.21267 79.0525 2.886C79.0525 2.55933 79.1692 2.284 79.4025 2.06C79.6359 1.82667 79.9159 1.71 80.2425 1.71C80.5692 1.71 80.8445 1.82667 81.0685 2.06C81.3019 2.284 81.4185 2.55933 81.4185 2.886C81.4185 3.21267 81.3019 3.49267 81.0685 3.726C80.8445 3.95933 80.5692 4.076 80.2425 4.076ZM79.3185 4.86H81.1525V12H79.3185V4.86ZM86.4233 12.224C85.686 12.224 85.028 12.0607 84.4493 11.734C83.8707 11.398 83.418 10.9453 83.0913 10.376C82.774 9.79733 82.6153 9.14867 82.6153 8.43C82.6153 7.72067 82.774 7.07667 83.0913 6.498C83.418 5.91933 83.8707 5.46667 84.4493 5.14C85.028 4.804 85.686 4.636 86.4233 4.636C87.1513 4.636 87.8047 4.804 88.3833 5.14C88.962 5.46667 89.41 5.91933 89.7273 6.498C90.054 7.07667 90.2173 7.72067 90.2173 8.43C90.2173 9.14867 90.054 9.79733 89.7273 10.376C89.41 10.9453 88.962 11.398 88.3833 11.734C87.8047 12.0607 87.1513 12.224 86.4233 12.224ZM86.4233 10.53C86.778 10.53 87.1047 10.446 87.4033 10.278C87.702 10.11 87.94 9.86733 88.1173 9.55C88.2947 9.23267 88.3833 8.85933 88.3833 8.43C88.3833 8.01 88.2947 7.64133 88.1173 7.324C87.94 7.00667 87.702 6.764 87.4033 6.596C87.1047 6.428 86.778 6.344 86.4233 6.344C86.0687 6.344 85.742 6.428 85.4433 6.596C85.1447 6.764 84.902 7.00667 84.7153 7.324C84.538 7.64133 84.4493 8.01 84.4493 8.43C84.4493 8.85 84.538 9.22333 84.7153 9.55C84.902 9.86733 85.1447 10.11 85.4433 10.278C85.742 10.446 86.0687 10.53 86.4233 10.53ZM91.4839 4.86H93.2059V5.756H93.3179C93.5326 5.41067 93.8359 5.14 94.2279 4.944C94.6199 4.73867 95.0446 4.636 95.5019 4.636C96.3606 4.636 97.0139 4.89733 97.4619 5.42C97.9099 5.94267 98.1339 6.65667 98.1339 7.562V12H96.2999V7.786C96.2999 7.32867 96.1832 6.974 95.9499 6.722C95.7166 6.47 95.3899 6.344 94.9699 6.344C94.4752 6.344 94.0739 6.53533 93.7659 6.918C93.4672 7.30067 93.3179 7.78133 93.3179 8.36V12H91.4839V4.86Z" fill="#3C4043"/>
<g clip-path="url(#clip0_502_6507)">
<path d="M0 15L3.29156 5.87778L9.17602 11.7362L0 15ZM1.43856 13.5736L7.58558 11.4221L3.61703 7.48923L1.43856 13.5736ZM8.56632 8.51548L8.02171 7.97546L12.6846 3.32831C13.0828 2.93926 13.6194 2.72119 14.1785 2.72119C14.7375 2.72119 15.2741 2.93926 15.6724 3.32831L15.9978 3.65103L15.4966 4.1932L15.1711 3.88983C15.0458 3.76006 14.8952 3.65681 14.7285 3.58626C14.5618 3.51571 14.3825 3.47934 14.2013 3.47934C14.02 3.47934 13.8406 3.51571 13.674 3.58626C13.5073 3.65681 13.3567 3.76006 13.2314 3.88983L8.56632 8.51548ZM5.66747 5.66264L5.1207 5.12262L5.64577 4.60198C5.79758 4.45401 5.91815 4.27753 6.00046 4.08287C6.08276 3.8882 6.12516 3.67924 6.12516 3.46816C6.12516 3.25708 6.08276 3.04811 6.00046 2.85345C5.91815 2.65878 5.79758 2.48231 5.64577 2.33433L5.1207 1.81582L5.66747 1.25214L6.19039 1.79431C6.41247 2.01413 6.58866 2.27521 6.70887 2.56261C6.82908 2.85001 6.89094 3.1581 6.89094 3.46923C6.89094 3.78037 6.82908 4.08846 6.70887 4.37586C6.58866 4.66326 6.41247 4.92434 6.19039 5.14415L5.66747 5.66264ZM7.10604 7.08906L6.56142 6.54904L9.50366 3.62952C9.63449 3.50741 9.73875 3.36006 9.81001 3.19652C9.88126 3.03298 9.91802 2.85671 9.91802 2.67856C9.91802 2.50041 9.88126 2.32417 9.81001 2.16063C9.73875 1.99709 9.63449 1.84973 9.50366 1.72763L8.30376 0.540019L8.84838 0L10.0483 1.18761C10.2482 1.38227 10.407 1.61445 10.5153 1.87063C10.6237 2.12681 10.6796 2.40183 10.6796 2.67964C10.6796 2.95745 10.6237 3.23249 10.5153 3.48867C10.407 3.74485 10.2482 3.97703 10.0483 4.17169L7.10604 7.08906ZM10.0049 9.94193L9.46028 9.40191L10.1351 8.73063C10.3627 8.50399 10.6332 8.32416 10.9311 8.20145C11.2289 8.07874 11.5483 8.01559 11.8709 8.01559C12.1935 8.01559 12.5128 8.07874 12.8107 8.20145C13.1086 8.32416 13.3791 8.50399 13.6067 8.73063L14.3054 9.40191L13.7608 9.94193L13.0621 9.27065C12.9075 9.11162 12.7221 8.98513 12.517 8.89874C12.312 8.81234 12.0915 8.76781 11.8687 8.76781C11.6459 8.76781 11.4254 8.81234 11.2204 8.89874C11.0154 8.98513 10.83 9.11162 10.6754 9.27065L10.0049 9.94193Z" fill="#3C4043"/>
</g>
<defs>
<clipPath id="clip0_502_6507">
<rect width="16" height="15" fill="white"/>
</clipPath>
</defs>
</svg>
