<svg xmlns="http://www.w3.org/2000/svg" width="48" height="48"><g fill="none" fill-rule="evenodd"><path style="fill:#fff;fill-rule:nonzero;stroke-width:.25" d="M47.5 24A23.5 23.5 0 0 1 24 47.5 23.5 23.5 0 0 1 .5 24 23.5 23.5 0 0 1 24 .5 23.5 23.5 0 0 1 47.5 24Z"/><path d="M0 0h48v48H0Z"/><path d="M16.5 24V13.2a3.8 3.8 0 0 0-7.5 0V24a15 15 0 0 0 8 13.3l6-5.9a7.5 7.5 0 0 1-6.5-7.4Z" fill="#34a853"/><path d="M31.5 22.8V24a7.5 7.5 0 0 1-8.6 7.4l-5.8 5.9A15 15 0 0 0 39 24l-.1-8.7Z" fill="#fbbc04"/><path d="M35.3 9.5c-2.1 0-3.8 1.7-3.8 3.8v9.5l7.5-7.5v-2c0-2.1-1.7-3.8-3.8-3.8Z" fill="#ea4335"/><path style="fill:#4285f4" d="M78 58a18 18 0 0 1-18 18 18 18 0 0 1-18-18 18 18 0 0 1 18-18 18 18 0 0 1 18 18Z" transform="matrix(.25 0 0 .25 9 9.5)"/></g></svg>
