<svg xmlns="http://www.w3.org/2000/svg" width="48" height="48"><g style="fill:none;fill-rule:evenodd;stroke:none;stroke-width:1" transform="matrix(.4 0 0 .4 0 .5)"><path d="M30 58V15c0-8.28-6.72-15-15-15C6.72 0 0 6.72 0 15v43c0 23.1 13.07 43.15 32.21 53.17l23.48-23.48C41.16 85.6 30 73.1 30 58Z" fill="#34a853"/><path d="M90 53.38V58c0 16.57-13.43 30-30 30-1.46 0-2.9-.11-4.31-.31l-23.48 23.48A59.75 59.75 0 0 0 60 118c33.14 0 60-26.86 60-60V23.38Z" fill="#fbbc04"/><path d="M105 0c-8.28 0-15 6.72-15 15v38.38l30-30V15c0-8.28-6.72-15-15-15Z" fill="#ea4335"/><circle fill="#4285f4" cx="60" cy="58" r="18"/></g></svg>
