<svg width="120" height="16" viewBox="0 0 120 16" fill="none" xmlns="http://www.w3.org/2000/svg">
<path d="M22.148 1.976H28.504V3.768H24.038V6.204H28.056V7.996H24.038V12H22.148V1.976ZM32.224 12.224C31.3653 12.224 30.712 11.958 30.264 11.426C29.816 10.894 29.592 10.152 29.592 9.2V4.86H31.426V8.976C31.426 9.46133 31.5426 9.844 31.776 10.124C32.0093 10.3947 32.3173 10.53 32.7 10.53C33.2226 10.53 33.638 10.3387 33.946 9.956C34.254 9.57333 34.408 9.088 34.408 8.5V4.86H36.242V12H34.52V11.104H34.408C34.1933 11.4493 33.89 11.7247 33.498 11.93C33.1153 12.126 32.6906 12.224 32.224 12.224ZM38.0288 4.86H39.7508V5.756H39.8628C40.0775 5.41067 40.3808 5.14 40.7728 4.944C41.1648 4.73867 41.5895 4.636 42.0468 4.636C42.9055 4.636 43.5588 4.89733 44.0068 5.42C44.4548 5.94267 44.6788 6.65667 44.6788 7.562V12H42.8448V7.786C42.8448 7.32867 42.7281 6.974 42.4948 6.722C42.2615 6.47 41.9348 6.344 41.5148 6.344C41.0201 6.344 40.6188 6.53533 40.3108 6.918C40.0121 7.30067 39.8628 7.78133 39.8628 8.36V12H38.0288V4.86Z" fill="#3C4043"/>
<g clip-path="url(#clip0_502_6508)">
<path d="M8.00133 12.3346C8.79608 12.3314 9.57508 12.1127 10.2554 11.7019C11.0035 11.2465 11.5964 10.5757 11.9565 9.7774H4.04391C4.40402 10.5757 4.99695 11.2465 5.74499 11.7019C6.42626 12.1125 7.20592 12.3311 8.00133 12.3346ZM4.26734 6.73357L5.24506 5.77799L6.22281 6.73357L6.77804 6.17833L5.24506 4.64537L3.7121 6.17833L4.26734 6.73357ZM9.77761 6.73357L10.7554 5.77799L11.7331 6.73357L12.2884 6.17833L10.7554 4.64537L9.22238 6.17833L9.77761 6.73357ZM8.00795 16C6.93419 16.008 5.87051 15.7925 4.88449 15.3673C2.97532 14.5523 1.45459 13.0315 0.639515 11.1224C0.221975 10.1343 0.00683594 9.07263 0.00683594 8.00001C0.00683594 6.92739 0.221975 5.86567 0.639515 4.87765C1.45459 2.96848 2.97532 1.44775 4.88449 0.63268C5.8725 0.215139 6.93422 0 8.00684 0C9.07946 0 10.1412 0.215139 11.1292 0.63268C13.0384 1.44775 14.5591 2.96848 15.3742 4.87765C15.7917 5.86567 16.0069 6.92739 16.0069 8.00001C16.0069 9.07263 15.7917 10.1343 15.3742 11.1224C14.5591 13.0315 13.0384 14.5523 11.1292 15.3673C10.1418 15.7931 9.07658 16.0086 8.00133 16H8.00795ZM8.00795 15.1108C9.64784 15.1061 11.2355 14.5333 12.5006 13.4899C13.7657 12.4464 14.63 10.9968 14.9466 9.38774C15.2631 7.77868 15.0122 6.10961 14.2366 4.66471C13.4611 3.21981 12.2087 2.08834 10.6927 1.46291C9.17679 0.837482 7.49094 0.756773 5.92216 1.23447C4.35337 1.71216 2.99863 2.71873 2.08851 4.0829C1.17839 5.44707 0.769158 7.0845 0.930472 8.71645C1.09179 10.3484 1.81366 11.874 2.97325 13.0336C3.62532 13.7045 4.40779 14.2349 5.27249 14.5921C6.1372 14.9494 7.06587 15.1258 8.00133 15.1108H8.00795Z" fill="#3C4043"/>
</g>
<defs>
<clipPath id="clip0_502_6508">
<rect width="16" height="16" fill="white"/>
</clipPath>
</defs>
</svg>
