<svg width="117" height="16" viewBox="0 0 117 16" fill="none" xmlns="http://www.w3.org/2000/svg">
<path d="M19.148 1.976H21.038V12H19.148V1.976ZM23.0659 4.86H24.7879V5.756H24.8999C25.1146 5.41067 25.4179 5.14 25.8099 4.944C26.2019 4.73867 26.6266 4.636 27.0839 4.636C27.9426 4.636 28.5959 4.89733 29.0439 5.42C29.4919 5.94267 29.7159 6.65667 29.7159 7.562V12H27.8819V7.786C27.8819 7.32867 27.7653 6.974 27.5319 6.722C27.2986 6.47 26.9719 6.344 26.5519 6.344C26.0573 6.344 25.6559 6.53533 25.3479 6.918C25.0493 7.30067 24.8999 7.78133 24.8999 8.36V12H23.0659V4.86ZM34.0944 12.224C33.2264 12.224 32.5218 12.0467 31.9804 11.692C31.4484 11.3373 31.0751 10.8753 30.8604 10.306L32.4984 9.592C32.6478 9.928 32.8578 10.1847 33.1284 10.362C33.4084 10.53 33.7304 10.614 34.0944 10.614C34.4304 10.614 34.7104 10.5627 34.9344 10.46C35.1584 10.348 35.2704 10.1707 35.2704 9.928C35.2704 9.69467 35.1678 9.522 34.9624 9.41C34.7571 9.28867 34.4491 9.18133 34.0384 9.088L33.1984 8.906C32.6198 8.766 32.1391 8.514 31.7564 8.15C31.3738 7.77667 31.1824 7.31467 31.1824 6.764C31.1824 6.35333 31.3038 5.98467 31.5464 5.658C31.7984 5.33133 32.1344 5.07933 32.5544 4.902C32.9838 4.72467 33.4551 4.636 33.9684 4.636C35.4431 4.636 36.4278 5.154 36.9224 6.19L35.3544 6.876C35.0744 6.372 34.6264 6.12 34.0104 6.12C33.6931 6.12 33.4411 6.18067 33.2544 6.302C33.0678 6.414 32.9744 6.55867 32.9744 6.736C32.9744 7.072 33.2918 7.324 33.9264 7.492L34.9764 7.744C35.6858 7.92133 36.2178 8.192 36.5724 8.556C36.9364 8.92 37.1184 9.368 37.1184 9.9C37.1184 10.3573 36.9831 10.7633 36.7124 11.118C36.4511 11.4633 36.0871 11.734 35.6204 11.93C35.1631 12.126 34.6544 12.224 34.0944 12.224ZM38.3224 4.86H40.0444V5.728H40.1564C40.3524 5.42 40.6371 5.16333 41.0104 4.958C41.3838 4.74333 41.8131 4.636 42.2984 4.636C42.9424 4.636 43.5258 4.79933 44.0484 5.126C44.5804 5.44333 44.9958 5.89133 45.2944 6.47C45.5931 7.04867 45.7424 7.702 45.7424 8.43C45.7424 9.16733 45.5931 9.82533 45.2944 10.404C44.9958 10.9733 44.5804 11.4213 44.0484 11.748C43.5258 12.0653 42.9424 12.224 42.2984 12.224C41.8131 12.224 41.3791 12.1213 40.9964 11.916C40.6231 11.7107 40.3431 11.454 40.1564 11.146H40.0444L40.1564 12.154V15.024H38.3224V4.86ZM41.9764 10.53C42.3218 10.53 42.6438 10.4413 42.9424 10.264C43.2411 10.0867 43.4791 9.83933 43.6564 9.522C43.8338 9.20467 43.9224 8.84067 43.9224 8.43C43.9224 8.01933 43.8338 7.65533 43.6564 7.338C43.4791 7.02067 43.2411 6.778 42.9424 6.61C42.6438 6.43267 42.3218 6.344 41.9764 6.344C41.6404 6.344 41.3231 6.43267 41.0244 6.61C40.7258 6.778 40.4878 7.02067 40.3104 7.338C40.1331 7.65533 40.0444 8.01933 40.0444 8.43C40.0444 8.84067 40.1331 9.20467 40.3104 9.522C40.4878 9.83933 40.7258 10.0867 41.0244 10.264C41.3231 10.4413 41.6404 10.53 41.9764 10.53ZM48.1234 4.076C47.7967 4.076 47.5167 3.95933 47.2834 3.726C47.0501 3.49267 46.9334 3.21267 46.9334 2.886C46.9334 2.55933 47.0501 2.284 47.2834 2.06C47.5167 1.82667 47.7967 1.71 48.1234 1.71C48.4501 1.71 48.7254 1.82667 48.9494 2.06C49.1827 2.284 49.2994 2.55933 49.2994 2.886C49.2994 3.21267 49.1827 3.49267 48.9494 3.726C48.7254 3.95933 48.4501 4.076 48.1234 4.076ZM47.1994 4.86H49.0334V12H47.1994V4.86ZM50.9565 4.86H52.6785V5.812H52.7905C52.9679 5.476 53.2432 5.20067 53.6165 4.986C53.9899 4.762 54.4005 4.65 54.8485 4.65C55.1752 4.65 55.4739 4.70133 55.7445 4.804V6.638C55.4925 6.54467 55.2779 6.47933 55.1005 6.442C54.9325 6.39533 54.7505 6.372 54.5545 6.372C54.0132 6.372 53.5839 6.568 53.2665 6.96C52.9492 7.352 52.7905 7.84667 52.7905 8.444V12H50.9565V4.86ZM58.8964 12.224C58.1404 12.224 57.5197 12.0047 57.0344 11.566C56.5491 11.118 56.3064 10.5347 56.3064 9.816C56.3064 9.34 56.4324 8.92 56.6844 8.556C56.9364 8.192 57.2817 7.912 57.7204 7.716C58.1591 7.52 58.6444 7.422 59.1764 7.422C59.9137 7.422 60.5437 7.52933 61.0664 7.744V7.436C61.0664 7.044 60.9171 6.72667 60.6184 6.484C60.3291 6.24133 59.9371 6.12 59.4424 6.12C59.1064 6.12 58.7797 6.19933 58.4624 6.358C58.1544 6.50733 57.8977 6.708 57.6924 6.96L56.5164 6.036C56.8617 5.588 57.2957 5.24267 57.8184 5C58.3411 4.75733 58.9104 4.636 59.5264 4.636C60.6184 4.636 61.4491 4.888 62.0184 5.392C62.5877 5.896 62.8724 6.63333 62.8724 7.604V12H61.0664V11.272H60.9544C60.7397 11.552 60.4551 11.7807 60.1004 11.958C59.7551 12.1353 59.3537 12.224 58.8964 12.224ZM59.3304 10.796C59.8624 10.796 60.2824 10.628 60.5904 10.292C60.9077 9.94667 61.0664 9.54533 61.0664 9.088C60.5904 8.864 60.0911 8.752 59.5684 8.752C58.6164 8.752 58.1404 9.10667 58.1404 9.816C58.1404 10.1053 58.2431 10.3433 58.4484 10.53C58.6537 10.7073 58.9477 10.796 59.3304 10.796ZM67.5313 12.112C67.1767 12.112 66.85 12.0607 66.5513 11.958C66.2527 11.846 66.01 11.6967 65.8233 11.51C65.3847 11.09 65.1653 10.4927 65.1653 9.718V6.428H63.9193V4.86H65.1653V2.844H66.9993V4.86H68.7493V6.428H66.9993V9.382C66.9993 9.746 67.0787 10.0073 67.2373 10.166C67.368 10.3153 67.592 10.39 67.9093 10.39C68.0867 10.39 68.2313 10.3667 68.3433 10.32C68.4647 10.2733 68.6187 10.194 68.8053 10.082V11.874C68.404 12.0327 67.9793 12.112 67.5313 12.112ZM71.3793 4.076C71.0526 4.076 70.7726 3.95933 70.5393 3.726C70.3059 3.49267 70.1893 3.21267 70.1893 2.886C70.1893 2.55933 70.3059 2.284 70.5393 2.06C70.7726 1.82667 71.0526 1.71 71.3793 1.71C71.7059 1.71 71.9813 1.82667 72.2053 2.06C72.4386 2.284 72.5553 2.55933 72.5553 2.886C72.5553 3.21267 72.4386 3.49267 72.2053 3.726C71.9813 3.95933 71.7059 4.076 71.3793 4.076ZM70.4553 4.86H72.2893V12H70.4553V4.86ZM77.56 12.224C76.8227 12.224 76.1647 12.0607 75.586 11.734C75.0074 11.398 74.5547 10.9453 74.228 10.376C73.9107 9.79733 73.752 9.14867 73.752 8.43C73.752 7.72067 73.9107 7.07667 74.228 6.498C74.5547 5.91933 75.0074 5.46667 75.586 5.14C76.1647 4.804 76.8227 4.636 77.56 4.636C78.288 4.636 78.9414 4.804 79.52 5.14C80.0987 5.46667 80.5467 5.91933 80.864 6.498C81.1907 7.07667 81.354 7.72067 81.354 8.43C81.354 9.14867 81.1907 9.79733 80.864 10.376C80.5467 10.9453 80.0987 11.398 79.52 11.734C78.9414 12.0607 78.288 12.224 77.56 12.224ZM77.56 10.53C77.9147 10.53 78.2414 10.446 78.54 10.278C78.8387 10.11 79.0767 9.86733 79.254 9.55C79.4314 9.23267 79.52 8.85933 79.52 8.43C79.52 8.01 79.4314 7.64133 79.254 7.324C79.0767 7.00667 78.8387 6.764 78.54 6.596C78.2414 6.428 77.9147 6.344 77.56 6.344C77.2054 6.344 76.8787 6.428 76.58 6.596C76.2814 6.764 76.0387 7.00667 75.852 7.324C75.6747 7.64133 75.586 8.01 75.586 8.43C75.586 8.85 75.6747 9.22333 75.852 9.55C76.0387 9.86733 76.2814 10.11 76.58 10.278C76.8787 10.446 77.2054 10.53 77.56 10.53ZM82.6206 4.86H84.3426V5.756H84.4546C84.6693 5.41067 84.9726 5.14 85.3646 4.944C85.7566 4.73867 86.1813 4.636 86.6386 4.636C87.4973 4.636 88.1506 4.89733 88.5986 5.42C89.0466 5.94267 89.2706 6.65667 89.2706 7.562V12H87.4366V7.786C87.4366 7.32867 87.3199 6.974 87.0866 6.722C86.8533 6.47 86.5266 6.344 86.1066 6.344C85.6119 6.344 85.2106 6.53533 84.9026 6.918C84.6039 7.30067 84.4546 7.78133 84.4546 8.36V12H82.6206V4.86Z" fill="#3C4043"/>
<g clip-path="url(#clip0_502_6509)">
<path d="M5.50122 14.9996C5.19893 15.0066 4.90348 14.9082 4.66468 14.7208C4.54963 14.6312 4.45337 14.5193 4.38156 14.3917C4.30975 14.2641 4.26381 14.1233 4.2464 13.9776H3.74054C3.51065 13.9698 3.29224 13.8741 3.1296 13.7099C2.96695 13.5456 2.87222 13.3249 2.86457 13.0927V10.4228C1.98145 9.9438 1.2498 9.22313 0.753477 8.34344C0.263825 7.49778 0.00534982 6.53595 0.00451305 5.55627C-0.0100842 4.81737 0.121381 4.08295 0.391225 3.396C0.66107 2.70906 1.06387 2.08338 1.57604 1.5556C2.0882 1.02783 2.69946 0.608559 3.37401 0.322336C4.04856 0.0361124 4.77286 -0.111328 5.50451 -0.111328C6.23616 -0.111328 6.96046 0.0361124 7.63501 0.322336C8.30956 0.608559 8.92082 1.02783 9.43299 1.5556C9.94515 2.08338 10.348 2.70906 10.6178 3.396C10.8876 4.08295 11.0191 4.81737 11.0045 5.55627C11.0037 6.53566 10.7461 7.49732 10.2578 8.34344C9.76123 9.22373 9.02869 9.94453 8.14448 10.4228V13.0883C8.13787 13.3209 8.04344 13.5421 7.88058 13.7066C7.71771 13.8711 7.49874 13.9664 7.26851 13.9731H6.76262C6.74549 14.1187 6.69988 14.2594 6.62845 14.387C6.55702 14.5146 6.46118 14.6265 6.34653 14.7164C6.10598 14.9073 5.80703 15.0074 5.50122 14.9996ZM3.74928 13.0883H7.26851V12.2212H3.74928V13.0883ZM3.74928 11.5554H7.26851V10.6705H3.74928V11.5554ZM3.5741 9.78571H5.10705V7.00956L3.28063 5.16473L3.83031 4.6095L5.50341 6.29728L7.17433 4.6095L7.724 5.16473L5.8998 7.00956V9.78571H7.43275C8.21814 9.40648 8.88714 8.81941 9.36864 8.08686C9.86508 7.34227 10.1255 6.46272 10.1154 5.56508C10.1288 4.94373 10.0192 4.32594 9.79307 3.74795C9.56693 3.16997 9.22879 2.64346 8.79849 2.19924C8.36819 1.75502 7.85439 1.40205 7.28725 1.16109C6.7201 0.920139 6.11104 0.796017 5.49577 0.796017C4.8805 0.796017 4.27141 0.920139 3.70426 1.16109C3.13712 1.40205 2.62332 1.75502 2.19302 2.19924C1.76272 2.64346 1.42458 3.16997 1.19844 3.74795C0.972298 4.32594 0.862706 4.94373 0.876099 5.56508C0.866617 6.46295 1.12785 7.34253 1.62506 8.08686C2.1083 8.81735 2.77894 9.40147 3.56534 9.77685L3.5741 9.78571Z" fill="black"/>
<g clip-path="url(#clip1_502_6509)">
<path d="M5.50122 14.9996C5.19893 15.0066 4.90348 14.9082 4.66468 14.7208C4.54963 14.6312 4.45337 14.5193 4.38156 14.3917C4.30975 14.2641 4.26381 14.1233 4.2464 13.9776H3.74054C3.51065 13.9698 3.29224 13.8741 3.1296 13.7099C2.96695 13.5456 2.87222 13.3249 2.86457 13.0927V10.4228C1.98145 9.9438 1.2498 9.22313 0.753477 8.34344C0.263825 7.49778 0.00534982 6.53595 0.00451305 5.55627C-0.0100842 4.81737 0.121381 4.08295 0.391225 3.396C0.66107 2.70906 1.06387 2.08338 1.57604 1.5556C2.0882 1.02783 2.69946 0.608559 3.37401 0.322336C4.04856 0.0361124 4.77286 -0.111328 5.50451 -0.111328C6.23616 -0.111328 6.96046 0.0361124 7.63501 0.322336C8.30956 0.608559 8.92082 1.02783 9.43299 1.5556C9.94515 2.08338 10.348 2.70906 10.6178 3.396C10.8876 4.08295 11.0191 4.81737 11.0045 5.55627C11.0037 6.53566 10.7461 7.49732 10.2578 8.34344C9.76123 9.22373 9.02869 9.94453 8.14448 10.4228V13.0883C8.13787 13.3209 8.04344 13.5421 7.88058 13.7066C7.71771 13.8711 7.49874 13.9664 7.26851 13.9731H6.76262C6.74549 14.1187 6.69988 14.2594 6.62845 14.387C6.55702 14.5146 6.46118 14.6265 6.34653 14.7164C6.10598 14.9073 5.80703 15.0074 5.50122 14.9996ZM3.74928 13.0883H7.26851V12.2212H3.74928V13.0883ZM3.74928 11.5554H7.26851V10.6705H3.74928V11.5554ZM3.5741 9.78571H5.10705V7.00956L3.28063 5.16473L3.83031 4.6095L5.50341 6.29728L7.17433 4.6095L7.724 5.16473L5.8998 7.00956V9.78571H7.43275C8.21814 9.40648 8.88714 8.81941 9.36864 8.08686C9.86508 7.34227 10.1255 6.46272 10.1154 5.56508C10.1288 4.94373 10.0192 4.32594 9.79307 3.74795C9.56693 3.16997 9.22879 2.64346 8.79849 2.19924C8.36819 1.75502 7.85439 1.40205 7.28725 1.16109C6.7201 0.920139 6.11104 0.796017 5.49577 0.796017C4.8805 0.796017 4.27141 0.920139 3.70426 1.16109C3.13712 1.40205 2.62332 1.75502 2.19302 2.19924C1.76272 2.64346 1.42458 3.16997 1.19844 3.74795C0.972298 4.32594 0.862706 4.94373 0.876099 5.56508C0.866617 6.46295 1.12785 7.34253 1.62506 8.08686C2.1083 8.81735 2.77894 9.40147 3.56534 9.77685L3.5741 9.78571Z" fill="#3C4043"/>
</g>
</g>
<defs>
<clipPath id="clip0_502_6509">
<rect width="11" height="15" fill="white"/>
</clipPath>
<clipPath id="clip1_502_6509">
<rect width="11" height="15" fill="white"/>
</clipPath>
</defs>
</svg>
