<svg width="120" height="16" viewBox="0 0 120 16" fill="none" xmlns="http://www.w3.org/2000/svg">
<path d="M22.148 1.976H25.676C26.3107 1.976 26.8893 2.11133 27.412 2.382C27.9347 2.64333 28.3453 3.01667 28.644 3.502C28.9427 3.978 29.092 4.524 29.092 5.14C29.092 5.756 28.9427 6.30667 28.644 6.792C28.3453 7.27733 27.9347 7.65533 27.412 7.926C26.8893 8.18733 26.3107 8.318 25.676 8.318H24.038V12H22.148V1.976ZM25.732 6.526C26.1987 6.526 26.5627 6.39067 26.824 6.12C27.0947 5.84933 27.23 5.52267 27.23 5.14C27.23 4.75733 27.0947 4.43533 26.824 4.174C26.5627 3.90333 26.1987 3.768 25.732 3.768H24.038V6.526H25.732ZM30.4409 4.86H32.1629V5.812H32.2749C32.4523 5.476 32.7276 5.20067 33.1009 4.986C33.4743 4.762 33.8849 4.65 34.3329 4.65C34.6596 4.65 34.9583 4.70133 35.2289 4.804V6.638C34.9769 6.54467 34.7623 6.47933 34.5849 6.442C34.4169 6.39533 34.2349 6.372 34.0389 6.372C33.4976 6.372 33.0683 6.568 32.7509 6.96C32.4336 7.352 32.2749 7.84667 32.2749 8.444V12H30.4409V4.86ZM39.4077 12.224C38.6704 12.224 38.0124 12.0607 37.4337 11.734C36.855 11.398 36.4024 10.9453 36.0757 10.376C35.7584 9.79733 35.5997 9.14867 35.5997 8.43C35.5997 7.72067 35.7584 7.07667 36.0757 6.498C36.4024 5.91933 36.855 5.46667 37.4337 5.14C38.0124 4.804 38.6704 4.636 39.4077 4.636C40.1357 4.636 40.789 4.804 41.3677 5.14C41.9464 5.46667 42.3944 5.91933 42.7117 6.498C43.0384 7.07667 43.2017 7.72067 43.2017 8.43C43.2017 9.14867 43.0384 9.79733 42.7117 10.376C42.3944 10.9453 41.9464 11.398 41.3677 11.734C40.789 12.0607 40.1357 12.224 39.4077 12.224ZM39.4077 10.53C39.7624 10.53 40.089 10.446 40.3877 10.278C40.6864 10.11 40.9244 9.86733 41.1017 9.55C41.279 9.23267 41.3677 8.85933 41.3677 8.43C41.3677 8.01 41.279 7.64133 41.1017 7.324C40.9244 7.00667 40.6864 6.764 40.3877 6.596C40.089 6.428 39.7624 6.344 39.4077 6.344C39.053 6.344 38.7264 6.428 38.4277 6.596C38.129 6.764 37.8864 7.00667 37.6997 7.324C37.5224 7.64133 37.4337 8.01 37.4337 8.43C37.4337 8.85 37.5224 9.22333 37.6997 9.55C37.8864 9.86733 38.129 10.11 38.4277 10.278C38.7264 10.446 39.053 10.53 39.4077 10.53ZM44.4683 4.86H46.1903V5.756H46.3023C46.5263 5.41067 46.8249 5.14 47.1983 4.944C47.5809 4.73867 48.0056 4.636 48.4723 4.636C48.9763 4.636 49.4149 4.75733 49.7883 5C50.1616 5.23333 50.4276 5.532 50.5863 5.896C50.8196 5.52267 51.1369 5.21933 51.5383 4.986C51.9489 4.75267 52.4296 4.636 52.9803 4.636C53.7923 4.636 54.4083 4.888 54.8283 5.392C55.2576 5.88667 55.4723 6.55867 55.4723 7.408V12H53.6523V7.744C53.6523 7.296 53.5449 6.95067 53.3303 6.708C53.1249 6.46533 52.8356 6.344 52.4623 6.344C51.9863 6.344 51.6036 6.53533 51.3143 6.918C51.0343 7.29133 50.8943 7.786 50.8943 8.402V12H49.0603V7.744C49.0603 7.296 48.9483 6.95067 48.7243 6.708C48.5096 6.46533 48.2016 6.344 47.8003 6.344C47.3523 6.344 46.9883 6.53533 46.7083 6.918C46.4376 7.29133 46.3023 7.786 46.3023 8.402V12H44.4683V4.86ZM58.2601 4.076C57.9335 4.076 57.6535 3.95933 57.4201 3.726C57.1868 3.49267 57.0701 3.21267 57.0701 2.886C57.0701 2.55933 57.1868 2.284 57.4201 2.06C57.6535 1.82667 57.9335 1.71 58.2601 1.71C58.5868 1.71 58.8621 1.82667 59.0861 2.06C59.3195 2.284 59.4361 2.55933 59.4361 2.886C59.4361 3.21267 59.3195 3.49267 59.0861 3.726C58.8621 3.95933 58.5868 4.076 58.2601 4.076ZM57.3361 4.86H59.1701V12H57.3361V4.86ZM63.8093 12.224C62.9413 12.224 62.2366 12.0467 61.6953 11.692C61.1633 11.3373 60.7899 10.8753 60.5753 10.306L62.2133 9.592C62.3626 9.928 62.5726 10.1847 62.8433 10.362C63.1233 10.53 63.4453 10.614 63.8093 10.614C64.1453 10.614 64.4253 10.5627 64.6493 10.46C64.8733 10.348 64.9853 10.1707 64.9853 9.928C64.9853 9.69467 64.8826 9.522 64.6773 9.41C64.4719 9.28867 64.1639 9.18133 63.7533 9.088L62.9133 8.906C62.3346 8.766 61.8539 8.514 61.4713 8.15C61.0886 7.77667 60.8973 7.31467 60.8973 6.764C60.8973 6.35333 61.0186 5.98467 61.2613 5.658C61.5133 5.33133 61.8493 5.07933 62.2693 4.902C62.6986 4.72467 63.1699 4.636 63.6833 4.636C65.1579 4.636 66.1426 5.154 66.6373 6.19L65.0693 6.876C64.7893 6.372 64.3413 6.12 63.7253 6.12C63.4079 6.12 63.1559 6.18067 62.9693 6.302C62.7826 6.414 62.6893 6.55867 62.6893 6.736C62.6893 7.072 63.0066 7.324 63.6413 7.492L64.6913 7.744C65.4006 7.92133 65.9326 8.192 66.2873 8.556C66.6513 8.92 66.8333 9.368 66.8333 9.9C66.8333 10.3573 66.6979 10.7633 66.4273 11.118C66.1659 11.4633 65.8019 11.734 65.3353 11.93C64.8779 12.126 64.3693 12.224 63.8093 12.224ZM71.576 12.224C70.8667 12.224 70.2273 12.0607 69.658 11.734C69.0887 11.4073 68.6407 10.9593 68.314 10.39C67.9967 9.81133 67.838 9.16267 67.838 8.444C67.838 7.76267 67.9967 7.13267 68.314 6.554C68.6313 5.966 69.07 5.49933 69.63 5.154C70.19 4.80867 70.8153 4.636 71.506 4.636C72.2433 4.636 72.878 4.79467 73.41 5.112C73.942 5.42933 74.3433 5.86333 74.614 6.414C74.894 6.96467 75.034 7.576 75.034 8.248C75.034 8.46267 75.02 8.668 74.992 8.864H69.63C69.7233 9.43333 69.9473 9.86733 70.302 10.166C70.666 10.4553 71.1 10.6 71.604 10.6C72.024 10.6 72.3833 10.5113 72.682 10.334C72.99 10.1473 73.2327 9.9 73.41 9.592L74.894 10.32C74.166 11.5893 73.06 12.224 71.576 12.224ZM73.27 7.562C73.2513 7.338 73.1673 7.11867 73.018 6.904C72.878 6.68 72.6773 6.498 72.416 6.358C72.164 6.20867 71.8653 6.134 71.52 6.134C71.0813 6.134 70.7033 6.26467 70.386 6.526C70.078 6.778 69.854 7.12333 69.714 7.562H73.27Z" fill="#3C4043"/>
<g clip-path="url(#clip0_502_6510)">
<path d="M8.22453 16.0004C8.01233 15.9998 7.80263 15.9524 7.60896 15.8612C7.41528 15.77 7.24194 15.6372 7.10016 15.4712C6.95838 15.3052 6.85129 15.1098 6.78583 14.8975C6.72037 14.6853 6.69799 14.4611 6.72013 14.2392C6.49332 14.2618 6.26458 14.2315 6.05015 14.1506C5.83572 14.0697 5.64087 13.9401 5.47947 13.7711C5.18227 13.4234 5.02628 12.9672 5.04483 12.5001C4.82181 12.5189 4.59755 12.4868 4.38742 12.406C4.17729 12.3252 3.98625 12.1977 3.82737 12.0321C3.67403 11.8698 3.55668 11.6738 3.48373 11.4583C3.41078 11.2428 3.38403 11.013 3.40538 10.7854C3.18012 10.8086 2.95276 10.7787 2.73994 10.6977C2.52711 10.6167 2.33418 10.4868 2.17525 10.3173C1.90054 10.0101 1.74935 9.60325 1.75326 9.18163C1.75256 8.93244 1.79994 8.68567 1.89252 8.45627C1.9717 8.24464 2.09004 8.05161 2.24067 7.88839L6.50068 3.38762L8.68452 5.70348C8.77561 5.78859 8.87977 5.85682 8.99257 5.90532C9.09653 5.9493 9.20756 5.9719 9.31962 5.97188C9.40966 5.97143 9.49865 5.9515 9.58105 5.91334C9.66345 5.87517 9.73747 5.8196 9.79856 5.75006C9.86605 5.68271 9.91963 5.60146 9.95593 5.51139C9.99224 5.42132 10.0105 5.32435 10.0096 5.22653C10.0106 5.11323 9.99275 5.00062 9.95681 4.8938C9.90937 4.77441 9.8373 4.6676 9.74581 4.58105L7.66961 2.39831C7.27683 1.98039 6.83513 1.61667 6.35511 1.31584C5.84049 1.01147 5.25746 0.858232 4.66713 0.872199C4.16554 0.86985 3.66848 0.971992 3.20463 1.17271C2.74079 1.37342 2.31935 1.6687 1.96467 2.04158C1.60998 2.41446 1.32906 2.85752 1.13814 3.34516C0.947222 3.83281 0.85009 4.35537 0.852324 4.8827C0.85184 5.12897 0.873015 5.37477 0.915608 5.61694C0.958049 5.85603 1.02894 6.08857 1.1266 6.30905L0.468296 6.99889C0.297905 6.68311 0.176139 6.34101 0.1075 5.9852C0.0372169 5.62012 0.00187457 5.24857 0.0020013 4.87609C-0.000792084 4.2315 0.117909 3.59266 0.351258 2.99656C0.584608 2.40047 0.927969 1.85889 1.36153 1.40309C1.79509 0.947284 2.31026 0.586307 2.87727 0.340985C3.44427 0.0956637 4.05188 -0.0291271 4.66502 -0.0261904C5.31783 -0.0322901 5.96321 0.119502 6.55132 0.417453C7.1546 0.736519 7.70587 1.15433 8.18446 1.65524C8.6922 1.14089 9.28031 0.722184 9.92307 0.417453C10.6959 0.0650347 11.5401 -0.0791383 12.3793 -0.00198277C13.2185 0.0751728 14.0262 0.371212 14.7291 0.859309C15.432 1.34741 16.008 2.01215 16.4049 2.79332C16.8017 3.57449 17.007 4.4474 17.002 5.333C17.0024 6.04158 16.8653 6.7428 16.599 7.39374C16.3384 8.04276 15.9567 8.63032 15.4765 9.12174L9.45675 15.4503C9.31533 15.6085 9.14627 15.7365 8.9588 15.8274C8.72979 15.9432 8.47864 16.0023 8.22453 16.0004ZM8.85752 14.8403L14.8773 8.51173C15.2778 8.09713 15.5988 7.60535 15.8225 7.06322C16.0921 6.38611 16.1983 5.64945 16.1316 4.91877C16.0649 4.18808 15.8274 3.48603 15.4401 2.8752C15.0529 2.26437 14.5281 1.7637 13.9123 1.41771C13.2965 1.07172 12.6089 0.891151 11.9106 0.892128C11.3044 0.878143 10.704 1.01979 10.1615 1.30474C9.6645 1.57564 9.20456 1.9159 8.79422 2.31626L10.364 3.9444C10.5171 4.12038 10.6386 4.32409 10.7227 4.54558C10.8081 4.7645 10.8518 4.99883 10.8514 5.23541C10.8585 5.44832 10.8238 5.66048 10.7496 5.85869C10.6753 6.0569 10.563 6.23694 10.4198 6.38758C10.2765 6.53822 10.1052 6.65626 9.91668 6.73434C9.72814 6.81241 9.52633 6.84884 9.32382 6.8414C9.10426 6.8421 8.88611 6.80462 8.67818 6.73049C8.47103 6.65304 8.2854 6.52271 8.13802 6.35118L6.526 4.67864L2.85888 8.51173C2.76604 8.60141 2.69388 8.71216 2.64788 8.83558C2.61228 8.94708 2.59445 9.06402 2.59513 9.18163C2.5887 9.37055 2.65313 9.55458 2.7745 9.69405C2.83952 9.76221 2.91745 9.81519 3.00324 9.84959C3.08904 9.88398 3.18077 9.899 3.27245 9.89367C3.38433 9.89439 3.49553 9.87565 3.60159 9.83822C3.71311 9.79553 3.81204 9.72288 3.88854 9.6275L6.57875 6.79705L7.19487 7.44253L4.50255 10.2508C4.40935 10.3393 4.33709 10.4494 4.29155 10.5725C4.25728 10.6843 4.23949 10.801 4.2388 10.9185C4.23587 11.0132 4.2514 11.1075 4.28442 11.1956C4.31744 11.2837 4.36726 11.3638 4.43082 11.4309C4.49124 11.4963 4.56382 11.548 4.64403 11.5827C4.72425 11.6175 4.81038 11.6345 4.89711 11.6328C5.01247 11.6339 5.12723 11.6152 5.23681 11.5773C5.34942 11.5268 5.45022 11.4511 5.53222 11.3555L8.41444 8.32538L9.03053 8.94871L6.14833 11.9788C6.058 12.0708 5.98624 12.1809 5.93734 12.3027C5.89529 12.4127 5.87379 12.5301 5.87403 12.6487C5.87179 12.7451 5.8895 12.8408 5.92593 12.9293C5.96236 13.0178 6.01665 13.0969 6.08503 13.1611C6.1477 13.2257 6.22193 13.2766 6.30341 13.3108C6.3849 13.3451 6.47202 13.3621 6.55977 13.3608C6.67164 13.3615 6.78287 13.3427 6.88894 13.3053C7.00572 13.261 7.11115 13.1889 7.19698 13.0945L10.0792 10.0623L10.6721 10.6878L7.7899 13.7179C7.71036 13.8135 7.64622 13.9221 7.59999 14.0395C7.55834 14.1496 7.53686 14.2671 7.53668 14.3856C7.53886 14.5739 7.61086 14.7539 7.73735 14.8873C7.86384 15.0207 8.03483 15.0969 8.21397 15.0998C8.33009 15.0993 8.44519 15.0767 8.5537 15.0333C8.66777 14.993 8.77214 14.9272 8.85964 14.8403H8.85752Z" fill="#3C4043"/>
</g>
<defs>
<clipPath id="clip0_502_6510">
<rect width="17" height="16" fill="white"/>
</clipPath>
</defs>
</svg>
