<svg width="20" height="23" viewBox="0 0 20 23" fill="none" xmlns="http://www.w3.org/2000/svg">
<path d="M16.6667 22.2232C15.7826 22.2232 14.9348 21.872 14.3096 21.2469C13.6845 20.6218 13.3333 19.7739 13.3333 18.8899C13.3333 18.7565 13.3333 18.6232 13.3333 18.4899C13.3539 18.362 13.3836 18.2357 13.4222 18.1121L5.64444 13.5565C5.31685 13.8406 4.94036 14.0627 4.53333 14.2121C4.15113 14.3632 3.74429 14.4423 3.33333 14.4454C2.89446 14.454 2.45857 14.3715 2.05316 14.2032C1.64774 14.0349 1.28158 13.7845 0.977774 13.4676C0.35355 12.8426 0.00292969 11.9954 0.00292969 11.1121C0.00292969 10.2287 0.35355 9.38153 0.977774 8.75653C1.28158 8.4397 1.64774 8.18924 2.05316 8.02096C2.45857 7.85267 2.89446 7.7702 3.33333 7.77875C3.75177 7.77913 4.1664 7.85828 4.55555 8.01209C4.96258 8.16147 5.33908 8.3836 5.66666 8.66764L13.4444 4.11208C13.3983 3.98902 13.3612 3.86276 13.3333 3.73431C13.3333 3.60097 13.3333 3.46764 13.3333 3.33431C13.3248 2.89543 13.4072 2.45955 13.5755 2.05413C13.7438 1.64872 13.9943 1.28256 14.3111 0.978751C14.9361 0.354527 15.7833 0.00390625 16.6667 0.00390625C17.55 0.00390625 18.3972 0.354527 19.0222 0.978751C19.3391 1.28256 19.5895 1.64872 19.7578 2.05413C19.9261 2.45955 20.0085 2.89543 20 3.33431C20.0085 3.77318 19.9261 4.20906 19.7578 4.61448C19.5895 5.0199 19.3391 5.38605 19.0222 5.68986C18.7184 6.00669 18.3523 6.25715 17.9468 6.42543C17.5414 6.59372 17.1055 6.67619 16.6667 6.66764C16.2482 6.66727 15.8336 6.58811 15.4444 6.43431C15.0767 6.27343 14.7386 6.05182 14.4444 5.77875L6.66666 10.3343C6.70528 10.4579 6.73498 10.5842 6.75555 10.7121C6.75555 10.8454 6.75555 10.9788 6.75555 11.1121C6.75555 11.2454 6.75555 11.3788 6.75555 11.5121C6.73498 11.64 6.70528 11.7662 6.66666 11.8899L14.4444 16.4454C14.7554 16.167 15.1126 15.9451 15.5 15.7899C15.8717 15.6428 16.2669 15.5637 16.6667 15.5565C17.5507 15.5565 18.3986 15.9077 19.0237 16.5328C19.6488 17.158 20 18.0058 20 18.8899C20 19.7739 19.6488 20.6218 19.0237 21.2469C18.3986 21.872 17.5507 22.2232 16.6667 22.2232ZM16.6667 4.44542C16.8874 4.4467 17.1034 4.38223 17.2873 4.26023C17.4713 4.13823 17.6147 3.96422 17.6993 3.7604C17.7839 3.55657 17.8059 3.33216 17.7625 3.11577C17.7191 2.89939 17.6122 2.70083 17.4556 2.54542C17.352 2.44182 17.229 2.35964 17.0936 2.30357C16.9582 2.24751 16.8132 2.21865 16.6667 2.21865C16.3708 2.21865 16.087 2.33619 15.8778 2.54542C15.6685 2.75464 15.551 3.03842 15.551 3.33431C15.551 3.6302 15.6685 3.91397 15.8778 4.1232C15.9816 4.22618 16.1047 4.30765 16.2401 4.36294C16.3755 4.41824 16.5204 4.44626 16.6667 4.44542ZM3.33333 12.2232C3.59031 12.2217 3.83882 12.1312 4.03656 11.9671C4.2343 11.8029 4.36903 11.5753 4.41781 11.323C4.4666 11.0707 4.42642 10.8093 4.30411 10.5833C4.18181 10.3573 3.98495 10.1807 3.74704 10.0835C3.50914 9.98632 3.24492 9.97461 2.99936 10.0504C2.7538 10.1261 2.54209 10.2847 2.40028 10.499C2.25847 10.7133 2.19534 10.9701 2.22162 11.2258C2.24791 11.4814 2.36199 11.72 2.54444 11.901C2.64826 12.004 2.77139 12.0854 2.90677 12.1407C3.04214 12.196 3.1871 12.224 3.33333 12.2232ZM16.6667 20.001C16.9236 19.9995 17.1722 19.909 17.3699 19.7448C17.5676 19.5807 17.7024 19.3531 17.7511 19.1008C17.7999 18.8485 17.7597 18.5871 17.6374 18.3611C17.5151 18.1351 17.3183 17.9584 17.0804 17.8613C16.8425 17.7641 16.5782 17.7524 16.3327 17.8281C16.0871 17.9039 15.8754 18.0624 15.7336 18.2767C15.5918 18.4911 15.5287 18.7479 15.555 19.0035C15.5812 19.2592 15.6953 19.4978 15.8778 19.6788C15.9816 19.7817 16.1047 19.8632 16.2401 19.9185C16.3755 19.9738 16.5204 20.0018 16.6667 20.001ZM16.6667 4.44542C16.446 4.4467 16.2299 4.38223 16.046 4.26023C15.8621 4.13823 15.7187 3.96422 15.634 3.7604C15.5494 3.55657 15.5274 3.33216 15.5708 3.11577C15.6142 2.89939 15.7211 2.70083 15.8778 2.54542C16.087 2.33619 16.3708 2.21865 16.6667 2.21865C16.9626 2.21865 17.2463 2.33619 17.4556 2.54542C17.6648 2.75464 17.7823 3.03842 17.7823 3.33431C17.7823 3.6302 17.6648 3.91397 17.4556 4.1232C17.3517 4.22618 17.2286 4.30765 17.0932 4.36294C16.9579 4.41824 16.8129 4.44626 16.6667 4.44542ZM3.33333 12.2232C3.07635 12.2217 2.82784 12.1312 2.6301 11.9671C2.43236 11.8029 2.29763 11.5753 2.24885 11.323C2.20006 11.0707 2.24024 10.8093 2.36255 10.5833C2.48485 10.3573 2.68171 10.1807 2.91961 10.0835C3.15752 9.98632 3.42174 9.97461 3.6673 10.0504C3.91286 10.1261 4.12457 10.2847 4.26638 10.499C4.40819 10.7133 4.47132 10.9701 4.44504 11.2258C4.41875 11.4814 4.30467 11.72 4.12222 11.901C4.0184 12.004 3.89527 12.0854 3.75989 12.1407C3.62452 12.196 3.47956 12.224 3.33333 12.2232ZM16.6667 20.001C16.4097 19.9995 16.1612 19.909 15.9634 19.7448C15.7657 19.5807 15.631 19.3531 15.5822 19.1008C15.5334 18.8485 15.5736 18.5871 15.6959 18.3611C15.8182 18.1351 16.015 17.9584 16.2529 17.8613C16.4908 17.7641 16.7551 17.7524 17.0006 17.8281C17.2462 17.9039 17.4579 18.0624 17.5997 18.2767C17.7415 18.4911 17.8047 18.7479 17.7784 19.0035C17.7521 19.2592 17.638 19.4978 17.4556 19.6788C17.3517 19.7817 17.2286 19.8632 17.0932 19.9185C16.9579 19.9738 16.8129 20.0018 16.6667 20.001Z" fill="#3C4043"/>
</svg>
