<svg width="18" height="20" viewBox="0 0 18 20" fill="none" xmlns="http://www.w3.org/2000/svg">
  <path d="M2 19.7888C1.45 19.7888 0.979 19.6017 0.587 19.2273C0.195667 18.8524 0 18.4019 0 17.8758V4.48433C0 3.95824 0.195667 3.50803 0.587 3.13371C0.979 2.75875 1.45 2.57127 2 2.57127H3V0.658203H5V2.57127H13V0.658203H15V2.57127H16C16.55 2.57127 17.021 2.75875 17.413 3.13371C17.8043 3.50803 18 3.95824 18 4.48433V17.8758C18 18.4019 17.8043 18.8524 17.413 19.2273C17.021 19.6017 16.55 19.7888 16 19.7888H2ZM2 17.8758H16V8.31045H2V17.8758ZM2 6.39739H16V4.48433H2V6.39739ZM2 6.39739V4.48433V6.39739ZM9 12.1366C8.71667 12.1366 8.47933 12.0448 8.288 11.8611C8.096 11.6781 8 11.4511 8 11.18C8 10.909 8.096 10.6817 8.288 10.498C8.47933 10.315 8.71667 10.2235 9 10.2235C9.28333 10.2235 9.521 10.315 9.713 10.498C9.90433 10.6817 10 10.909 10 11.18C10 11.4511 9.90433 11.6781 9.713 11.8611C9.521 12.0448 9.28333 12.1366 9 12.1366ZM5 12.1366C4.71667 12.1366 4.479 12.0448 4.287 11.8611C4.09567 11.6781 4 11.4511 4 11.18C4 10.909 4.09567 10.6817 4.287 10.498C4.479 10.315 4.71667 10.2235 5 10.2235C5.28333 10.2235 5.521 10.315 5.713 10.498C5.90433 10.6817 6 10.909 6 11.18C6 11.4511 5.90433 11.6781 5.713 11.8611C5.521 12.0448 5.28333 12.1366 5 12.1366ZM13 12.1366C12.7167 12.1366 12.4793 12.0448 12.288 11.8611C12.096 11.6781 12 11.4511 12 11.18C12 10.909 12.096 10.6817 12.288 10.498C12.4793 10.315 12.7167 10.2235 13 10.2235C13.2833 10.2235 13.5207 10.315 13.712 10.498C13.904 10.6817 14 10.909 14 11.18C14 11.4511 13.904 11.6781 13.712 11.8611C13.5207 12.0448 13.2833 12.1366 13 12.1366ZM9 15.9627C8.71667 15.9627 8.47933 15.8709 8.288 15.6872C8.096 15.5042 8 15.2772 8 15.0062C8 14.7352 8.096 14.5081 8.288 14.3251C8.47933 14.1415 8.71667 14.0496 9 14.0496C9.28333 14.0496 9.521 14.1415 9.713 14.3251C9.90433 14.5081 10 14.7352 10 15.0062C10 15.2772 9.90433 15.5042 9.713 15.6872C9.521 15.8709 9.28333 15.9627 9 15.9627ZM5 15.9627C4.71667 15.9627 4.479 15.8709 4.287 15.6872C4.09567 15.5042 4 15.2772 4 15.0062C4 14.7352 4.09567 14.5081 4.287 14.3251C4.479 14.1415 4.71667 14.0496 5 14.0496C5.28333 14.0496 5.521 14.1415 5.713 14.3251C5.90433 14.5081 6 14.7352 6 15.0062C6 15.2772 5.90433 15.5042 5.713 15.6872C5.521 15.8709 5.28333 15.9627 5 15.9627ZM13 15.9627C12.7167 15.9627 12.4793 15.8709 12.288 15.6872C12.096 15.5042 12 15.2772 12 15.0062C12 14.7352 12.096 14.5081 12.288 14.3251C12.4793 14.1415 12.7167 14.0496 13 14.0496C13.2833 14.0496 13.5207 14.1415 13.712 14.3251C13.904 14.5081 14 14.7352 14 15.0062C14 15.2772 13.904 15.5042 13.712 15.6872C13.5207 15.8709 13.2833 15.9627 13 15.9627Z" fill="#1967D2"/>
</svg>
