<svg width="20" height="21" viewBox="0 0 20 21" fill="none" xmlns="http://www.w3.org/2000/svg">
  <path d="M13.3 15.1197L14.7 13.7197L11 10.0197V5.41968H9V10.8197L13.3 15.1197ZM10 20.4197C8.61667 20.4197 7.31667 20.157 6.1 19.6317C4.88333 19.107 3.825 18.3947 2.925 17.4947C2.025 16.5947 1.31267 15.5363 0.788 14.3197C0.262667 13.103 0 11.803 0 10.4197C0 9.03634 0.262667 7.73634 0.788 6.51968C1.31267 5.30301 2.025 4.24468 2.925 3.34468C3.825 2.44468 4.88333 1.73201 6.1 1.20668C7.31667 0.682011 8.61667 0.419678 10 0.419678C11.3833 0.419678 12.6833 0.682011 13.9 1.20668C15.1167 1.73201 16.175 2.44468 17.075 3.34468C17.975 4.24468 18.6873 5.30301 19.212 6.51968C19.7373 7.73634 20 9.03634 20 10.4197C20 11.803 19.7373 13.103 19.212 14.3197C18.6873 15.5363 17.975 16.5947 17.075 17.4947C16.175 18.3947 15.1167 19.107 13.9 19.6317C12.6833 20.157 11.3833 20.4197 10 20.4197ZM10 18.4197C12.2167 18.4197 14.1043 17.6407 15.663 16.0827C17.221 14.524 18 12.6363 18 10.4197C18 8.20301 17.221 6.31534 15.663 4.75668C14.1043 3.19868 12.2167 2.41968 10 2.41968C7.78333 2.41968 5.896 3.19868 4.338 4.75668C2.77933 6.31534 2 8.20301 2 10.4197C2 12.6363 2.77933 14.524 4.338 16.0827C5.896 17.6407 7.78333 18.4197 10 18.4197Z" fill="#1967D2"/>
</svg>
