<svg xmlns="http://www.w3.org/2000/svg" width="240" height="40" viewBox="0 0 200 26" fill="none">
  <g clip-path="url(#clip0_399_8764)">
    <path d="M36.0427 16.8959C35.2246 16.4198 34.5814 15.7644 34.1155 14.9319C33.6496 14.0994 33.4155 13.1726 33.4155 12.1493C33.4155 11.1259 33.6496 10.1991 34.1155 9.36665C34.5814 8.53416 35.2246 7.87874 36.0427 7.40271C36.8609 6.92667 37.77 6.6875 38.7723 6.6875C39.5427 6.6875 40.2472 6.83698 40.8881 7.13364C41.529 7.4303 42.0836 7.85115 42.5563 8.39617L41.6768 9.25856C41.2813 8.78252 40.8518 8.43067 40.3836 8.2076C39.9177 7.98453 39.3813 7.87184 38.7745 7.87184C38.0245 7.87184 37.3359 8.04892 36.7109 8.40537C36.0859 8.76183 35.5882 9.26316 35.2177 9.90937C34.8473 10.5579 34.6609 11.3053 34.6609 12.1516C34.6609 12.9979 34.8473 13.7453 35.2177 14.3938C35.5882 15.0423 36.0859 15.5436 36.7109 15.8978C37.3359 16.2542 38.0245 16.4313 38.7745 16.4313C40.0245 16.4313 41.0881 15.9093 41.9654 14.8675L42.8608 15.7437C42.379 16.3186 41.7881 16.774 41.0859 17.1097C40.3836 17.4455 39.6131 17.6134 38.7768 17.6134C37.7745 17.6134 36.8655 17.3742 36.0473 16.8982L36.0427 16.8959Z" fill="#606367"/>
    <path d="M44.229 6.91699H45.4563V9.99859L45.3994 11.022H45.4563C45.6585 10.6425 45.979 10.3251 46.4153 10.0722C46.854 9.81921 47.3312 9.69273 47.8517 9.69273C48.7471 9.69273 49.4289 9.95719 49.9017 10.4884C50.3721 11.0197 50.6085 11.7234 50.6085 12.5995V17.376H49.3812V12.7881C49.3812 12.1166 49.213 11.6199 48.8767 11.2979C48.5403 10.976 48.1017 10.815 47.5631 10.815C47.179 10.815 46.8244 10.9323 46.5017 11.1645C46.179 11.3968 45.9244 11.7004 45.7358 12.0706C45.5472 12.4409 45.454 12.8249 45.454 13.2251V17.3737H44.2267V6.91699H44.229Z" fill="#606367"/>
    <path d="M52.3698 9.92745H53.5403V11.1256H53.5971C53.7403 10.7163 54.0198 10.3782 54.4334 10.1114C54.8471 9.84467 55.2811 9.70898 55.7334 9.70898C56.0698 9.70898 56.3584 9.75728 56.5993 9.85616V11.1992C56.2902 11.0428 55.9448 10.9646 55.5607 10.9646C55.2039 10.9646 54.8766 11.0658 54.5789 11.2705C54.2812 11.4752 54.0425 11.7511 53.8652 12.0961C53.688 12.441 53.5971 12.8136 53.5971 13.2137V17.3762H52.3698V9.92516V9.92745Z" fill="#606367"/>
    <path d="M58.7947 17.0842C58.2175 16.7347 57.7675 16.2563 57.4447 15.6538C57.122 15.049 56.9607 14.3821 56.9607 13.6531C56.9607 12.9241 57.122 12.2549 57.4447 11.6524C57.7675 11.0475 58.2175 10.5715 58.7947 10.2219C59.372 9.87239 60.022 9.69531 60.7447 9.69531C61.4674 9.69531 62.1151 9.87009 62.6924 10.2219C63.2697 10.5715 63.7197 11.0498 64.0424 11.6524C64.3651 12.2572 64.5265 12.9241 64.5265 13.6531C64.5265 14.3821 64.3651 15.0513 64.0424 15.6538C63.7197 16.2586 63.2697 16.7347 62.6924 17.0842C62.1151 17.4338 61.4652 17.6109 60.7447 17.6109C60.0243 17.6109 59.3743 17.4361 58.7947 17.0842ZM62.0061 16.1414C62.3947 15.9137 62.7083 15.5848 62.9447 15.1548C63.181 14.727 63.2992 14.2257 63.2992 13.6508C63.2992 13.0759 63.181 12.5745 62.9447 12.1468C62.7083 11.719 62.397 11.3902 62.0061 11.1602C61.6151 10.9325 61.1947 10.8176 60.7424 10.8176C60.2902 10.8176 59.8674 10.9325 59.472 11.1602C59.0765 11.3902 58.7629 11.719 58.5265 12.1468C58.2902 12.5745 58.172 13.0759 58.172 13.6508C58.172 14.2257 58.2902 14.727 58.5265 15.1548C58.7629 15.5825 59.0765 15.9114 59.472 16.1414C59.8674 16.3713 60.2902 16.484 60.7424 16.484C61.1947 16.484 61.6151 16.369 62.0061 16.1414Z" fill="#606367"/>
    <path d="M65.8105 9.92793H66.981V11.0226H67.0378C67.2492 10.6431 67.5673 10.3258 67.9901 10.0728C68.4128 9.81984 68.8605 9.69336 69.3332 9.69336C69.8719 9.69336 70.3423 9.82444 70.74 10.0866C71.14 10.3488 71.4264 10.7006 71.5991 11.1376C71.8582 10.6983 72.2036 10.3488 72.6309 10.0866C73.0582 9.82444 73.5559 9.69336 74.1241 9.69336C74.9718 9.69336 75.6082 9.95322 76.0377 10.4753C76.465 10.9973 76.6809 11.7056 76.6809 12.6002V17.3766H75.4672V12.7888C75.4672 12.0965 75.3263 11.5952 75.0491 11.2847C74.7695 10.9743 74.3559 10.8179 73.8082 10.8179C73.4423 10.8179 73.1105 10.926 72.8127 11.1399C72.515 11.3537 72.2809 11.6412 72.1127 12.0023C71.9446 12.3633 71.8605 12.752 71.8605 13.1705V17.3766H70.6332V12.8048C70.6332 12.1034 70.4946 11.5975 70.215 11.2847C69.9355 10.9743 69.5264 10.8179 68.9878 10.8179C68.6219 10.8179 68.2901 10.9283 67.9923 11.1468C67.6946 11.3652 67.4605 11.6573 67.2923 12.023C67.1242 12.3886 67.0401 12.7796 67.0401 13.1981V17.3766H65.8128V9.92563L65.8105 9.92793Z" fill="#606367"/>
    <path d="M79.8286 17.1007C79.2695 16.7603 78.8354 16.2889 78.5218 15.691C78.2081 15.093 78.0536 14.4169 78.0536 13.6672C78.0536 12.9175 78.2013 12.2851 78.4945 11.6803C78.7877 11.0755 79.2036 10.5948 79.7422 10.2338C80.2808 9.87274 80.9058 9.69336 81.6195 9.69336C82.3331 9.69336 82.9672 9.85664 83.4967 10.1832C84.0262 10.5098 84.4331 10.9605 84.7171 11.5354C85.0012 12.1103 85.1421 12.7681 85.1421 13.5086C85.1421 13.6534 85.1285 13.7822 85.099 13.888H79.2808C79.3104 14.4537 79.4445 14.9298 79.6854 15.3184C79.9263 15.7071 80.2308 15.9991 80.6013 16.1946C80.9717 16.3901 81.3581 16.4867 81.7626 16.4867C82.7058 16.4867 83.4331 16.0382 83.9422 15.1436L84.9808 15.6542C84.6626 16.259 84.2331 16.735 83.6899 17.0846C83.1467 17.4341 82.4899 17.6112 81.7195 17.6112C81.0172 17.6112 80.3854 17.441 79.8286 17.1007ZM83.8422 12.8646C83.8217 12.5542 83.7353 12.2414 83.5831 11.9287C83.4285 11.6182 83.1853 11.3537 82.8535 11.1399C82.5217 10.926 82.1058 10.8179 81.6058 10.8179C81.0286 10.8179 80.5399 11.0065 80.1399 11.3813C79.7399 11.7562 79.4786 12.2506 79.3536 12.8646H83.8422Z" fill="#606367"/>
    <path d="M90.483 11.0519H89.1262V9.92739H90.483V9.1248C90.483 8.65796 90.5898 8.24861 90.8012 7.89676C91.0125 7.54721 91.2966 7.27584 91.6534 7.08497C92.0102 6.89409 92.4034 6.7998 92.8375 6.7998C93.2716 6.7998 93.6125 6.8573 93.9193 6.97458V8.18652C93.7466 8.11753 93.5829 8.06234 93.4284 8.01864C93.2738 7.97495 93.092 7.95195 92.8807 7.95195C92.5625 7.95195 92.2898 8.06694 92.058 8.29461C91.8261 8.52458 91.7125 8.84194 91.7125 9.25128V9.92279H93.6034V11.0473H91.7125V17.3715H90.4853V11.0473L90.483 11.0519Z" fill="#606367"/>
    <path d="M96.0988 17.0842C95.5215 16.7347 95.0715 16.2563 94.7488 15.6538C94.4261 15.049 94.2647 14.3821 94.2647 13.6531C94.2647 12.9241 94.4261 12.2549 94.7488 11.6524C95.0715 11.0475 95.5215 10.5715 96.0988 10.2219C96.6761 9.87239 97.3261 9.69531 98.0488 9.69531C98.7715 9.69531 99.4192 9.87009 99.9965 10.2219C100.574 10.5715 101.024 11.0498 101.346 11.6524C101.669 12.2572 101.831 12.9241 101.831 13.6531C101.831 14.3821 101.669 15.0513 101.346 15.6538C101.024 16.2586 100.574 16.7347 99.9965 17.0842C99.4192 17.4338 98.7692 17.6109 98.0488 17.6109C97.3283 17.6109 96.6783 17.4361 96.0988 17.0842ZM99.3101 16.1414C99.6988 15.9137 100.012 15.5848 100.249 15.1548C100.485 14.727 100.603 14.2257 100.603 13.6508C100.603 13.0759 100.485 12.5745 100.249 12.1468C100.012 11.719 99.701 11.3902 99.3101 11.1602C98.9192 10.9325 98.4988 10.8176 98.0465 10.8176C97.5942 10.8176 97.1715 10.9325 96.7761 11.1602C96.3806 11.3902 96.067 11.719 95.8306 12.1468C95.5943 12.5745 95.4761 13.0759 95.4761 13.6508C95.4761 14.2257 95.5943 14.727 95.8306 15.1548C96.067 15.5825 96.3806 15.9114 96.7761 16.1414C97.1715 16.3713 97.5942 16.484 98.0465 16.484C98.4988 16.484 98.9192 16.369 99.3101 16.1414Z" fill="#606367"/>
    <path d="M103.115 9.92745H104.285V11.1256H104.342C104.485 10.7163 104.765 10.3782 105.178 10.1114C105.592 9.84467 106.026 9.70898 106.478 9.70898C106.815 9.70898 107.103 9.75728 107.344 9.85616V11.1992C107.035 11.0428 106.69 10.9646 106.305 10.9646C105.949 10.9646 105.621 11.0658 105.324 11.2705C105.026 11.4752 104.787 11.7511 104.61 12.0961C104.433 12.441 104.342 12.8136 104.342 13.2137V17.3762H103.115V9.92516V9.92745Z" fill="#606367"/>
    <path d="M112.124 6.91699H115.242C116.301 6.91699 117.224 7.13776 118.014 7.5816C118.803 8.02545 119.41 8.64176 119.833 9.43056C120.255 10.2194 120.467 11.1254 120.467 12.1465C120.467 13.1676 120.255 14.0736 119.833 14.8624C119.41 15.6512 118.803 16.2676 118.014 16.7114C117.226 17.1552 116.301 17.376 115.242 17.376H112.124V6.91699ZM115.242 16.194C116.464 16.194 117.433 15.8375 118.151 15.1269C118.867 14.4163 119.226 13.4228 119.226 12.1465C119.226 10.8702 118.867 9.8767 118.151 9.1661C117.433 8.45549 116.464 8.09904 115.242 8.09904H113.337V16.1917H115.242V16.194Z" fill="#606367"/>
    <path d="M123.196 17.1007C122.637 16.7603 122.203 16.2889 121.889 15.691C121.576 15.093 121.421 14.4169 121.421 13.6672C121.421 12.9175 121.569 12.2851 121.862 11.6803C122.155 11.0755 122.571 10.5948 123.11 10.2338C123.648 9.87274 124.273 9.69336 124.987 9.69336C125.701 9.69336 126.335 9.85664 126.864 10.1832C127.394 10.5098 127.801 10.9605 128.085 11.5354C128.369 12.1103 128.51 12.7681 128.51 13.5086C128.51 13.6534 128.496 13.7822 128.467 13.888H122.648C122.678 14.4537 122.812 14.9298 123.053 15.3184C123.294 15.7071 123.598 15.9991 123.969 16.1946C124.339 16.3901 124.726 16.4867 125.13 16.4867C126.073 16.4867 126.801 16.0382 127.31 15.1436L128.348 15.6542C128.03 16.259 127.601 16.735 127.058 17.0846C126.514 17.4341 125.858 17.6112 125.087 17.6112C124.385 17.6112 123.753 17.441 123.196 17.1007ZM127.21 12.8646C127.189 12.5542 127.103 12.2414 126.951 11.9287C126.796 11.6182 126.553 11.3537 126.221 11.1399C125.889 10.926 125.473 10.8179 124.973 10.8179C124.396 10.8179 123.908 11.0065 123.508 11.3813C123.108 11.7562 122.846 12.2506 122.721 12.8646H127.21Z" fill="#606367"/>
    <path d="M128.985 9.92773H130.298L132.58 15.9161H132.61L134.919 9.92773H136.203L133.201 17.3788H131.96L128.985 9.92773Z" fill="#606367"/>
    <path d="M138.382 17.1007C137.823 16.7603 137.389 16.2889 137.076 15.691C136.762 15.093 136.607 14.4169 136.607 13.6672C136.607 12.9175 136.755 12.2851 137.048 11.6803C137.342 11.0755 137.757 10.5948 138.296 10.2338C138.835 9.87274 139.46 9.69336 140.173 9.69336C140.887 9.69336 141.521 9.85664 142.051 10.1832C142.58 10.5098 142.987 10.9605 143.271 11.5354C143.555 12.1103 143.696 12.7681 143.696 13.5086C143.696 13.6534 143.682 13.7822 143.653 13.888H137.835C137.864 14.4537 137.998 14.9298 138.239 15.3184C138.48 15.7071 138.785 15.9991 139.155 16.1946C139.526 16.3901 139.912 16.4867 140.316 16.4867C141.26 16.4867 141.987 16.0382 142.496 15.1436L143.535 15.6542C143.216 16.259 142.787 16.735 142.244 17.0846C141.701 17.4341 141.044 17.6112 140.273 17.6112C139.571 17.6112 138.939 17.441 138.382 17.1007ZM142.396 12.8646C142.376 12.5542 142.289 12.2414 142.137 11.9287C141.982 11.6182 141.739 11.3537 141.407 11.1399C141.076 10.926 140.66 10.8179 140.16 10.8179C139.582 10.8179 139.094 11.0065 138.694 11.3813C138.294 11.7562 138.032 12.2506 137.907 12.8646H142.396Z" fill="#606367"/>
    <path d="M145.123 6.91699H146.35V17.376H145.123V6.91699Z" fill="#606367"/>
    <path d="M149.541 17.0842C148.964 16.7347 148.514 16.2563 148.191 15.6538C147.869 15.049 147.707 14.3821 147.707 13.6531C147.707 12.9241 147.869 12.2549 148.191 11.6524C148.514 11.0475 148.964 10.5715 149.541 10.2219C150.119 9.87239 150.769 9.69531 151.491 9.69531C152.214 9.69531 152.862 9.87009 153.439 10.2219C154.016 10.5715 154.466 11.0498 154.789 11.6524C155.112 12.2572 155.273 12.9241 155.273 13.6531C155.273 14.3821 155.112 15.0513 154.789 15.6538C154.466 16.2586 154.016 16.7347 153.439 17.0842C152.862 17.4338 152.212 17.6109 151.491 17.6109C150.771 17.6109 150.121 17.4361 149.541 17.0842ZM152.753 16.1414C153.141 15.9137 153.455 15.5848 153.691 15.1548C153.928 14.727 154.046 14.2257 154.046 13.6508C154.046 13.0759 153.928 12.5745 153.691 12.1468C153.455 11.719 153.144 11.3902 152.753 11.1602C152.362 10.9325 151.941 10.8176 151.489 10.8176C151.037 10.8176 150.614 10.9325 150.219 11.1602C149.823 11.3902 149.51 11.719 149.273 12.1468C149.037 12.5745 148.919 13.0759 148.919 13.6508C148.919 14.2257 149.037 14.727 149.273 15.1548C149.51 15.5825 149.823 15.9114 150.219 16.1414C150.614 16.3713 151.037 16.484 151.489 16.484C151.941 16.484 152.362 16.369 152.753 16.1414Z" fill="#606367"/>
    <path d="M156.571 9.92758H157.741V11.0383H157.798C158.019 10.6589 158.355 10.3392 158.8 10.0817C159.248 9.8241 159.75 9.69531 160.309 9.69531C160.964 9.69531 161.559 9.86549 162.1 10.2058C162.639 10.5462 163.062 11.0199 163.371 11.6225C163.678 12.2273 163.832 12.9034 163.832 13.6531C163.832 14.4028 163.678 15.0927 163.371 15.6906C163.062 16.2885 162.639 16.76 162.1 17.1003C161.562 17.4407 160.964 17.6109 160.309 17.6109C159.75 17.6109 159.248 17.4821 158.8 17.2245C158.353 16.967 158.019 16.6519 157.798 16.2816H157.741L157.798 17.305V20.5338H156.571V9.92758ZM161.364 16.1368C161.739 15.9022 162.039 15.5687 162.266 15.1364C162.491 14.7041 162.605 14.2096 162.605 13.6531C162.605 13.0966 162.491 12.6044 162.266 12.1698C162.039 11.7374 161.739 11.404 161.364 11.1694C160.989 10.9348 160.589 10.8199 160.166 10.8199C159.743 10.8199 159.343 10.9371 158.968 11.1694C158.594 11.4017 158.296 11.7351 158.073 12.1629C157.853 12.5906 157.741 13.0874 157.741 13.6531C157.741 14.2188 157.853 14.7155 158.073 15.1433C158.294 15.571 158.594 15.9022 158.968 16.1368C159.343 16.3713 159.743 16.4863 160.166 16.4863C160.589 16.4863 160.989 16.369 161.364 16.1368Z" fill="#606367"/>
    <path d="M166.648 17.1007C166.089 16.7603 165.655 16.2889 165.341 15.691C165.028 15.093 164.873 14.4169 164.873 13.6672C164.873 12.9175 165.021 12.2851 165.314 11.6803C165.607 11.0755 166.023 10.5948 166.562 10.2338C167.1 9.87274 167.725 9.69336 168.439 9.69336C169.152 9.69336 169.787 9.85664 170.316 10.1832C170.846 10.5098 171.252 10.9605 171.537 11.5354C171.821 12.1103 171.962 12.7681 171.962 13.5086C171.962 13.6534 171.948 13.7822 171.918 13.888H166.1C166.13 14.4537 166.264 14.9298 166.505 15.3184C166.746 15.7071 167.05 15.9991 167.421 16.1946C167.791 16.3901 168.177 16.4867 168.582 16.4867C169.525 16.4867 170.252 16.0382 170.762 15.1436L171.8 15.6542C171.482 16.259 171.052 16.735 170.509 17.0846C169.966 17.4341 169.309 17.6112 168.539 17.6112C167.837 17.6112 167.205 17.441 166.648 17.1007ZM170.662 12.8646C170.641 12.5542 170.555 12.2414 170.402 11.9287C170.248 11.6182 170.005 11.3537 169.673 11.1399C169.341 10.926 168.925 10.8179 168.425 10.8179C167.848 10.8179 167.359 11.0065 166.959 11.3813C166.559 11.7562 166.298 12.2506 166.173 12.8646H170.662Z" fill="#606367"/>
    <path d="M173.389 9.92745H174.559V11.1256H174.616C174.759 10.7163 175.039 10.3782 175.452 10.1114C175.866 9.84467 176.3 9.70898 176.752 9.70898C177.089 9.70898 177.377 9.75728 177.618 9.85616V11.1992C177.309 11.0428 176.964 10.9646 176.58 10.9646C176.223 10.9646 175.896 11.0658 175.598 11.2705C175.3 11.4752 175.061 11.7511 174.884 12.0961C174.707 12.441 174.616 12.8136 174.616 13.2137V17.3762H173.389V9.92516V9.92745Z" fill="#606367"/>
    <path d="M179.107 17.0501C178.577 16.6752 178.202 16.1946 177.982 15.6105L179.08 15.1137C179.261 15.5622 179.534 15.9071 179.895 16.1509C180.257 16.3947 180.652 16.5166 181.086 16.5166C181.548 16.5166 181.943 16.4223 182.27 16.2314C182.598 16.0405 182.761 15.7715 182.761 15.4196C182.761 15.1091 182.632 14.8562 182.37 14.6676C182.111 14.4767 181.702 14.3157 181.143 14.1778L180.248 13.9432C179.661 13.7983 179.18 13.5499 178.805 13.1981C178.43 12.8485 178.241 12.3955 178.241 11.839C178.241 11.4112 178.368 11.0341 178.623 10.7075C178.877 10.381 179.218 10.1303 179.641 9.95552C180.064 9.78075 180.52 9.69336 181.011 9.69336C181.657 9.69336 182.232 9.83364 182.736 10.1165C183.241 10.3994 183.6 10.7926 183.811 11.3008L182.743 11.7976C182.416 11.1353 181.834 10.8041 180.995 10.8041C180.591 10.8041 180.239 10.8984 179.934 11.0893C179.632 11.2801 179.48 11.5193 179.48 11.8114C179.48 12.085 179.586 12.3058 179.798 12.476C180.009 12.6462 180.327 12.7842 180.75 12.8922L181.818 13.1705C182.541 13.3568 183.084 13.6304 183.45 13.9961C183.816 14.3617 183.998 14.8079 183.998 15.3322C183.998 15.7899 183.868 16.1923 183.609 16.5373C183.35 16.8822 182.998 17.149 182.555 17.333C182.111 17.5169 181.62 17.6112 181.082 17.6112C180.293 17.6112 179.634 17.4226 179.105 17.0478L179.107 17.0501Z" fill="#606367"/>
    <path d="M23.0475 6.25082C19.6361 0.273913 12.0817 -1.77512 6.17494 1.67673C4.29769 2.77368 2.73862 4.35127 1.65454 6.25082L2.39544 19.75L23.0475 6.25082Z" fill="#E84436"/>
    <path d="M7.00446 15.6245L1.6568 6.25098C-1.75452 12.2302 0.270453 19.8744 6.1772 23.3239C8.05445 24.4209 10.184 24.9981 12.3521 24.9981L24.4565 12.4993L7.00219 15.6245H7.00446Z" fill="#34A653"/>
    <path d="M17.7021 15.6245L12.3544 24.9981C19.177 24.9981 24.7042 19.3983 24.7042 12.497C24.7042 10.303 24.1338 8.15053 23.0497 6.25098H12.3544L17.7021 15.6245Z" fill="url(#paint0_linear_399_8764)"/>
    <path d="M12.3544 18.7495C15.7657 18.7495 18.5293 15.9507 18.5293 12.5012C18.5293 9.05166 15.7634 6.25293 12.3544 6.25293C8.94535 6.25293 6.17947 9.05166 6.17947 12.5012C6.17947 15.9507 8.94535 18.7495 12.3544 18.7495Z" fill="white"/>
    <path d="M12.3544 17.45C15.0566 17.45 17.2452 15.2354 17.2475 12.5011C17.2475 9.76671 15.0589 7.5521 12.3567 7.5498C9.65443 7.5498 7.46582 9.76671 7.46582 12.5011C7.46582 15.2331 9.6567 17.45 12.3567 17.45H12.3544Z" fill="#4383F2"/>
  </g>
  <defs>
    <linearGradient id="paint0_linear_399_8764" x1="10.5567" y1="25.0027" x2="21.4447" y2="6.39923" gradientUnits="userSpaceOnUse">
      <stop stop-color="#FAC735"/>
      <stop offset="1" stop-color="#F8BA07"/>
    </linearGradient>
    <clipPath id="clip0_399_8764">
      <rect width="184" height="25" fill="white"/>
    </clipPath>
  </defs>
</svg>