<svg width="24" height="23" viewBox="0 0 22 23" fill="none" xmlns="http://www.w3.org/2000/svg">
<path fill-rule="evenodd" clip-rule="evenodd" d="M1.67939 1.6707V9.8293V9.74576V20.6053V1.6707ZM4.45038 12.8087H9.6285C9.83562 12.4913 10.0595 12.1961 10.3003 11.9177C10.541 11.6392 10.8153 11.3775 11.112 11.138H4.45038V12.8087ZM4.45038 17.5424H8.81679C8.76081 17.2639 8.71603 16.9855 8.68804 16.707C8.66005 16.4286 8.65445 16.1501 8.67125 15.8717H4.44478V17.5424H4.45038ZM1.67939 22.276C1.23155 22.276 0.839695 22.109 0.503817 21.7748C0.167939 21.4407 0 21.0508 0 20.6053V1.6707C0 1.22518 0.167939 0.835351 0.503817 0.501211C0.839695 0.16707 1.23155 0 1.67939 0H11.7837L17.9135 6.09806V10.3862C17.6504 10.2581 17.3817 10.1467 17.1018 10.0521C16.8219 9.95739 16.5308 9.88499 16.2341 9.8293V6.84988H10.944V1.6707H1.67939V20.6053H10.4962C10.8712 20.9952 11.2855 21.3293 11.7445 21.6077C12.2036 21.8862 12.7018 22.109 13.2448 22.276H1.67939ZM15.1145 19.2131C15.9934 19.2131 16.7267 18.9179 17.3145 18.3332C17.9023 17.7484 18.199 17.0189 18.199 16.1446C18.199 15.2702 17.9023 14.5407 17.3145 13.9559C16.7267 13.3712 15.9934 13.076 15.1145 13.076C14.2356 13.076 13.5023 13.3712 12.9145 13.9559C12.3267 14.5407 12.03 15.2702 12.03 16.1446C12.03 17.0189 12.3267 17.7484 12.9145 18.3332C13.5023 18.9179 14.2356 19.2131 15.1145 19.2131ZM20.8244 23L17.8239 20.0206C17.4377 20.2823 17.0122 20.4884 16.5532 20.6499C16.0941 20.8114 15.6127 20.8893 15.1089 20.8893C13.7878 20.8893 12.6626 20.4271 11.7389 19.5082C10.8153 18.5893 10.3506 17.47 10.3506 16.1501C10.3506 14.8303 10.8153 13.7165 11.7389 12.7976C12.6626 11.8787 13.7878 11.4165 15.1145 11.4165C16.4412 11.4165 17.5608 11.8787 18.4845 12.7976C19.4081 13.7165 19.8728 14.8358 19.8728 16.1501C19.8728 16.6513 19.7944 17.1303 19.6321 17.5869C19.4753 18.0436 19.2626 18.4613 18.9995 18.8511L21.9944 21.8361L20.8188 23.0056L20.8244 23Z" />
</svg>
