<svg width="23pt" height="23pt" viewBox="0 0 23 23"><path d="M11.43.137C5.117.137 0 5.383 0 11.859c0 5.176 3.277 9.57 7.816 11.121.575.11.782-.253.782-.566 0-.277-.008-1.2-.016-2.18-3.18.707-3.852-1.382-3.852-1.382-.52-1.356-1.27-1.715-1.27-1.715-1.034-.727.08-.715.08-.715 1.147.086 1.753 1.21 1.753 1.21 1.02 1.79 2.676 1.274 3.328.973.102-.757.399-1.273.723-1.566-2.54-.297-5.207-1.3-5.207-5.793 0-1.281.445-2.324 1.18-3.148-.122-.293-.512-1.485.109-3.102 0 0 .96-.312 3.144 1.203.91-.258 1.89-.39 2.86-.394.972.004 1.953.136 2.867.394 2.18-1.515 3.14-1.203 3.14-1.203.622 1.617.231 2.809.11 3.102.734.824 1.176 1.867 1.176 3.148 0 4.5-2.672 5.492-5.22 5.781.411.364.778 1.078.778 2.172 0 1.57-.015 2.832-.015 3.215 0 .313.207.68.785.563 4.539-1.551 7.812-5.942 7.812-11.118C22.863 5.383 17.746.137 11.43.137zm0 0" fill-rule="evenodd" fill="#5F6368"/></svg>
