<svg width="32" height="32" viewBox="0 0 24 24"><path d="M2.344 7.742c.074-.523.379-1.726.965-2.363l7.683-1.219 7.297 1.762.176 2.516-9.504-1.45 2.031 4.684 7.742 2.672.254 1.738-9.582-1.738-1.375 4.586-4.449-1.2-1.434-2.421 1.16-1.993 3.544-.949-1.317-1.605-1.953-1.395zm0 0" fill="#fff"/><path d="M23.625 15.395c-.191-.641-.258-.512.129-1.41.164-.383.246-.797.246-1.215a.3.3 0 00-.035-.141.328.328 0 00-.102-.106.301.301 0 00-.281-.023c-.59.258-1.71.742-2.262.973-.765.32-1.597.449-2.558.129-.961-.32-2.352-1.043-3.63-1.332-.859-.192-1.405-.364-2.296-.457.156-.016 1.176-.215 2.2-.52a30.901 30.901 0 002.96-1.09c1.152-.512 1.918-.387 2.75-.066.504.195 1.473.648 2.16.972.278.133.68-.125.547-.398-.242-.508-.308-1.375.012-1.95.363-.656.289-.8.098-1.44-.196-.641-.258-.516.125-1.41.144-.337.226-.696.246-1.06a.363.363 0 00-.043-.19.37.37 0 00-.125-.145.437.437 0 00-.18-.067.355.355 0 00-.191.031c-.61.262-1.622.7-2.137.918-.77.32-1.598.446-2.559.125L14.793 4.22a.364.364 0 01-.191-.14c-.168-.24-.63-.837-1.086-.99-.575-.19-2.688-.831-3.454-.96-.769-.133-1.28-.32-1.664.125-.28.336-.734.871-.949 1.129a.384.384 0 01-.144.105.374.374 0 01-.172.032c-.63-.028-2.715-.028-4.746 1.042C.578 5.516.12 6.997.004 7.696a.401.401 0 00.07.29.39.39 0 00.11.1c.043.024.09.044.14.052.535.086 1.48.289 1.469.656-.008.285-.461.488-.863.613a.39.39 0 00-.168.114.398.398 0 00-.094.18.401.401 0 00.125.37c.613.535 1.863 1.352 3.977 1.742a8.884 8.884 0 00-2.32.825C.57 13.629.151 15.19.058 15.852a.316.316 0 00.004.12.375.375 0 00.05.106.325.325 0 00.2.121c.515.078 1.558.281 1.546.668-.011.317-.57.535-.996.656a.285.285 0 00-.21.215.279.279 0 00.003.16c.012.051.043.098.082.133.668.63 2.328 1.809 5.489 2.043a21.8 21.8 0 001.55.047c.461.61 1.29 1.457 2.5 1.742.918.215 1.485.168 1.817.07a.357.357 0 00.144-.081c.04-.04.07-.086.09-.141.02-.05.027-.106.02-.164a.327.327 0 00-.055-.156l-.883-1.442a54.1 54.1 0 001.387-.133c.012 0 .023-.003.039-.003.293-.075 4.117-1.043 5.226-1.536 1.153-.511 1.918-.382 2.75-.062.543.207 1.625.715 2.317 1.043.223.105.496-.098.418-.332-.176-.551-.238-1.578-.016-2.09.297-.688.285-.8.094-1.441zM3.781 7.988c-.406 0-.734-.375-.734-.832 0-.457.328-.836.734-.836.41 0 .739.371.739.832 0 .461-.329.836-.739.836zm0 7.922c-.406 0-.734-.375-.734-.836 0-.46.332-.832.734-.832.406 0 .739.375.739.832 0 .457-.329.836-.739.836zm3.645-.25c-.063.871-.133 1.18-.422 1.84a.49.49 0 01-.176.203.449.449 0 01-.254.074.461.461 0 01-.43-.297.457.457 0 010-.351c.2-.512.293-.742.348-1.54.04-.546-.265-1-.496-1.292a.466.466 0 01-.09-.34.483.483 0 01.172-.309.466.466 0 01.648.066l.012.016c.621.786.719 1.48.688 1.93zm.008-8.23c-.028.718-.102 1.199-.426 1.855a.464.464 0 01-.172.195.462.462 0 01-.691-.226.448.448 0 01.012-.355c.222-.477.288-.723.343-1.528.04-.547-.266-1.004-.496-1.297a.465.465 0 01.086-.64.487.487 0 01.332-.102c.121.012.23.066.312.156.278.352.73 1.067.7 1.942zM9.18 5.043c1.297.047 2.59.176 3.867.39 1.851.325 3.984 1.028 4.223 1.106.097.031.18.098.23.188.055.09.074.191.059.293a.429.429 0 01-.43.367.55.55 0 01-.137-.02c-.023-.008-2.262-.754-4.094-1.074a29.095 29.095 0 00-3.726-.379.438.438 0 01-.297-.75.427.427 0 01.309-.121zm8.363 9.836a.453.453 0 01-.156.215.46.46 0 01-.258.082.42.42 0 01-.137-.024c-.023-.007-2.262-.754-4.094-1.074a29.813 29.813 0 00-3.726-.379.419.419 0 01-.305-.129.44.44 0 01-.125-.312.42.42 0 01.133-.305.43.43 0 01.309-.125c1.293.047 2.586.176 3.863.39 1.851.325 3.984 1.024 4.223 1.106.109.035.199.114.25.219.05.102.058.223.023.332zm0 0"/></svg>
