<svg width="22" height="13" viewBox="0 0 22 13" fill="none" xmlns="http://www.w3.org/2000/svg"><path d="M22 2.5C22 3.6 21.1 4.5 20 4.5C19.82 4.5 19.65 4.48 19.49 4.43L15.93 7.98C15.98 8.14 16 8.32 16 8.5C16 9.6 15.1 10.5 14 10.5C12.9 10.5 12 9.6 12 8.5C12 8.32 12.02 8.14 12.07 7.98L9.52 5.43C9.36 5.48 9.18 5.5 9 5.5C8.82 5.5 8.64 5.48 8.48 5.43L3.93 9.99C3.98 10.15 4 10.32 4 10.5C4 11.6 3.1 12.5 2 12.5C0.9 12.5 0 11.6 0 10.5C0 9.4 0.9 8.5 2 8.5C2.18 8.5 2.35 8.52 2.51 8.57L7.07 4.02C7.02 3.86 7 3.68 7 3.5C7 2.4 7.9 1.5 9 1.5C10.1 1.5 11 2.4 11 3.5C11 3.68 10.98 3.86 10.93 4.02L13.48 6.57C13.64 6.52 13.82 6.5 14 6.5C14.18 6.5 14.36 6.52 14.52 6.57L18.07 3.01C18.02 2.85 18 2.68 18 2.5C18 1.4 18.9 0.5 20 0.5C21.1 0.5 22 1.4 22 2.5Z"/></svg>
