<svg width="24" height="24" viewBox="0 0 24 24" fill="none" xmlns="http://www.w3.org/2000/svg">
<path d="M12.411 2.22201L17.778 7.58901V17.778H2.222V2.22201H12.411ZM12.411 1.29327e-05H2.222C1 1.29327e-05 0 1.00001 0 2.22201V17.778C0 19 1 20 2.222 20H17.778C19 20 20 19 20 17.778V7.58801C20 7.00001 19.767 6.43301 19.344 6.02201L13.978 0.656013C13.7738 0.44742 13.5298 0.281893 13.2604 0.169219C12.9911 0.056544 12.7019 -0.000991695 12.41 1.29327e-05H12.411Z" fill="#1A73E8"/>
<path d="M7.61 14L8.3 11.04L6 9.05L9.03 8.79L10.22 6L11.41 8.79L14.44 9.05L12.14 11.04L12.83 14L10.22 12.47L7.61 14Z" fill="#1A73E8"/>
</svg>
