<svg width="160" height="40" viewBox="4 2 160 40" fill="none" xmlns="http://www.w3.org/2000/svg">
<mask id="mask0" mask-type="alpha" maskUnits="userSpaceOnUse" x="4" y="4" width="32" height="32">
<ellipse cx="20" cy="20" rx="16" ry="16" fill="#C4C4C4"/>
</mask>
<g mask="url(#mask0)">
<path d="M4.00006 4V23.6364H13.7018L20 12.7273H36V4H4.00006Z" fill="#DB4437"/>
<path d="M4 36H19.2309L26.3 28.9309V23.6364H13.7018L4 6.99636V36Z" fill="#0F9D58"/>
<path d="M4 36H19.2309L26.3 28.9309V23.6364H13.7018L4 6.99636V36Z" fill="url(#paint0_linear)"/>
<path d="M19.9998 12.7273L26.2998 23.6364L19.2307 36H35.9998V12.7273H19.9998Z" fill="#FFCD40"/>
<path d="M19.9998 12.7273L26.2998 23.6364L19.2307 36H35.9998V12.7273H19.9998Z" fill="url(#paint1_linear)"/>
<path d="M13.8744 23.5727L6.63258 11.1527L6.52712 11.3345L13.7162 23.6618L13.8744 23.5727Z" fill="#3E2723" fill-opacity="0.15"/>
<path d="M26.1526 23.8782L26.0017 23.7909L19.0217 36H19.2308L26.1581 23.8836L26.1526 23.8782Z" fill="#263238" fill-opacity="0.15"/>
<path d="M6.53992 11.3545L16.949 21.7618L13.7017 23.6364L6.53992 11.3545Z" fill="url(#paint2_radial)"/>
<path d="M19.2418 35.98L23.0527 21.7618L26.2999 23.6364L19.2418 35.98Z" fill="url(#paint3_radial)"/>
<path d="M20 12.7273V16.5364L34.2545 12.7273H20Z" fill="url(#paint4_radial)"/>
<path d="M19.9999 27.2727C24.0166 27.2727 27.2727 24.0166 27.2727 20C27.2727 15.9834 24.0166 12.7273 19.9999 12.7273C15.9833 12.7273 12.7272 15.9834 12.7272 20C12.7272 24.0166 15.9833 27.2727 19.9999 27.2727Z" fill="#F1F1F1"/>
<path d="M20 25.8182C23.2132 25.8182 25.8181 23.2133 25.8181 20C25.8181 16.7867 23.2132 14.1818 20 14.1818C16.7867 14.1818 14.1818 16.7867 14.1818 20C14.1818 23.2133 16.7867 25.8182 20 25.8182Z" fill="#4285F4"/>
<path d="M19.9999 12.5455C15.9836 12.5455 12.7272 15.8018 12.7272 19.8182V20C12.7272 15.9836 15.9836 12.7273 19.9999 12.7273H35.9999V12.5455H19.9999Z" fill="#3E2723" fill-opacity="0.2"/>
<path d="M26.2909 23.6364C25.0327 25.8073 22.6891 27.2727 20 27.2727C17.3091 27.2727 14.9655 25.8073 13.7073 23.6364H13.7L4 6.99636V7.17818L13.7018 23.8182H13.7091C14.9673 25.9891 17.3109 27.4545 20.0018 27.4545C22.6909 27.4545 25.0345 25.9909 26.2927 23.8182H26.3018V23.6364H26.2909Z" fill="white" fill-opacity="0.1"/>
<path opacity="0.1" d="M20.1818 12.7273C20.1509 12.7273 20.1218 12.7309 20.0909 12.7327C24.0655 12.7818 27.2727 16.0145 27.2727 20C27.2727 23.9855 24.0655 27.2182 20.0909 27.2673C20.1218 27.2673 20.1509 27.2727 20.1818 27.2727C24.1982 27.2727 27.4546 24.0164 27.4546 20C27.4546 15.9836 24.1982 12.7273 20.1818 12.7273Z" fill="#3E2723"/>
<path d="M26.3636 23.8782C26.9818 22.8091 27.34 21.5727 27.34 20.2491C27.34 19.4818 27.22 18.7436 27 18.0509C27.1727 18.6727 27.2727 19.3255 27.2727 20.0018C27.2727 21.3255 26.9145 22.5618 26.2964 23.6309L26.3 23.6382L19.2309 36.0018H19.4418L26.3673 23.8855L26.3636 23.8782Z" fill="white" fill-opacity="0.2"/>
<path d="M20 4.18182C28.8055 4.18182 35.9491 11.2964 35.9982 20.0909C35.9982 20.06 36 20.0309 36 20C36 11.1636 28.8364 4 20 4C11.1636 4 4 11.1636 4 20C4 20.0309 4.00182 20.06 4.00182 20.0909C4.05091 11.2964 11.1945 4.18182 20 4.18182Z" fill="white" fill-opacity="0.2"/>
<path d="M20 35.8182C28.8055 35.8182 35.9491 28.7036 35.9982 19.9091C35.9982 19.94 36 19.9691 36 20C36 28.8364 28.8364 36 20 36C11.1636 36 4 28.8364 4 20C4 19.9691 4.00181 19.94 4.00181 19.9091C4.05091 28.7036 11.1945 35.8182 20 35.8182Z" fill="#3E2723" fill-opacity="0.15"/>
<path d="M20 36C28.8366 36 36 28.8366 36 20C36 11.1634 28.8366 4 20 4C11.1634 4 4 11.1634 4 20C4 28.8366 11.1634 36 20 36Z" fill="url(#paint5_radial)"/>
</g>
<path d="M53.584 28V12.248H58.402C60.822 12.248 62.758 12.9813 64.21 14.448C65.662 15.9 66.388 17.792 66.388 20.124C66.388 22.456 65.662 24.3553 64.21 25.822C62.758 27.274 60.822 28 58.402 28H53.584ZM55.608 26.064H58.402C60.2207 26.064 61.658 25.5433 62.714 24.502C63.7847 23.4607 64.32 22.0013 64.32 20.124C64.32 18.2613 63.7847 16.8093 62.714 15.768C61.658 14.712 60.2207 14.184 58.402 14.184H55.608V26.064ZM73.0047 28.352C71.3767 28.352 70.0493 27.8093 69.0227 26.724C68.0107 25.6387 67.5047 24.2673 67.5047 22.61C67.5047 21.0407 67.996 19.6913 68.9787 18.562C69.976 17.4327 71.2447 16.868 72.7847 16.868C74.3833 16.868 75.6593 17.3887 76.6127 18.43C77.5807 19.4713 78.0647 20.8647 78.0647 22.61L78.0427 22.984H69.5287C69.5873 24.0693 69.9467 24.9273 70.6067 25.558C71.2813 26.1887 72.066 26.504 72.9607 26.504C74.4127 26.504 75.3953 25.888 75.9087 24.656L77.7127 25.404C77.3607 26.24 76.7813 26.944 75.9747 27.516C75.168 28.0733 74.178 28.352 73.0047 28.352ZM75.9087 21.312C75.8647 20.696 75.5787 20.1093 75.0507 19.552C74.5373 18.9947 73.7673 18.716 72.7407 18.716C71.9927 18.716 71.34 18.9507 70.7827 19.42C70.24 19.8893 69.866 20.52 69.6607 21.312H75.9087ZM82.9128 28L78.5568 17.22H80.7568L83.9248 25.58H83.9688L87.1808 17.22H89.3368L84.9367 28H82.9128ZM95.2195 28.352C93.5915 28.352 92.2642 27.8093 91.2375 26.724C90.2255 25.6387 89.7195 24.2673 89.7195 22.61C89.7195 21.0407 90.2108 19.6913 91.1935 18.562C92.1908 17.4327 93.4595 16.868 94.9995 16.868C96.5982 16.868 97.8742 17.3887 98.8275 18.43C99.7955 19.4713 100.28 20.8647 100.28 22.61L100.258 22.984H91.7435C91.8022 24.0693 92.1615 24.9273 92.8215 25.558C93.4962 26.1887 94.2808 26.504 95.1755 26.504C96.6275 26.504 97.6102 25.888 98.1235 24.656L99.9275 25.404C99.5755 26.24 98.9962 26.944 98.1895 27.516C97.3828 28.0733 96.3928 28.352 95.2195 28.352ZM98.1235 21.312C98.0795 20.696 97.7935 20.1093 97.2655 19.552C96.7522 18.9947 95.9822 18.716 94.9555 18.716C94.2075 18.716 93.5548 18.9507 92.9975 19.42C92.4548 19.8893 92.0808 20.52 91.8755 21.312H98.1235ZM104.154 28H102.13V12.248H104.154V28ZM107.459 18.518C108.501 17.418 109.828 16.868 111.441 16.868C113.055 16.868 114.382 17.418 115.423 18.518C116.465 19.6033 116.985 20.9673 116.985 22.61C116.985 24.2527 116.465 25.624 115.423 26.724C114.382 27.8093 113.055 28.352 111.441 28.352C109.828 28.352 108.501 27.8093 107.459 26.724C106.418 25.624 105.897 24.2527 105.897 22.61C105.897 20.9673 106.418 19.6033 107.459 18.518ZM108.955 25.448C109.659 26.152 110.488 26.504 111.441 26.504C112.395 26.504 113.216 26.152 113.905 25.448C114.609 24.7293 114.961 23.7833 114.961 22.61C114.961 21.4367 114.609 20.498 113.905 19.794C113.216 19.0753 112.395 18.716 111.441 18.716C110.488 18.716 109.659 19.0753 108.955 19.794C108.266 20.498 107.921 21.4367 107.921 22.61C107.921 23.7833 108.266 24.7293 108.955 25.448ZM124.326 28.352C123.505 28.352 122.764 28.176 122.104 27.824C121.459 27.472 120.975 27.032 120.652 26.504H120.564L120.652 28V32.752H118.628V17.22H120.564V18.716H120.652C120.975 18.188 121.459 17.748 122.104 17.396C122.764 17.044 123.505 16.868 124.326 16.868C125.72 16.868 126.922 17.418 127.934 18.518C128.946 19.618 129.452 20.982 129.452 22.61C129.452 24.238 128.946 25.602 127.934 26.702C126.922 27.802 125.72 28.352 124.326 28.352ZM123.996 26.504C124.935 26.504 125.742 26.152 126.416 25.448C127.091 24.7293 127.428 23.7833 127.428 22.61C127.428 21.4367 127.091 20.498 126.416 19.794C125.742 19.0753 124.935 18.716 123.996 18.716C123.043 18.716 122.229 19.068 121.554 19.772C120.894 20.476 120.564 21.422 120.564 22.61C120.564 23.798 120.894 24.744 121.554 25.448C122.229 26.152 123.043 26.504 123.996 26.504ZM136.19 28.352C134.562 28.352 133.235 27.8093 132.208 26.724C131.196 25.6387 130.69 24.2673 130.69 22.61C130.69 21.0407 131.182 19.6913 132.164 18.562C133.162 17.4327 134.43 16.868 135.97 16.868C137.569 16.868 138.845 17.3887 139.798 18.43C140.766 19.4713 141.25 20.8647 141.25 22.61L141.228 22.984H132.714C132.773 24.0693 133.132 24.9273 133.792 25.558C134.467 26.1887 135.252 26.504 136.146 26.504C137.598 26.504 138.581 25.888 139.094 24.656L140.898 25.404C140.546 26.24 139.967 26.944 139.16 27.516C138.354 28.0733 137.364 28.352 136.19 28.352ZM139.094 21.312C139.05 20.696 138.764 20.1093 138.236 19.552C137.723 18.9947 136.953 18.716 135.926 18.716C135.178 18.716 134.526 18.9507 133.968 19.42C133.426 19.8893 133.052 20.52 132.846 21.312H139.094ZM145.125 28H143.101V17.22H145.037V18.98H145.125C145.33 18.3933 145.748 17.9093 146.379 17.528C147.024 17.1467 147.648 16.956 148.249 16.956C148.85 16.956 149.356 17.044 149.767 17.22L148.997 19.112C148.733 19.0093 148.374 18.958 147.919 18.958C147.186 18.958 146.533 19.2513 145.961 19.838C145.404 20.41 145.125 21.1653 145.125 22.104V28ZM154.668 28.352C153.465 28.352 152.468 28.0587 151.676 27.472C150.898 26.8853 150.326 26.152 149.96 25.272L151.764 24.524C152.336 25.8733 153.311 26.548 154.69 26.548C155.32 26.548 155.834 26.4087 156.23 26.13C156.64 25.8513 156.846 25.4847 156.846 25.03C156.846 24.326 156.354 23.8493 155.372 23.6L153.194 23.072C152.504 22.896 151.852 22.566 151.236 22.082C150.62 21.5833 150.312 20.916 150.312 20.08C150.312 19.1267 150.73 18.3567 151.566 17.77C152.416 17.1687 153.421 16.868 154.58 16.868C155.533 16.868 156.384 17.088 157.132 17.528C157.88 17.9533 158.415 18.5693 158.738 19.376L156.978 20.102C156.582 19.1487 155.76 18.672 154.514 18.672C153.912 18.672 153.406 18.7967 152.996 19.046C152.585 19.2953 152.38 19.6327 152.38 20.058C152.38 20.674 152.856 21.092 153.81 21.312L155.944 21.818C156.956 22.0527 157.704 22.456 158.188 23.028C158.672 23.6 158.914 24.2453 158.914 24.964C158.914 25.932 158.518 26.7387 157.726 27.384C156.934 28.0293 155.914 28.352 154.668 28.352Z" fill="#5F6368"/>
<defs>
<linearGradient id="paint0_linear" x1="22.704" y1="32.4536" x2="12.0978" y2="26.2416" gradientUnits="userSpaceOnUse">
<stop stop-color="#055524" stop-opacity="0.4"/>
<stop offset="0.33" stop-color="#055524" stop-opacity="0"/>
</linearGradient>
<linearGradient id="paint1_linear" x1="24.7012" y1="11.6007" x2="27.372" y2="23.2964" gradientUnits="userSpaceOnUse">
<stop stop-color="#EA6100" stop-opacity="0.3"/>
<stop offset="0.66" stop-color="#EA6100" stop-opacity="0"/>
</linearGradient>
<radialGradient id="paint2_radial" cx="0" cy="0" r="1" gradientUnits="userSpaceOnUse" gradientTransform="translate(6.52265 11.3673) scale(14.1898)">
<stop stop-color="#3E2723" stop-opacity="0.2"/>
<stop offset="1" stop-color="#3E2723" stop-opacity="0"/>
</radialGradient>
<radialGradient id="paint3_radial" cx="0" cy="0" r="1" gradientUnits="userSpaceOnUse" gradientTransform="translate(19.9716 20.0251) scale(15.9764)">
<stop stop-color="#263238" stop-opacity="0.2"/>
<stop offset="1" stop-color="#263238" stop-opacity="0"/>
</radialGradient>
<radialGradient id="paint4_radial" cx="0" cy="0" r="1" gradientUnits="userSpaceOnUse" gradientTransform="translate(19.3047 12.7178) scale(15.2869)">
<stop stop-color="#3E2723" stop-opacity="0.2"/>
<stop offset="1" stop-color="#3E2723" stop-opacity="0"/>
</radialGradient>
<radialGradient id="paint5_radial" cx="0" cy="0" r="1" gradientUnits="userSpaceOnUse" gradientTransform="translate(8.77927 8.36618) scale(32.1356)">
<stop stop-color="white" stop-opacity="0.1"/>
<stop offset="1" stop-color="white" stop-opacity="0"/>
</radialGradient>
</defs>
</svg>