<svg xmlns="http://www.w3.org/2000/svg" version="1.2" width="36" height="36" viewBox="0 0 502 502"><defs><linearGradient id="a" x1="110.2" x2="-106.3" y1="582.3" y2="207.2" gradientUnits="userSpaceOnUse"><stop offset="0" stop-color="#329a48"/><stop offset="1" stop-color="#3eb864"/></linearGradient><linearGradient id="b" x1="86.9" x2="303.4" y1="406.2" y2="31.2" gradientUnits="userSpaceOnUse"><stop offset="0" stop-color="#ffc44e"/><stop offset="1" stop-color="#ffb73b"/></linearGradient><linearGradient id="c" x1="34.5" x2="467.5" y1="-1" y2="-1" gradientUnits="userSpaceOnUse"><stop offset="0" stop-color="#f23d28"/><stop offset="1" stop-color="#ff4e39"/></linearGradient></defs><path d="M358.4 314.9 251 501C112.9 501 1 389.1 1 251c0-45.5 12.2-88.2 33.5-125l107.3 185.9 1.8 3C165.4 351.5 205.3 376 251 376s85.6-24.5 107.4-61.1z" style="fill:url(#a)"/><path d="M501 251c0 138.1-111.9 250-250 250l107.4-186.1 1.8-3c10-18 15.8-38.8 15.8-60.9 0-69-56-125-125-125h216.5c21.3 36.8 33.5 79.5 33.5 125z" style="fill:url(#b)"/><path d="M467.5 126H251c-69 0-125 56-125 125 0 22.1 5.8 42.9 15.8 60.9L34.5 126C77.7 51.3 158.5 1 251 1s173.3 50.3 216.5 125z" style="fill:url(#c)"/><path d="m360.2 311.9-1.8 3C336.6 351.5 296.7 376 251 376s-85.6-24.5-107.4-61.1l-1.8-3c-10-18-15.8-38.8-15.8-60.9 0-69 56-125 125-125s125 56 125 125c0 22.1-5.8 42.9-15.8 60.9z" style="fill:#fff"/><path d="m340.5 301-1.4 2.4c-17.9 30-50.7 50.1-88.1 50.1-37.4 0-70.2-20.1-88.1-50.1l-1.4-2.4c-8.3-14.8-13-31.9-13-50 0-56.6 45.9-102.5 102.5-102.5S353.5 194.4 353.5 251c0 18.1-4.7 35.2-13 50z" style="fill:#1a73e8"/></svg>
