<svg width="36" height="36" viewBox="2 2 36 36" fill="none" xmlns="http://www.w3.org/2000/svg">
<mask id="mask0" mask-type="alpha" maskUnits="userSpaceOnUse" x="4" y="4" width="32" height="32">
<ellipse cx="20" cy="20" rx="16" ry="16" fill="#C4C4C4"/>
</mask>
<g mask="url(#mask0)">
<path d="M4.00006 4V23.6364H13.7018L20 12.7273H36V4H4.00006Z" fill="#DB4437"/>
<path d="M4 36H19.2309L26.3 28.9309V23.6364H13.7018L4 6.99636V36Z" fill="#0F9D58"/>
<path d="M4 36H19.2309L26.3 28.9309V23.6364H13.7018L4 6.99636V36Z" fill="url(#paint0_linear)"/>
<path d="M19.9998 12.7273L26.2998 23.6364L19.2307 36H35.9998V12.7273H19.9998Z" fill="#FFCD40"/>
<path d="M19.9998 12.7273L26.2998 23.6364L19.2307 36H35.9998V12.7273H19.9998Z" fill="url(#paint1_linear)"/>
<path d="M13.8744 23.5727L6.63258 11.1527L6.52712 11.3345L13.7162 23.6618L13.8744 23.5727Z" fill="#3E2723" fill-opacity="0.15"/>
<path d="M26.1526 23.8782L26.0017 23.7909L19.0217 36H19.2308L26.1581 23.8836L26.1526 23.8782Z" fill="#263238" fill-opacity="0.15"/>
<path d="M6.53993 11.3545L16.949 21.7618L13.7017 23.6364L6.53993 11.3545Z" fill="url(#paint2_radial)"/>
<path d="M19.2418 35.98L23.0527 21.7618L26.2999 23.6364L19.2418 35.98Z" fill="url(#paint3_radial)"/>
<path d="M20 12.7273V16.5364L34.2545 12.7273H20Z" fill="url(#paint4_radial)"/>
<path d="M19.9999 27.2727C24.0166 27.2727 27.2727 24.0166 27.2727 20C27.2727 15.9834 24.0166 12.7273 19.9999 12.7273C15.9833 12.7273 12.7272 15.9834 12.7272 20C12.7272 24.0166 15.9833 27.2727 19.9999 27.2727Z" fill="#F1F1F1"/>
<path d="M20 25.8182C23.2133 25.8182 25.8181 23.2133 25.8181 20C25.8181 16.7867 23.2133 14.1818 20 14.1818C16.7867 14.1818 14.1818 16.7867 14.1818 20C14.1818 23.2133 16.7867 25.8182 20 25.8182Z" fill="#4285F4"/>
<path d="M19.9999 12.5455C15.9836 12.5455 12.7272 15.8018 12.7272 19.8182V20C12.7272 15.9836 15.9836 12.7273 19.9999 12.7273H35.9999V12.5455H19.9999Z" fill="#3E2723" fill-opacity="0.2"/>
<path d="M26.2909 23.6364C25.0327 25.8073 22.6891 27.2727 20 27.2727C17.3091 27.2727 14.9655 25.8073 13.7073 23.6364H13.7L4 6.99636V7.17818L13.7018 23.8182H13.7091C14.9673 25.9891 17.3109 27.4545 20.0018 27.4545C22.6909 27.4545 25.0345 25.9909 26.2927 23.8182H26.3018V23.6364H26.2909Z" fill="white" fill-opacity="0.1"/>
<path opacity="0.1" d="M20.1818 12.7273C20.1509 12.7273 20.1218 12.7309 20.0909 12.7327C24.0655 12.7818 27.2727 16.0145 27.2727 20C27.2727 23.9855 24.0655 27.2182 20.0909 27.2673C20.1218 27.2673 20.1509 27.2727 20.1818 27.2727C24.1982 27.2727 27.4546 24.0164 27.4546 20C27.4546 15.9836 24.1982 12.7273 20.1818 12.7273Z" fill="#3E2723"/>
<path d="M26.3636 23.8782C26.9818 22.8091 27.34 21.5727 27.34 20.2491C27.34 19.4818 27.22 18.7436 27 18.0509C27.1727 18.6727 27.2727 19.3255 27.2727 20.0018C27.2727 21.3255 26.9145 22.5618 26.2964 23.6309L26.3 23.6382L19.2309 36.0018H19.4418L26.3673 23.8855L26.3636 23.8782Z" fill="white" fill-opacity="0.2"/>
<path d="M20 4.18182C28.8055 4.18182 35.9491 11.2964 35.9982 20.0909C35.9982 20.06 36 20.0309 36 20C36 11.1636 28.8364 4 20 4C11.1636 4 4 11.1636 4 20C4 20.0309 4.00182 20.06 4.00182 20.0909C4.05091 11.2964 11.1945 4.18182 20 4.18182Z" fill="white" fill-opacity="0.2"/>
<path d="M20 35.8182C28.8055 35.8182 35.9491 28.7036 35.9982 19.9091C35.9982 19.94 36 19.9691 36 20C36 28.8364 28.8364 36 20 36C11.1636 36 4 28.8364 4 20C4 19.9691 4.00181 19.94 4.00181 19.9091C4.05091 28.7036 11.1945 35.8182 20 35.8182Z" fill="#3E2723" fill-opacity="0.15"/>
<path d="M20 36C28.8366 36 36 28.8366 36 20C36 11.1634 28.8366 4 20 4C11.1634 4 4 11.1634 4 20C4 28.8366 11.1634 36 20 36Z" fill="url(#paint5_radial)"/>
</g>
<defs>
<linearGradient id="paint0_linear" x1="22.704" y1="32.4536" x2="12.0978" y2="26.2416" gradientUnits="userSpaceOnUse">
<stop stop-color="#055524" stop-opacity="0.4"/>
<stop offset="0.33" stop-color="#055524" stop-opacity="0"/>
</linearGradient>
<linearGradient id="paint1_linear" x1="24.7012" y1="11.6007" x2="27.372" y2="23.2964" gradientUnits="userSpaceOnUse">
<stop stop-color="#EA6100" stop-opacity="0.3"/>
<stop offset="0.66" stop-color="#EA6100" stop-opacity="0"/>
</linearGradient>
<radialGradient id="paint2_radial" cx="0" cy="0" r="1" gradientUnits="userSpaceOnUse" gradientTransform="translate(6.52266 11.3673) scale(14.1898)">
<stop stop-color="#3E2723" stop-opacity="0.2"/>
<stop offset="1" stop-color="#3E2723" stop-opacity="0"/>
</radialGradient>
<radialGradient id="paint3_radial" cx="0" cy="0" r="1" gradientUnits="userSpaceOnUse" gradientTransform="translate(19.9716 20.0251) scale(15.9764)">
<stop stop-color="#263238" stop-opacity="0.2"/>
<stop offset="1" stop-color="#263238" stop-opacity="0"/>
</radialGradient>
<radialGradient id="paint4_radial" cx="0" cy="0" r="1" gradientUnits="userSpaceOnUse" gradientTransform="translate(19.3047 12.7178) scale(15.2869)">
<stop stop-color="#3E2723" stop-opacity="0.2"/>
<stop offset="1" stop-color="#3E2723" stop-opacity="0"/>
</radialGradient>
<radialGradient id="paint5_radial" cx="0" cy="0" r="1" gradientUnits="userSpaceOnUse" gradientTransform="translate(8.77927 8.36618) scale(32.1356)">
<stop stop-color="white" stop-opacity="0.1"/>
<stop offset="1" stop-color="white" stop-opacity="0"/>
</radialGradient>
</defs>
</svg>