<svg xmlns="http://www.w3.org/2000/svg" width="190" height="36" fill="none" viewBox="52 2 190 36"><defs/><path fill="#5F6368" d="M61 28.35A7.92 7.92 0 0155.17 26a7.97 7.97 0 01-2.36-5.88c0-2.34.79-4.3 2.36-5.87A7.92 7.92 0 0161 11.9c2.37 0 4.3.85 5.78 2.57l-1.4 1.36a5.31 5.31 0 00-4.38-2 6 6 0 00-4.36 1.74 6.12 6.12 0 00-1.76 4.55c0 1.88.59 3.4 1.76 4.56A6 6 0 0061 26.42c1.89 0 3.5-.77 4.84-2.3l1.4 1.42a7.79 7.79 0 01-2.7 2.06c-1.09.5-2.27.75-3.54.75zm10.07-16.1v4.97l-.09 1.5h.09c.3-.52.75-.95 1.38-1.3.64-.37 1.31-.55 2.03-.55 1.33 0 2.35.4 3.06 1.23a4.9 4.9 0 011.05 3.3V28h-2.02v-6.3c0-1.99-.89-2.98-2.66-2.98-.84 0-1.52.33-2.05 1-.53.67-.8 1.44-.8 2.32V28h-2.02V12.25h2.03zM82.99 28h-2.02V17.22h1.93v1.76h.1c.2-.59.62-1.07 1.25-1.45a3.68 3.68 0 013.38-.31l-.77 1.9c-.26-.11-.62-.16-1.07-.16-.74 0-1.39.3-1.96.88a3.1 3.1 0 00-.84 2.26V28zm6.25-9.48a5.24 5.24 0 013.98-1.65c1.62 0 2.94.55 3.98 1.65a5.67 5.67 0 011.57 4.09c0 1.64-.52 3.01-1.57 4.11a5.28 5.28 0 01-3.98 1.63 5.28 5.28 0 01-3.98-1.63 5.75 5.75 0 01-1.56-4.11c0-1.64.52-3 1.56-4.1zm1.5 6.93a3.4 3.4 0 004.95 0 3.88 3.88 0 001.05-2.84 3.8 3.8 0 00-1.05-2.82 3.37 3.37 0 00-4.95 0 3.85 3.85 0 00-1.04 2.82c0 1.17.35 2.12 1.04 2.84zm9.65 2.55V17.22h1.94v1.5h.08c.31-.52.78-.95 1.41-1.3a3.86 3.86 0 011.92-.55c1.67 0 2.8.69 3.4 2.07a4.21 4.21 0 013.77-2.07c1.27 0 2.23.4 2.88 1.23.65.8.97 1.9.97 3.3V28h-2.03v-6.3c0-1.08-.2-1.85-.59-2.3-.4-.46-1-.68-1.8-.68s-1.46.33-1.98 1a3.72 3.72 0 00-.77 2.32V28h-2.03v-6.3c0-1.08-.2-1.85-.6-2.3-.39-.46-.99-.68-1.8-.68-.79 0-1.45.33-1.98 1a3.72 3.72 0 00-.77 2.32V28h-2.02zm23.62.35a5.23 5.23 0 01-3.98-1.63 5.8 5.8 0 01-1.52-4.11c0-1.57.49-2.92 1.47-4.05 1-1.13 2.27-1.7 3.8-1.7 1.6 0 2.88.53 3.84 1.57a5.9 5.9 0 011.45 4.18l-.02.37h-8.52a3.68 3.68 0 001.08 2.58c.67.63 1.46.94 2.36.94 1.45 0 2.43-.61 2.94-1.84l1.8.74a4.9 4.9 0 01-1.73 2.12c-.8.55-1.8.83-2.97.83zm2.9-7.04a2.85 2.85 0 00-.85-1.76c-.52-.56-1.29-.83-2.31-.83-.75 0-1.4.23-1.96.7-.55.47-.92 1.1-1.13 1.9h6.25zm9.2 6.69V12.25h4.81c2.42 0 4.36.73 5.81 2.2a7.68 7.68 0 012.18 5.67c0 2.34-.73 4.24-2.18 5.7-1.45 1.45-3.39 2.18-5.8 2.18h-4.83zm2.02-1.94h2.8c1.81 0 3.25-.52 4.3-1.56 1.08-1.04 1.61-2.5 1.61-4.38 0-1.86-.53-3.31-1.6-4.35a5.83 5.83 0 00-4.32-1.59h-2.8v11.88zm17.4 2.3a5.24 5.24 0 01-3.99-1.64 5.8 5.8 0 01-1.51-4.11c0-1.57.49-2.92 1.47-4.05 1-1.13 2.27-1.7 3.8-1.7 1.6 0 2.88.53 3.83 1.57a5.9 5.9 0 011.46 4.18l-.03.37h-8.51a3.68 3.68 0 001.08 2.58c.67.63 1.46.94 2.35.94 1.45 0 2.44-.61 2.95-1.84l1.8.74a4.9 4.9 0 01-1.73 2.12c-.81.55-1.8.83-2.97.83zm2.9-7.05a2.85 2.85 0 00-.86-1.76c-.51-.56-1.28-.83-2.3-.83-.76 0-1.4.23-1.97.7-.54.47-.91 1.1-1.12 1.9h6.25zm7 6.69l-4.35-10.78h2.2l3.17 8.36h.04l3.21-8.36h2.16L167.46 28h-2.03zm12.31.35a5.24 5.24 0 01-3.98-1.63 5.8 5.8 0 01-1.52-4.11c0-1.57.5-2.92 1.47-4.05 1-1.13 2.27-1.7 3.81-1.7 1.6 0 2.88.53 3.83 1.57a5.9 5.9 0 011.45 4.18l-.02.37h-8.52a3.68 3.68 0 001.08 2.58c.68.63 1.46.94 2.36.94 1.45 0 2.43-.61 2.95-1.84l1.8.74a4.9 4.9 0 01-1.74 2.12c-.8.55-1.8.83-2.97.83zm2.9-7.04a2.85 2.85 0 00-.85-1.76c-.52-.56-1.29-.83-2.31-.83-.75 0-1.4.23-1.96.7-.54.47-.92 1.1-1.12 1.9h6.25zm6.04 6.69h-2.03V12.25h2.03V28zm3.3-9.48a5.24 5.24 0 013.98-1.65c1.62 0 2.94.55 3.98 1.65a5.68 5.68 0 011.57 4.09c0 1.64-.52 3.01-1.56 4.11a5.28 5.28 0 01-3.99 1.63 5.28 5.28 0 01-3.98-1.63 5.75 5.75 0 01-1.56-4.11c0-1.64.52-3 1.56-4.1zm1.5 6.93a3.4 3.4 0 002.48 1.05c.96 0 1.78-.35 2.47-1.05a3.88 3.88 0 001.05-2.84 3.8 3.8 0 00-1.05-2.82 3.37 3.37 0 00-4.95 0 3.85 3.85 0 00-1.04 2.82c0 1.17.35 2.12 1.04 2.84zm15.37 2.9c-.82 0-1.56-.17-2.22-.53a3.76 3.76 0 01-1.46-1.32h-.08l.08 1.5v4.75h-2.02V17.22h1.94v1.5h.08c.33-.53.81-.97 1.46-1.32.66-.36 1.4-.53 2.22-.53 1.4 0 2.6.55 3.6 1.65a5.82 5.82 0 011.52 4.09c0 1.63-.5 3-1.51 4.1a4.74 4.74 0 01-3.61 1.64zm-.33-1.85c.94 0 1.74-.35 2.42-1.05a3.98 3.98 0 001.01-2.84 3.9 3.9 0 00-1.01-2.82 3.2 3.2 0 00-2.42-1.07c-.96 0-1.77.35-2.44 1.05-.66.7-1 1.65-1 2.84s.34 2.13 1 2.84c.67.7 1.48 1.05 2.44 1.05zm12.2 1.85a5.23 5.23 0 01-3.99-1.63 5.8 5.8 0 01-1.52-4.11c0-1.57.5-2.92 1.48-4.05 1-1.13 2.26-1.7 3.8-1.7 1.6 0 2.88.53 3.83 1.57a5.9 5.9 0 011.45 4.18l-.02.37h-8.51a3.68 3.68 0 001.07 2.58c.68.63 1.46.94 2.36.94 1.45 0 2.43-.61 2.95-1.84l1.8.74a4.9 4.9 0 01-1.74 2.12c-.8.55-1.8.83-2.97.83zm2.9-7.04a2.85 2.85 0 00-.86-1.76c-.52-.56-1.29-.83-2.31-.83-.75 0-1.4.23-1.96.7-.54.47-.92 1.1-1.12 1.9h6.25zm6.03 6.69h-2.03V17.22h1.94v1.76h.09c.2-.59.62-1.07 1.25-1.45a3.67 3.67 0 013.39-.31l-.77 1.9c-.27-.11-.63-.16-1.08-.16-.73 0-1.38.3-1.96.88a3.1 3.1 0 00-.83 2.26V28zm9.54.35c-1.2 0-2.2-.3-3-.88a5.25 5.25 0 01-1.7-2.2l1.8-.75c.57 1.35 1.54 2.03 2.92 2.03.63 0 1.14-.14 1.54-.42.41-.28.62-.65.62-1.1 0-.7-.5-1.18-1.48-1.43l-2.17-.53a5.27 5.27 0 01-1.96-.99 2.44 2.44 0 01-.93-2c0-.95.42-1.72 1.26-2.31.85-.6 1.85-.9 3.01-.9.95 0 1.8.22 2.55.66a3.6 3.6 0 011.6 1.85l-1.75.72c-.4-.95-1.22-1.43-2.47-1.43-.6 0-1.1.13-1.51.38-.41.25-.62.58-.62 1 0 .62.48 1.04 1.43 1.26l2.13.5c1.02.24 1.76.65 2.25 1.22a3 3 0 01-.46 4.36c-.8.64-1.81.96-3.06.96z"/></svg>