<svg width="14" height="20" viewBox="0 0 14 20" fill="none" xmlns="http://www.w3.org/2000/svg">
  <path d="M7 19.7888C6.76667 19.7888 6.56667 19.7251 6.4 19.5975C6.23333 19.47 6.10833 19.3026 6.025 19.0953C5.70833 18.2026 5.31267 17.3656 4.838 16.5844C4.36267 15.8033 3.7 14.8866 2.85 13.8344C2 12.7822 1.31233 11.7779 0.787 10.8213C0.262334 9.86482 0 8.70901 0 7.35392C0 5.48869 0.679333 3.90626 2.038 2.60666C3.396 1.30769 5.05 0.658203 7 0.658203C8.95 0.658203 10.604 1.30769 11.962 2.60666C13.3207 3.90626 14 5.48869 14 7.35392C14 8.80466 13.7127 10.0121 13.138 10.9763C12.5627 11.9411 11.9 12.8938 11.15 13.8344C10.25 14.9823 9.571 15.9346 9.113 16.6916C8.65433 17.4492 8.275 18.2504 7.975 19.0953C7.89167 19.3185 7.76267 19.4898 7.588 19.609C7.41267 19.7289 7.21667 19.7888 7 19.7888ZM7 16.3692C7.28333 15.8272 7.60433 15.2931 7.963 14.767C8.321 14.2409 8.85 13.5395 9.55 12.6627C10.2667 11.7699 10.854 10.9447 11.312 10.1872C11.7707 9.43023 12 8.48582 12 7.35392C12 6.03072 11.5127 4.90297 10.538 3.97067C9.56267 3.03773 8.38333 2.57127 7 2.57127C5.61667 2.57127 4.43767 3.03773 3.463 3.97067C2.48767 4.90297 2 6.03072 2 7.35392C2 8.48582 2.22933 9.43023 2.688 10.1872C3.146 10.9447 3.73333 11.7699 4.45 12.6627C5.15 13.5395 5.67933 14.2409 6.038 14.767C6.396 15.2931 6.71667 15.8272 7 16.3692ZM7 9.74525C7.7 9.74525 8.29167 9.51409 8.775 9.05176C9.25833 8.58944 9.5 8.02349 9.5 7.35392C9.5 6.68435 9.25833 6.1184 8.775 5.65608C8.29167 5.19376 7.7 4.96259 7 4.96259C6.3 4.96259 5.70833 5.19376 5.225 5.65608C4.74167 6.1184 4.5 6.68435 4.5 7.35392C4.5 8.02349 4.74167 8.58944 5.225 9.05176C5.70833 9.51409 6.3 9.74525 7 9.74525Z" fill="#1967D2"/>
</svg>
