<svg width="96" height="96" viewBox="0 0 96 96" fill="none" xmlns="http://www.w3.org/2000/svg">
<path d="M22 9C18.6863 9 16 11.6863 16 15V67C16 70.3137 18.6863 73 22 73H41L56 88V73H74C77.3137 73 80 70.3137 80 67V15C80 11.6863 77.3137 9 74 9H22Z" fill="#34A853"/>
<path d="M22 9C18.6863 9 16 11.6863 16 15V53C16 64.0457 24.9543 73 36 73H41L56 88V73H74C77.3137 73 80 70.3137 80 67V15C80 11.6863 77.3137 9 74 9H22Z" fill="url(#paint0_linear)"/>
<path d="M16 15C16 11.6863 18.6863 9 22 9H74C77.3137 9 80 11.6863 80 15V16C80 12.6863 77.3137 10 74 10H22C18.6863 10 16 12.6863 16 16V15Z" fill="white" fill-opacity="0.2"/>
<path d="M41.3536 72.6464L41.2071 72.5H41H22C18.9624 72.5 16.5 70.0376 16.5 67V15C16.5 11.9624 18.9624 9.5 22 9.5H74C77.0376 9.5 79.5 11.9624 79.5 15V67C79.5 70.0376 77.0376 72.5 74 72.5H56H55.5V73V86.7929L41.3536 72.6464Z" stroke="url(#paint1_linear)"/>
<path d="M44.552 47.056V45.088C44.552 43.488 44.872 42.144 45.512 41.056C46.152 39.936 47.256 38.688 48.824 37.312C49.784 36.448 50.552 35.648 51.128 34.912C51.704 34.144 51.992 33.2 51.992 32.08C51.992 30.864 51.56 29.84 50.696 29.008C49.864 28.176 48.68 27.76 47.144 27.76C45.608 27.76 44.408 28.224 43.544 29.152C42.68 30.048 42.072 31.024 41.72 32.08L37.112 30.16C37.464 29.072 38.056 27.968 38.888 26.848C39.72 25.696 40.808 24.752 42.152 24.016C43.528 23.248 45.176 22.864 47.096 22.864C49.08 22.864 50.824 23.264 52.328 24.064C53.864 24.864 55.048 25.952 55.88 27.328C56.712 28.672 57.128 30.208 57.128 31.936C57.128 33.216 56.888 34.352 56.408 35.344C55.96 36.336 55.384 37.216 54.68 37.984C54.008 38.752 53.352 39.44 52.712 40.048C51.656 41.008 50.904 41.888 50.456 42.688C50.008 43.488 49.784 44.48 49.784 45.664V47.056H44.552ZM47.144 58.288C46.12 58.288 45.256 57.936 44.552 57.232C43.88 56.528 43.544 55.68 43.544 54.688C43.544 53.696 43.88 52.848 44.552 52.144C45.256 51.44 46.12 51.088 47.144 51.088C48.136 51.088 48.968 51.44 49.64 52.144C50.344 52.848 50.696 53.696 50.696 54.688C50.696 55.68 50.344 56.528 49.64 57.232C48.968 57.936 48.136 58.288 47.144 58.288Z" fill="white"/>
<defs>
<linearGradient id="paint0_linear" x1="16" y1="73" x2="80" y2="9" gradientUnits="userSpaceOnUse">
<stop stop-color="#188038"/>
<stop offset="1" stop-color="#188038" stop-opacity="0"/>
</linearGradient>
<linearGradient id="paint1_linear" x1="48" y1="9" x2="48" y2="88" gradientUnits="userSpaceOnUse">
<stop stop-color="#202124" stop-opacity="0"/>
<stop offset="1" stop-color="#202124" stop-opacity="0.12"/>
</linearGradient>
</defs>
</svg>
