<svg width="18" height="18" viewBox="0 0 18 18" fill="none" xmlns="http://www.w3.org/2000/svg">
  <path fill-rule="evenodd" clip-rule="evenodd" d="M12.0878 12.848C12.5 12.448 13.0522 12.2 13.6667 12.2C14.9578 12.2 16 13.272 16 14.6C16 15.928 14.9578 17 13.6667 17C12.3756 17 11.3333 15.928 11.3333 14.6C11.3333 14.408 11.3644 14.224 11.4033 14.048L5.92 10.752C5.5 11.152 4.94778 11.4 4.33333 11.4C3.04222 11.4 2 10.328 2 9C2 7.672 3.04222 6.6 4.33333 6.6C4.94778 6.6 5.5 6.848 5.92 7.248L11.4033 3.96C11.3644 3.784 11.3333 3.592 11.3333 3.4C11.3333 2.072 12.3756 1 13.6667 1C14.9578 1 16 2.072 16 3.4C16 4.728 14.9578 5.8 13.6667 5.8C13.0522 5.8 12.4922 5.552 12.08 5.152L6.59667 8.44C6.63556 8.624 6.66667 8.808 6.66667 9C6.66667 9.192 6.63556 9.376 6.59667 9.56L12.0878 12.848ZM14.4444 3.4C14.4444 2.96 14.0944 2.6 13.6667 2.6C13.2389 2.6 12.8889 2.96 12.8889 3.4C12.8889 3.84 13.2389 4.2 13.6667 4.2C14.0944 4.2 14.4444 3.84 14.4444 3.4ZM4.33333 9.8C3.90556 9.8 3.55556 9.44 3.55556 9C3.55556 8.56 3.90556 8.2 4.33333 8.2C4.76111 8.2 5.11111 8.56 5.11111 9C5.11111 9.44 4.76111 9.8 4.33333 9.8ZM12.8889 14.6C12.8889 15.04 13.2389 15.4 13.6667 15.4C14.0944 15.4 14.4444 15.04 14.4444 14.6C14.4444 14.16 14.0944 13.8 13.6667 13.8C13.2389 13.8 12.8889 14.16 12.8889 14.6Z"/>
</svg>
