<svg width="24" height="24" viewBox="0 0 24 24" fill="none" xmlns="http://www.w3.org/2000/svg"><path d="M20 2H4c-1.1 0-1.99.9-1.99 2L2 20c0 1.1.9 2 2 2h16c1.1 0 2-.9 2-2V4c0-1.1-.9-2-2-2zm-2.29 7.33c-.06 4.62-3.02 7.78-7.42 7.98-1.82.08-3.14-.5-4.28-1.23 1.34.21 3.01-.32 3.9-1.09-1.32-.13-2.1-.8-2.46-1.88.38.07.78.05 1.14-.03-1.19-.4-2.04-1.13-2.08-2.67.33.15.68.29 1.14.32-.9-.5-1.55-2.35-.8-3.57 1.32 1.45 2.91 2.63 5.52 2.79-.65-2.8 3.06-4.32 4.61-2.44.66-.13 1.19-.38 1.7-.65-.21.65-.62 1.1-1.12 1.47.54-.07 1.03-.21 1.44-.41-.25.53-.81 1.01-1.29 1.41z" /></svg>