<?xml version="1.0" encoding="utf-8"?>
<!-- Generator: Adobe Illustrator 27.8.1, SVG Export Plug-In . SVG Version: 6.00 Build 0)  -->
<svg version="1.1" id="Layer_1" xmlns="http://www.w3.org/2000/svg" xmlns:xlink="http://www.w3.org/1999/xlink" x="0px" y="0px"
	 viewBox="0 0 120 120" style="enable-background:new 0 0 120 120;" xml:space="preserve">
<style type="text/css">
	.st0{fill:#EA3323;}
</style>
<path class="st0" d="M64.7,83.1h12.2c0.8,2.1,1.3,4.4,1.3,6.7c0,1.1-0.1,2.2-0.3,3.3H67.4c0.4-1,0.7-2.1,0.7-3.3
	C68,87.1,66.7,84.6,64.7,83.1z M59.6,81.4h16.5c-3.1-6-9.3-10.1-16.5-10.1l0,0c-5.9,0-11.1,2.7-14.5,7l6.1,10.6
	C51.7,84.6,55.3,81.4,59.6,81.4z M59.6,83.1c-3.7,0-6.7,3-6.7,6.7c0,1.2,0.3,2.3,0.9,3.3h11.8c0.5-1,0.9-2.1,0.9-3.3
	C66.3,86.1,63.3,83.1,59.6,83.1z M53.6,56.6h12c1.3,0,2.3-1.1,2.3-2.3V54c0-1.3-1.1-2.3-2.3-2.3h-12c-1.3,0-2.3,1.1-2.3,2.3v0.3
	C51.3,55.6,52.4,56.6,53.6,56.6z M120,60L120,60c0,33.1-26.9,60-60,60h0C26.9,120,0,93.1,0,60v0C0,26.9,26.9,0,60,0h0
	C93.1,0,120,26.9,120,60z M77.6,26c0,0.3,0.3,0.6,0.6,0.6h2v2c0,0.3,0.3,0.6,0.6,0.6s0.6-0.3,0.6-0.6v-2h2c0.3,0,0.6-0.3,0.6-0.6
	s-0.3-0.6-0.6-0.6h-2v-2c0-0.3-0.3-0.6-0.6-0.6s-0.6,0.3-0.6,0.6v2h-2C77.9,25.3,77.6,25.6,77.6,26z M67.9,30.9l1.6,1.6l1.6-1.6
	l-1.6-1.6L67.9,30.9z M58.3,23c0,0.7,0.6,1.4,1.4,1.4c0.7,0,1.4-0.6,1.4-1.4c0-0.7-0.6-1.4-1.4-1.4C58.9,21.7,58.3,22.3,58.3,23z
	 M53,39.9c0,1.3,1.1,2.4,2.4,2.4c1.3,0,2.4-1.1,2.4-2.4c0-1.3-1.1-2.4-2.4-2.4C54.1,37.4,53,38.5,53,39.9z M44.6,31.8
	c0,0.3,0.3,0.6,0.6,0.6h2.9v2.9c0,0.3,0.3,0.6,0.6,0.6s0.6-0.3,0.6-0.6v-2.9h2.9c0.3,0,0.6-0.3,0.6-0.6c0-0.3-0.3-0.6-0.6-0.6h-2.9
	v-2.9c0-0.3-0.3-0.6-0.6-0.6s-0.6,0.3-0.6,0.6v2.9h-2.9C44.9,31.1,44.6,31.4,44.6,31.8z M33.1,47.5h19.1c0-0.1,0-0.3,0-0.4v-0.2
	c0-1.2,1-2.1,2.1-2.1h11c1.2,0,2.1,1,2.1,2.1v0.2c0,0.1,0,0.3,0,0.4h18.9l-6.8-6.9l-20.1,0c-0.4,1.8-2,3.1-3.9,3.1
	c-1.9,0-3.5-1.3-3.9-3.1l-9.7,0L33.1,47.5z M86.3,48.5l-53.2,0l0,0v41.3c0,2.7,2.2,4.8,4.8,4.8h43.5c2.7,0,4.8-2.2,4.8-4.8
	L86.3,48.5z M51.8,93.1l-7.7-13.4c-1.9,2.9-3,6.4-3,10.1c0,1.1,0.1,2.2,0.3,3.3H51.8z"/>
</svg>
