<?xml version="1.0" encoding="utf-8"?>
<!-- Generator: Adobe Illustrator 27.8.1, SVG Export Plug-In . SVG Version: 6.00 Build 0)  -->
<svg version="1.1" id="Layer_1" xmlns="http://www.w3.org/2000/svg" xmlns:xlink="http://www.w3.org/1999/xlink" x="0px" y="0px"
	 viewBox="0 0 120 120" style="enable-background:new 0 0 120 120;" xml:space="preserve">
<style type="text/css">
	.st0{fill:#3483F6;}
</style>
<path class="st0" d="M60,56.9c3.6,0,6.6,3,6.6,6.6c0,3.6-3,6.6-6.6,6.6c-3.6,0-6.6-3-6.6-6.6C53.4,59.8,56.3,56.9,60,56.9z M60,55.2
	h15c-2.9-5.3-8.6-8.9-15-8.9c-5.5,0-10.5,2.6-13.6,6.7l5.4,9.4C52.3,58.4,55.7,55.2,60,55.2z M60,71.7c-3.1,0-5.7-1.7-7.1-4.1
	l-7.5-13c-1.6,2.6-2.5,5.6-2.5,8.9c0,8.7,6.5,15.9,14.9,17l5.4-9.4C62.2,71.5,61.1,71.7,60,71.7z M72.1,35.2V28
	c0-1.4-1.7-1.6-2.8-1.6H52.1c-1,0-2.8,0.2-2.8,1.6v7.2h0c0,0,0,0,0,0.1L72.1,35.2C72.1,35.2,72.1,35.2,72.1,35.2z M120,60
	c0,33.1-26.9,60-60,60S0,93.1,0,60S26.9,0,60,0S120,26.9,120,60z M97.8,45.6c0-5.7-5-10.3-11.1-10.3H74.9c0,0,0,0,0-0.1V28
	c0-2.7-2.2-4.4-5.6-4.4H52.1c-3.4,0-5.6,1.7-5.6,4.4v7.2c0,0,0,0,0,0.1H33.3c-6.1,0-11.1,4.6-11.1,10.3v17h19.1c0,0.3,0,0.6,0,0.9
	c0,0.2,0,0.3,0,0.5H22.2v24.9c0,0.5,0.4,0.9,0.9,0.9h73.8c0.5,0,0.9-0.4,0.9-0.9V64H78.6c0-0.2,0-0.3,0-0.5c0-0.3,0-0.6,0-0.9h19.2
	V45.6z M64.9,56.9c2,1.5,3.3,3.9,3.3,6.6c0,1.5-0.4,2.9-1.1,4.1v0l-7.5,13c0.1,0,0.2,0,0.4,0v0c9.4,0,17.1-7.7,17.1-17.1
	c0-2.3-0.5-4.6-1.3-6.6H64.9z"/>
</svg>
